<svg id="Layer_1" data-name="Layer 1" xmlns="http://www.w3.org/2000/svg" xmlns:xlink="http://www.w3.org/1999/xlink" viewBox="0 0 90 90"><defs><clipPath id="clip-path"><rect x="18.99" y="7.8" width="52.02" height="67.86" style="fill:none"/></clipPath></defs><title>adv-2</title><circle cx="45" cy="45" r="44.5" style="fill:#e40073"/><g style="clip-path:url(#clip-path)"><path d="M34.88,31.78l6.21,0a2.86,2.86,0,0,1,2.82,2.91l0,3.88a.86.86,0,0,1-.85.88h-.12a1.11,1.11,0,0,0,0,2.21H47a1.11,1.11,0,0,0,0-2.21H46.9a.87.87,0,0,1-.85-.88V34.73a5,5,0,0,0-5-5.13l-6.21,0a1.11,1.11,0,0,0,0,2.21M50,29.57h6.29a1.11,1.11,0,0,1,0,2.21H50a1.11,1.11,0,0,1,0-2.21m3.39,4.1c-2.77,0-2.79,4.41,0,4.42s2.8-4.41,0-4.42M36.61,38c-2.78,0-2.75-4.43,0-4.42s2.75,4.44,0,4.42m24,29.15a5.45,5.45,0,0,1-5.41,5.11A6.6,6.6,0,0,1,49.94,70a1.75,1.75,0,0,1,.52-2.7,12.31,12.31,0,0,0,5.15-5.13,1.64,1.64,0,0,1,2.09-.77l1,.45a1.69,1.69,0,0,1,.57.43,6.39,6.39,0,0,1,1.26,4.91c-.22,2.62.18-2.21,0,0M44.25,65.81c.16-.54.31-1.09.45-1.64a.22.22,0,0,1,.44,0q.2.84.45,1.65a.44.44,0,0,1-.41.57h-.53a.43.43,0,0,1-.4-.57m-12,5.9c-3.23-1.56-4-6.43-1.86-9.25A1.47,1.47,0,0,1,31,62c.5-.24,1-.45,1.44-.64a1.65,1.65,0,0,1,2.08.75,12.16,12.16,0,0,0,5,5.08,1.74,1.74,0,0,1,.42,2.75c-1.89,1.84-5.28,2.93-7.67,1.78m-7-32.8c-.22-2.82,1.27-4.6,4-4.66a.86.86,0,0,0,.32,0,2,2,0,0,0,2.15-1.89l.11-2.17a2.33,2.33,0,0,1,1.46-2.05A31.87,31.87,0,0,1,45,25.77,31.77,31.77,0,0,1,56.7,28.19a2.33,2.33,0,0,1,1.45,2l.11,2.14a2,2,0,0,0,2.3,1.86c2.84,0,4.49,1.73,4.27,4.68-.15,2-1,4-3.15,4.26a1.08,1.08,0,0,0-1.84-.94c-.58.64-.66,2.13-1,3a16.34,16.34,0,0,1-3,5,14.56,14.56,0,0,1-9.24,5,.6.6,0,0,1-.65-.58V54.5a.89.89,0,0,1,.47-.82,3.41,3.41,0,0,0,1.74-3V48a.84.84,0,0,1,.39-.73A3.12,3.12,0,0,0,49.92,46a.84.84,0,0,0-.76-1.12H40.84A.84.84,0,0,0,40.08,46a2.9,2.9,0,0,0,1.14,1.2.86.86,0,0,1,.38.72V50.7a3.41,3.41,0,0,0,1.74,3,.91.91,0,0,1,.47.82s0,.09,0,.13a.59.59,0,0,1-.65.58,14.4,14.4,0,0,1-8.89-4.7,17.22,17.22,0,0,1-3.34-5.87c-.28-.88-.29-2.78-1.15-3.27a1,1,0,0,0-1.29.23c-.42.46-.26,1-.15,1.53-1.9-.33-2.92-1.72-3.12-4.22-.08-1.06.2,2.5,0,0M45,21.17A17.64,17.64,0,0,1,56.4,25.05a.32.32,0,0,1-.29.55,33.29,33.29,0,0,0-22.22,0A.31.31,0,0,1,33.6,25,17.38,17.38,0,0,1,45,21.17M52.5,59.48s0,1.7.07,2.66a1.64,1.64,0,0,1-.45,1.19,10.17,10.17,0,0,1-3.36,2.32.86.86,0,0,1-1.14-.58,41.15,41.15,0,0,1-1.31-6.82.75.75,0,0,1,.66-.83,15.8,15.8,0,0,0,4.35-1.16,1,1,0,0,1,1.34,1.11,14.76,14.76,0,0,0-.16,2.11M43.75,50a1.59,1.59,0,0,0,.66.14h1a1.59,1.59,0,0,0,.66-.14v.67a1.17,1.17,0,0,1-2.33,0Zm-6.21,9.45a13.7,13.7,0,0,0-.17-2.13,1,1,0,0,1,1.34-1.1,16.34,16.34,0,0,0,4.16,1.15.76.76,0,0,1,.66.83A40.9,40.9,0,0,1,42.24,65a.85.85,0,0,1-1.16.57,9.86,9.86,0,0,1-3.15-2.28,1.62,1.62,0,0,1-.44-1.15c0-.94,0-2.62,0-2.62M70,69C68.68,65,64.24,62,60.3,60.13a12.17,12.17,0,0,0-4-2.41,1.75,1.75,0,0,1-1-2.24,13.12,13.12,0,0,1,2.54-4.15,16.77,16.77,0,0,0,2.76-4.85A1.77,1.77,0,0,1,62,45.33a5.73,5.73,0,0,0,4.72-4.71c.72-3.19-.1-6.65-3.08-8A1.2,1.2,0,0,1,63,31.43V31.3A1.92,1.92,0,0,0,62.57,30c.41-.61.19-1.73.15-2.43s-.09-1.56-.17-2.34a27.86,27.86,0,0,0-.72-4,18.37,18.37,0,0,0-3-6.42C56,11,51.47,9.22,46.86,8.88A2.23,2.23,0,0,0,43,8.9,16.4,16.4,0,0,0,28.32,20.55a26.57,26.57,0,0,0-.92,4.32c-.1.77-.17,1.55-.21,2.33s-.33,2.18.17,2.84A2,2,0,0,0,27,31.3v.14a1.21,1.21,0,0,1-.72,1.21c-2.95,1.33-3.75,4.81-3,8A5.89,5.89,0,0,0,28,45.29a1.81,1.81,0,0,1,1.3,1.09,24.86,24.86,0,0,0,3.07,5.21,13.11,13.11,0,0,1,2.31,3.84,1.75,1.75,0,0,1-1,2.22,12.16,12.16,0,0,0-4.34,2.68c-3.26,1.61-6.72,3.81-8.6,7.09a13.94,13.94,0,0,0-1.64,8.25l2.13-.3A13.51,13.51,0,0,1,22,69.91c.89-2.63,3.12-4.48,5.35-5.92-1,4.28.85,8.88,5.15,10.16S41,73.1,43,69.2a1.14,1.14,0,0,1,1.11-.63,11.09,11.09,0,0,0,1.73,0,1.13,1.13,0,0,1,1.08.63c2,3.94,6.24,6.29,10.62,4.9s6-6,5-10.28c2.23,1.41,4.58,3.26,5.53,5.87a13.18,13.18,0,0,1,.82,5.67l2.13.3A15.88,15.88,0,0,0,70,69c-1.35-3.93,1.29,3.78,0,0" style="fill:#fff"/></g></svg>