<svg id="Layer_1" data-name="Layer 1" xmlns="http://www.w3.org/2000/svg" viewBox="0 0 90 90"><title>adv-1</title><circle cx="45" cy="45" r="45" style="fill:#971b6d"/><path d="M14.16,18.37h2.4L21,22.8H18.59Zm9.21,2L18.94,16V13.6L23.37,18ZM8.9,17.88l7.8,7.8a1.69,1.69,0,0,0,1.19.49h6.46L42.61,44.42A1.68,1.68,0,0,0,45,42L26.74,23.79V17.32a1.69,1.69,0,0,0-.5-1.19L18.45,8.34a1.68,1.68,0,0,0-2.88,1.19V15H10.09a1.68,1.68,0,0,0-1.55,1,1.69,1.69,0,0,0,.36,1.84M26.12,30.32a21.9,21.9,0,1,0,4.76-4.77l-2.4-2.41a25.32,25.32,0,1,1-4.77,4.77ZM43.8,38.18h-.28l-2.79-2.8A8.47,8.47,0,1,1,36,40.16l2.8,2.8a2.45,2.45,0,0,0,0,.27,5.06,5.06,0,1,0,5.06-5M37,31.63A13.55,13.55,0,1,1,32.2,36.4L29.75,34A16.69,16.69,0,0,0,27,43.23a16.87,16.87,0,1,0,7.56-14Z" style="fill:#fff"/></svg>