<?xml version="1.0" encoding="utf-8"?>
<!-- Generator: Adobe Illustrator 22.0.1, SVG Export Plug-In . SVG Version: 6.00 Build 0)  -->
<svg version="1.2" baseProfile="tiny" id="Layer_1" xmlns="http://www.w3.org/2000/svg" xmlns:xlink="http://www.w3.org/1999/xlink"
	 x="0px" y="0px" viewBox="0 0 464.9 385.5" xml:space="preserve">
<g>
	<g>
		<path fill="#FFFFFF" d="M186.6,63.4c10.3-5.1,17.4-15.7,17.4-28c0-17.2-14-31.2-31.2-31.2v0l0,0h-68v85h17V66.6h47l13.1,22.7h19.6
			L186.6,63.4z M121.8,21.3h51l0,0v0c7.8,0,14.2,6.4,14.2,14.2c0,7.8-6.4,14.2-14.2,14.2v0l0,0h-51V21.3z M394,21.3v17h68v17h-68v17
			h68v17h-85v-85h85v17H394z M223.9,4.3h17v85h-17V4.3z M317.4,4.3L317.4,4.3l-51,0v85h51c23.4,0,42.5-19.1,42.5-42.5
			C360,23.3,340.9,4.3,317.4,4.3 M317.4,72.3h-34v-51h34v0c14.1,0,25.5,11.4,25.5,25.5C342.9,60.8,331.5,72.3,317.4,72.3"/>
	</g>
	<g>
		<path fill="#FFFFFF" d="M202.7,274l1.8-3.8l-2.1-2.6l-4,3.3l-2.1-2.6l4-3.3l-4.2-5.2l-5,5c0.6,1.4,0.3,3.1-1,4.1
			c-1.1,0.9-2.4,1-3.6,0.5l-5.2,5.2l2.9,3.5l4-3.3l2.1,2.6l-4,3.3l2.1,2.6l4.1-0.9l-1.3,3.4l-4.4,1l-1.9,4.1l-3.6,0.5l1.8-3.8
			l-2.1-2.6l-4,3.3l-2.1-2.6l4-3.3l-2.4-3L161.6,294l1,1.3l4-3.3l2.1,2.6l-4,3.3l2.1,2.6l4.1-0.9l-1.3,3.4l-4.4,1l-1.9,4.1l-3.6,0.5
			l1.8-3.8l-2.1-2.6l-4,3.3l-2.1-2.6l4-3.3l-0.6-0.7l-6.1,6.1l1.3-1.1l2.1,2.6l-5.4,4.3l-1.8-2.2l-1.2,1.2l1.7,2.1l-4,3.3l2.1,2.6
			l4.1-0.9l-1.3,3.4l-4.4,1l-1.9,4.1l-3.6,0.5l1.8-3.8l-2.1-2.6l-4,3.3l-0.5-0.7l-1.2,1.2l0.4,0.5l-5,4.1l-5.2,5.2l1.7,2l4.1-0.9
			l-1.3,3.4l-4.4,1l-1.9,4.1l-3.6,0.5l1.8-3.8l-1.2-1.5l-6.2,6.2h18.7l3.7-8.1l-4.1,0.9l1.3-3.4l4.4-1l1.9-4.1l3.6-0.5L139,332
			l11.3-2.6l4.8-10.5l-4.1,0.9l1.3-3.4l4.4-1l1.9-4.1l3.6-0.5l-1.8,3.8l11.3-2.5l4.8-10.5l-4.1,0.9l1.3-3.4l4.4-1l1.9-4.1l3.6-0.5
			l-1.8,3.8l11.3-2.5l4.8-10.5l-4.1,0.9l1.3-3.4l4.4-1l1.9-4.1l3.6-0.5l-1.8,3.8l11.3-2.6l0.4-0.9h-8.1v-4.3l-0.7,1.4L202.7,274z
			 M170.1,293.6L168,291l5.4-4.3l2.1,2.6L170.1,293.6z M191.6,276.2l-2.1-2.6l5.4-4.3l2.1,2.6L191.6,276.2z"/>
		<polygon fill="#FFFFFF" points="216.7,279.9 201.7,283.3 195.3,297.3 195.3,297.3 180.3,300.7 173.8,314.7 158.8,318.1 152.4,332 
			137.4,335.4 133.2,344.4 136.6,344.4 139.5,338.1 139.5,338.1 154.5,334.7 154.5,334.7 154.5,334.7 154.5,334.7 161,320.7 
			161,320.7 176,317.3 182.4,303.3 197.4,299.9 197.4,299.9 197.4,299.9 197.4,299.9 203.9,286 203.9,286 218.9,282.6 221.7,276.4 
			218.4,276.4 		"/>
		<path fill="#FFFFFF" d="M201.2,255.3l4.3,5.3l1.4-1.1v-8.1c-0.1-0.1-0.2-0.2-0.3-0.3L201.2,255.3z"/>
		<path fill="#FFFFFF" d="M226.7,280.8l-1.3,3.4l-4.4,1l-1.9,4.1l-3.6,0.5l1.8-3.8l-11.3,2.6l-4.8,10.5l4.1-0.9l-1.3,3.4l-4.4,1
			l-1.9,4.1l-3.6,0.5l1.8-3.8l-11.3,2.6l-4.8,10.5l4.1-0.9l-1.3,3.4l-4.4,1l-1.9,4.1l-3.6,0.5l1.8-3.8l-11.3,2.6l-4.8,10.5l4.1-0.9
			l-1.3,3.4l-4.4,1l-1.9,4.1l-3.6,0.5l1.8-3.8l-11.3,2.6l-2.7,5.9v4.1l2-0.5l-1.3,3.4l-0.7,0.2v8.8l4.3-3.5l2.1,2.6l-5.4,4.3
			l-1.1-1.4v11l0,0l5.4-4.3c-1.2-1.5-0.9-3.6,0.5-4.8c1.5-1.2,3.6-1,4.8,0.5l5.4-4.3l-4.3-5.3l-4,3.3l-2.1-2.6l4-3.3l-2.1-2.6
			l-4.1,0.9l1.3-3.4l4.4-1l1.9-4.1l3.6-0.5l-1.8,3.8l2.1,2.6l4-3.3l2.1,2.6l-4,3.3l4.3,5.3l5.4-4.3c-1.2-1.5-0.9-3.6,0.5-4.8
			c1.5-1.2,3.6-1,4.8,0.5l5.4-4.3l-4.3-5.3l-4,3.3l-2.1-2.6l4-3.3l-2.1-2.6l-4.1,0.9l1.3-3.4l4.4-1l1.9-4.1l3.6-0.5l-1.8,3.8
			l2.1,2.6l4-3.3l2.1,2.6l-4,3.3l4.3,5.3l5.4-4.3c-1.2-1.5-0.9-3.6,0.5-4.8c1.5-1.2,3.6-1,4.8,0.5l5.4-4.3l-4.3-5.3l-4,3.3l-2.1-2.6
			l4-3.3l-2.1-2.6l-4.1,0.9l1.3-3.4l4.4-1l1.9-4.1l3.6-0.5l-1.8,3.8l2.1,2.6l4-3.3l2.1,2.6l-4,3.3l4.3,5.3l5.4-4.3
			c-1.2-1.5-0.9-3.6,0.5-4.8c1.5-1.2,3.6-1,4.8,0.5l5.4-4.3l-4.3-5.3l-4,3.3l-2.1-2.6l4-3.3l-2.1-2.6l-4.1,0.9l1.3-3.4l4.4-1
			l1.9-4.1l3.6-0.5l-1.8,3.8l2.1,2.6l4-3.3l2.1,2.6l-4,3.3l4.3,5.3l5.4-4.3c-1.2-1.5-0.9-3.6,0.5-4.8c1.4-1.2,3.5-1,4.7,0.4l4.9-4.9
			l-3.7-4.6l-4,3.3l-2.1-2.6l4-3.3l-2.1-2.6l-4.1,0.9l1.3-3.4l4.4-1l1.3-2.8h-10.1l-2.5,5.3L226.7,280.8z M166.8,344.4l-5.4,4.3
			l-2.1-2.6l5.4-4.3L166.8,344.4z M188.3,327l-5.4,4.3l-2.1-2.6l5.4-4.3L188.3,327z M209.7,309.7l-5.4,4.3l-2.1-2.6l5.4-4.3
			L209.7,309.7z M231.2,292.3l-5.4,4.3l-2.1-2.6l5.4-4.3L231.2,292.3z"/>
		<polygon fill="#FFFFFF" points="239.8,281 240.9,280 240.9,276.4 238.5,276.4 237.6,278.3 		"/>
		<polygon fill="#FFFFFF" points="258,270.6 258,270.6 258,274.9 259.9,272.9 		"/>
		<path fill="#FFFFFF" d="M324.6,199.2l-11.3,2.6l-4.8,10.5l4.1-0.9l-1.3,3.4l-4.4,1l-1.9,4.1l-3.6,0.5l1.8-3.8l-11.3,2.6l-4.8,10.5
			l4.1-0.9l-1.3,3.4l-4.4,1l-1.9,4.1l-3.6,0.5l1.8-3.8l-11.3,2.6l-4.8,10.5l4.1-0.9l-1.3,3.4l-4.4,1l-1.9,4.1l-3.6,0.5l1.8-3.8
			l-2.2,0.5v5.7l2.9-0.4l-1.8,3.8l2.1,2.6l4-3.3l2.1,2.6l-4,3.3l1.5,1.8l14.7-14.7l-0.1-0.1l-4,3.3l-2.1-2.6l4-3.3l-2.1-2.6
			l-4.1,0.9l1.3-3.4l4.4-1l1.9-4.1l3.6-0.5l-1.8,3.8l2.1,2.6l4-3.3l1.4,1.8l1.2-1.2l-1.3-1.6l5.4-4.3l0.9,1.1l1.2-1.2l-0.7-0.9
			l4-3.3l-2.1-2.6l-4.1,0.9l1.3-3.4l4.4-1l1.9-4.1l3.6-0.5l-1.8,3.8l2.1,2.6l14.7-14.7l-0.7-0.9l-4.1,0.9l1.3-3.4l4.4-1l1.9-4.1
			l3.6-0.5l-1.8,3.8l0.3,0.3l2.3-2.3v-4.4l-3.2,0.5L324.6,199.2z M274.1,257.5l-5.4,4.3l-2.1-2.6l5.4-4.3L274.1,257.5z"/>
		<polygon fill="#FFFFFF" points="324,193 309,196.4 302.6,210.4 302.6,210.4 287.6,213.8 281.1,227.8 281.1,227.8 266.1,231.2 
			259.7,245.2 258,245.6 258,248.7 261.8,247.8 261.8,247.8 268.2,233.8 268.2,233.8 283.3,230.4 283.3,230.4 289.7,216.5 
			304.7,213.1 304.7,213.1 311.2,199.1 311.2,199.1 326,195.7 326,188.8 324,193 		"/>
		<path fill="#FFFFFF" d="M319.2,159.7c1.2,1.5,0.9,3.6-0.5,4.8c-1.5,1.2-3.6,1-4.8-0.5l-5.4,4.3l4.3,5.3l4-3.3l2.1,2.6l-4,3.3
			l2.1,2.6l4.1-0.9l-1.3,3.4l-4.4,1l-1.9,4.1l-3.6,0.5l1.8-3.8l-2.1-2.6l-4,3.3l-2.1-2.6l4-3.3l-4.3-5.3l-5.4,4.3
			c1.2,1.5,0.9,3.6-0.5,4.8c-1.5,1.2-3.6,1-4.8-0.5l-5.4,4.3l4.3,5.3l4-3.3l2.1,2.6l-4,3.3l2.1,2.6l4.1-0.9l-1.3,3.4l-4.4,1
			l-1.9,4.1l-3.6,0.5l1.8-3.8l-2.1-2.6l-4,3.3l-2.1-2.6l4-3.3l-4.3-5.3l-5.4,4.3c1.2,1.5,0.9,3.6-0.5,4.8c-1.5,1.2-3.6,1-4.8-0.5
			l-5.4,4.3l4.3,5.3l4-3.3l2.1,2.6l-4,3.3l2.1,2.6l4.1-0.9l-1.3,3.4l-4.4,1l-1.9,4.1l-3.6,0.5l1.8-3.8l-2.1-2.6l-4,3.3l-2.1-2.6
			l4-3.3l-4.3-5.3l-2.3,1.9v8.8l1.2-1l2.1,2.6l-3.3,2.7v19.1l4.4-9.5l-4.1,0.9l1.3-3.4l4.4-1l1.9-4.1l3.6-0.5l-1.8,3.8l11.3-2.6
			l4.8-10.5l-4.1,0.9l1.3-3.4l4.4-1l1.9-4.1l3.6-0.5l-1.8,3.8l11.3-2.5l4.8-10.5l-4.1,0.9l1.3-3.4l4.4-1l1.9-4.1l3.6-0.5l-1.8,3.8
			l11.3-2.6l4.1-8.9v-1.4l-3.3,0.8l1.3-3.4l2.1-0.5v-11.7l-1.1-1.4l1.1-0.9v-5.9l-1.4-1.7L319.2,159.7z M277.4,206.7l-2.1-2.6
			l5.4-4.3l2.1,2.6L277.4,206.7z M298.8,189.4l-2.1-2.6l5.4-4.3l2.1,2.6L298.8,189.4z M325.7,167.6l-5.4,4.3l-2.1-2.6l5.4-4.3
			L325.7,167.6z"/>
		<polygon fill="#FFFFFF" points="397,129.6 405.1,127.7 409.2,123.7 394.9,126.9 394,128.8 394,136 397,129.6 		"/>
		<polygon fill="#FFFFFF" points="398.2,119.6 396.5,123.4 407.7,120.9 412.6,110.4 408.5,111.3 409.7,107.9 414.2,106.9 
			414.5,106.3 401.4,106.3 400.8,106.8 402.9,109.5 407,108.5 405.7,112 401.3,113 399.4,117.1 395.8,117.6 397.5,113.8 
			395.4,111.2 394,112.3 394,121.5 394.6,120.2 		"/>
		<polygon fill="#FFFFFF" points="399.1,132.2 397.9,135 401.1,131.8 		"/>
		<polygon fill="#FFFFFF" points="418.5,112.2 418.5,112.2 421.3,111.6 425.3,107.5 416.3,109.6 410.3,122.5 416.6,116.3 		"/>
		<path fill="#FFFFFF" d="M37.4,344.4H38c0,0,0-0.1,0-0.1C37.8,344.4,37.6,344.4,37.4,344.4"/>
		<path fill="#FFFFFF" d="M39.7,344.1c0,0.1,0.1,0.2,0.1,0.3h3.5l0.7-0.7C42.6,343.8,41.2,343.9,39.7,344.1"/>
		<path fill="#FFFFFF" d="M57.1,322.6c0.7,1.8,1.3,3.9,1.9,6.1l6.7-6.7C63,322.1,60.1,322.3,57.1,322.6"/>
		<path fill="#FFFFFF" d="M45.3,324.7c0.9,1.9,1.9,4.2,2.5,6.4c3.6-0.4,7.1-0.7,9.3-0.8c-0.1-2.8-1.1-5.6-1.8-7.5
			C52,323.3,48.6,324,45.3,324.7"/>
		<path fill="#FFFFFF" d="M45,331.5c-0.4-1.2-1.1-3.2-2.7-6c-3.6,0.9-6.8,1.9-9.4,2.9c0,0,1.2,2.5,3.2,4.8
			C38.3,332.5,41.6,331.9,45,331.5"/>
		<path fill="#FFFFFF" d="M24.4,339l3.4,5c5.5-1.6,12.2-2.5,18.6-2.6l8.4-8.4C44,333,28.6,337.1,24.4,339"/>
		<path fill="#FFFFFF" d="M62.7,303.3c0.9,1.9,1.9,4.2,2.5,6.4c3.6-0.4,7.1-0.7,9.3-0.8c-0.1-2.8-1.1-5.6-1.7-7.5
			C69.4,301.9,65.9,302.5,62.7,303.3"/>
		<path fill="#FFFFFF" d="M84.2,303.5c-0.2-1-0.5-2-0.8-2.9c-2.7,0-5.8,0.2-9,0.6c1,2.7,1.9,5.9,2.7,9.3L84.2,303.5z"/>
		<path fill="#FFFFFF" d="M62.4,310c-0.4-1.2-1.1-3.2-2.7-6c-3.6,0.9-6.8,1.9-9.4,2.9c0,0,1.2,2.5,3.2,4.8
			C55.7,311.1,59,310.5,62.4,310"/>
		<path fill="#FFFFFF" d="M67.8,319.9l7.7-7.7c0-0.2-0.1-0.4-0.1-0.5c-10.5-1.1-28.9,3.7-33.6,5.8l3.4,5
			C51.9,320.6,60.3,319.8,67.8,319.9"/>
		<path fill="#FFFFFF" d="M70.9,290.3c2.1-0.6,5.4-1.2,8.9-1.7c-0.4-1.2-1.1-3.2-2.7-6c-3.6,0.9-6.8,1.9-9.4,2.9
			C67.8,285.4,68.9,287.9,70.9,290.3"/>
		<path fill="#FFFFFF" d="M91.9,287.5c-0.1-2.8-1.1-5.6-1.7-7.5c-3.4,0.5-6.8,1.1-10.1,1.9c0.9,1.9,1.9,4.2,2.5,6.4
			C86.1,287.8,89.6,287.5,91.9,287.5"/>
		<path fill="#FFFFFF" d="M102.2,285.5c-0.3-2.3-0.8-4.5-1.4-6.4c-2.7,0-5.8,0.2-9,0.6c1.4,3.6,2.5,8.1,3.4,12.7L102.2,285.5z"/>
		<path fill="#FFFFFF" d="M89.1,298.6l4.4-4.4c-0.2-1.4-0.4-2.7-0.7-4c-10.5-1.1-28.9,3.7-33.6,5.8l3.4,5
			C70.5,298.7,80.7,298.1,89.1,298.6"/>
		<path fill="#FFFFFF" d="M86.5,300.8c0,0.1,0,0.3,0.1,0.4l0.5-0.5C86.9,300.7,86.7,300.7,86.5,300.8"/>
		<path fill="#FFFFFF" d="M85.6,264.7c0.1,0.2,0.2,0.3,0.3,0.5l1.2-2L85.6,264.7z"/>
		<path fill="#FFFFFF" d="M108.6,279.1c-1.5-0.1-3.2-0.1-4.7,0.2c0.2,1.1,0.4,2.4,0.6,4L108.6,279.1z"/>
		<path fill="#FFFFFF" d="M81.4,272.9c-2.1,0.6-3.8,1.2-4.9,1.7l3.4,5c9.2-2.7,21.4-3.2,30.3-2.1l1.1-1.1c0,0,0,0,0,0H79.4
			L81.4,272.9z"/>
		<path fill="#FFFFFF" d="M153,214.8c-2.7,0-5.8,0.2-9,0.6c2.4,6.4,4.3,15.4,4.7,23.7l6.5-6.5C155.1,226.2,154.5,219.5,153,214.8"/>
		<path fill="#FFFFFF" d="M144,223.1c-0.1-2.8-1.1-5.6-1.8-7.5c-1.1,0.2-2.2,0.3-3.3,0.5v7.3C140.9,223.2,142.7,223.1,144,223.1"/>
		<path fill="#FFFFFF" d="M139.8,245.7c0.7,0,1.3,0.1,2,0.2l4.7-4.7c0-1.6-0.1-3.1-0.2-4.6c-1.9-0.3-4.8-0.6-7.4-0.2v1.7
			C139.2,240.2,139.6,242.9,139.8,245.7"/>
		<path fill="#FFFFFF" d="M146.2,234.8c-0.3-3.2-0.7-6.2-1.3-8.9c-1.8-0.2-3.8-0.2-6-0.1v8.3C141.5,234.2,144,234.5,146.2,234.8"/>
		<path fill="#FFFFFF" d="M147.3,203c0.7-0.1,1.3-0.2,2-0.3c-0.1-0.4-0.3-0.8-0.5-1.3L147.3,203z"/>
		<path fill="#FFFFFF" d="M166.2,221.6l6.4-6.4c0.1-7.3-0.4-16.1-2.3-21.8c-2.7,0-5.8,0.2-9,0.6
			C164.1,201.4,166.3,212.2,166.2,221.6"/>
		<path fill="#FFFFFF" d="M155.5,194.8l-4.5,4.5c0.4,1,0.8,2.1,1,3.1c3.6-0.4,7.1-0.7,9.3-0.8c-0.1-2.8-1-5.6-1.7-7.5
			C158.3,194.3,156.9,194.5,155.5,194.8"/>
		<path fill="#FFFFFF" d="M163.6,213.3c-0.3-3.2-0.7-6.2-1.3-8.9c-5-0.5-11.7,0.3-17.9,1.5l-5.5,5.5v2.3
			C147.2,212.3,156.6,212.3,163.6,213.3"/>
		<path fill="#FFFFFF" d="M162.7,225l1.3-1.3c0-2.9-0.1-5.8-0.3-8.7c-2-0.3-5-0.6-7.7-0.2c0.4,2.2,0.9,5.7,1.2,9.3
			C159,224.3,161,224.6,162.7,225"/>
		<path fill="#FFFFFF" d="M157.4,227c0.1,1.1,0.1,2.1,0.2,3.2l2.7-2.7C159.1,227.2,158.1,227,157.4,227"/>
		<path fill="#FFFFFF" d="M178.7,180.2c-0.1-2.5-0.9-5.2-1.6-7l-7.8,7.8c0,0,0,0,0,0C173,180.5,176.5,180.2,178.7,180.2"/>
		<path fill="#FFFFFF" d="M178.7,172.4c3.2,8.4,5.4,21.2,4.7,31.2l0.5,0.2l6-6c0.4-7.9,0.1-19.1-2.1-26
			C185,171.8,181.9,172.1,178.7,172.4"/>
		<path fill="#FFFFFF" d="M173.4,193.5c0.4,2.2,0.9,5.7,1.2,9.3c2.3,0.1,4.7,0.6,6.8,1.1c0-3.4,0-6.9-0.3-10.2
			C179.1,193.3,176.1,193,173.4,193.5"/>
		<path fill="#FFFFFF" d="M181,206.8c-3-0.8-5-1.1-6.2-1.3c0.2,2.6,0.3,5.1,0.3,7.2L181,206.8z"/>
		<path fill="#FFFFFF" d="M180.9,191.9c-0.3-3.2-0.7-6.2-1.3-8.9c-3.7-0.4-8.3,0-13,0.6l-8.3,8.3
			C166.1,190.9,174.6,190.9,180.9,191.9"/>
		<path fill="#FFFFFF" d="M199.7,150.6l-2.7,2.7c2.7,8.3,4.5,19.8,3.8,28.9l3.4,1.4l2.7-2.7c0-0.1,0-0.2,0-0.3v-20.1
			c-0.4-3.7-0.9-7.2-1.8-10C203.4,150.4,201.6,150.5,199.7,150.6"/>
		<path fill="#FFFFFF" d="M196.1,158.7c-0.1-1.3-0.3-2.7-0.6-3.9l-4.2,4.2C193.2,158.8,194.8,158.7,196.1,158.7"/>
		<path fill="#FFFFFF" d="M190.8,172c0.4,2.2,0.9,5.7,1.2,9.3c2.3,0.1,4.7,0.6,6.8,1.1c0-3.4,0-6.9-0.3-10.2
			C196.5,171.9,193.5,171.6,190.8,172"/>
		<path fill="#FFFFFF" d="M188.7,161.6l-8.4,8.4c6.4-0.5,12.9-0.3,18,0.4c-0.3-3.2-0.7-6.2-1.3-8.9
			C194.6,161.3,191.7,161.3,188.7,161.6"/>
		<path fill="#FFFFFF" d="M192.2,184c0.3,3.5,0.4,6.8,0.2,9c0.5,0.3,1.1,0.5,1.6,0.8l4.5-4.5c0.1-1.3,0.2-2.6,0.2-3.9
			C195.5,184.5,193.4,184.2,192.2,184"/>
		<path fill="#FFFFFF" d="M223.9,135.8v26.3C224.7,157.3,225.3,145.3,223.9,135.8"/>
		<path fill="#FFFFFF" d="M206.9,148.3v-4.9l-4.9,4.9C203.7,148.2,205.3,148.2,206.9,148.3"/>
		<path fill="#FFFFFF" d="M235.5,139.3l5.6,2.3c1-4.6,1.8-21.3-0.7-31.8l-7,7C235.1,124.1,236.1,132.4,235.5,139.3"/>
		<path fill="#FFFFFF" d="M227.1,150.1c2.7,1.5,5.4,2.1,5.4,2.1c0.4-2.7,0.7-6.1,0.9-9.8c-3.1-0.9-5.2-1.2-6.5-1.3
			C227.2,144.6,227.3,147.9,227.1,150.1"/>
		<path fill="#FFFFFF" d="M233.5,139.5c0-3.4,0-6.9-0.3-10.2c-2-0.3-5-0.6-7.7-0.2c0.4,2.2,0.9,5.7,1.2,9.3
			C229,138.5,231.4,139,233.5,139.5"/>
		<path fill="#FFFFFF" d="M231.8,118.6C231.7,118.6,231.7,118.6,231.8,118.6l-7.8,7.8v0.4c3.3,0.1,6.4,0.3,9.1,0.7
			C232.8,124.3,232.4,121.3,231.8,118.6"/>
		<path fill="#FFFFFF" d="M252.9,117.8l5.6,2.3c0.5-2.3,1-7.7,1-13.8h-6.8C253.1,110.3,253.2,114.2,252.9,117.8"/>
		<path fill="#FFFFFF" d="M244.5,128.7c2.7,1.5,5.4,2.1,5.4,2.1c0.4-2.7,0.7-6.1,0.9-9.8c-3.1-0.9-5.2-1.2-6.5-1.3
			C244.6,123.1,244.7,126.4,244.5,128.7"/>
		<path fill="#FFFFFF" d="M244.1,116.9c2.3,0.1,4.7,0.6,6.8,1.1c0-3.4,0-6.9-0.3-10.2c-2-0.3-5-0.6-7.7-0.2
			C243.3,109.8,243.7,113.3,244.1,116.9"/>
		<path fill="#FFFFFF" d="M267.3,109.3c0.2-0.9,0.3-1.9,0.4-3h-5.7c0,0.3,0,0.6-0.1,0.9C264.6,108.7,267.3,109.3,267.3,109.3"/>
		<path fill="#FFFFFF" d="M364.4,372.5c0,0,1.2,2.5,3.2,4.8c2.1-0.7,5.4-1.2,8.9-1.7c-0.4-1.2-1.1-3.2-2.7-6
			C370.1,370.5,366.9,371.5,364.4,372.5"/>
		<path fill="#FFFFFF" d="M376.6,368.9c0.9,1.9,1.9,4.2,2.5,6.4c3.6-0.4,7.1-0.7,9.3-0.8c-0.1-2.8-1.1-5.6-1.8-7.5
			C383.3,367.5,379.9,368.2,376.6,368.9"/>
		<path fill="#FFFFFF" d="M388.4,366.8c1,2.8,2,6.1,2.8,9.6c2.6-0.8,5.2-1.8,7.7-2.8c-0.4-2.7-0.9-5.2-1.5-7.3
			C394.7,366.2,391.6,366.4,388.4,366.8"/>
		<path fill="#FFFFFF" d="M361.4,381.3c9.3-0.1,18.3-1.5,26.9-4C380.4,376.8,368.7,379.2,361.4,381.3"/>
		<path fill="#FFFFFF" d="M391.1,348.2c-3.6,0.9-6.8,1.9-9.4,2.9c0,0,1.2,2.5,3.2,4.8c2.1-0.7,5.4-1.2,8.9-1.7
			C393.4,353,392.6,351,391.1,348.2"/>
		<path fill="#FFFFFF" d="M394,347.5c0.9,1.9,1.9,4.2,2.5,6.4c3.6-0.4,7.1-0.7,9.3-0.8c-0.1-2.8-1.1-5.6-1.8-7.5
			C400.7,346.1,397.3,346.7,394,347.5"/>
		<path fill="#FFFFFF" d="M405.8,345.4c2.3,6.1,4.1,14.5,4.6,22.5c2.3-1.3,4.5-2.7,6.6-4.1c-0.1-6.7-0.6-14-2.3-19
			C412.1,344.8,409,345,405.8,345.4"/>
		<path fill="#FFFFFF" d="M373.1,361.7l3.4,5c9.6-2.8,22.6-3.3,31.5-1.9c-0.3-3.2-0.7-6.2-1.3-8.9
			C396.2,354.8,377.8,359.6,373.1,361.7"/>
		<path fill="#FFFFFF" d="M400.5,366.4c0.3,1.6,0.6,3.7,0.9,6.1c2.4-1.1,4.7-2.2,7-3.4c0-0.8-0.1-1.7-0.2-2.5
			C406.2,366.3,403.2,366,400.5,366.4"/>
		<path fill="#FFFFFF" d="M411.4,326c0.9,1.9,1.9,4.2,2.5,6.4c3.6-0.4,7.1-0.7,9.3-0.8c-0.1-2.8-1-5.6-1.8-7.5
			C418.1,324.6,414.6,325.3,411.4,326"/>
		<path fill="#FFFFFF" d="M432.2,323.3c-2.7,0-5.8,0.2-9,0.6c3.2,8.4,5.4,21.2,4.7,31.2l0.2,0.1c2.2-2,4.3-4,6.3-6.1
			C434.7,341.2,434.4,330.2,432.2,323.3"/>
		<path fill="#FFFFFF" d="M402.3,334.4c2.1-0.7,5.4-1.2,8.9-1.7c-0.4-1.2-1.1-3.2-2.7-6c-0.3,0.1-0.6,0.1-0.9,0.2l-6.8,5.5
			C401.2,333.1,401.7,333.8,402.3,334.4"/>
		<path fill="#FFFFFF" d="M391.8,339.7l-1.1,0.9l3.2,4.7c9.6-2.8,22.6-3.3,31.5-1.9c-0.3-3.2-0.7-6.2-1.3-8.9
			C414.4,333.4,398,337.5,391.8,339.7"/>
		<path fill="#FFFFFF" d="M417.8,344.9c0.4,2.2,0.9,5.7,1.2,9.3c2.3,0.1,4.7,0.6,6.8,1.1c0-3.4,0-6.9-0.3-10.2
			C423.6,344.8,420.6,344.5,417.8,344.9"/>
		<path fill="#FFFFFF" d="M419.5,362.1c1.8-1.3,3.5-2.6,5.2-4c-2.6-0.7-4.4-1-5.5-1.1C419.4,358.7,419.5,360.5,419.5,362.1"/>
		<path fill="#FFFFFF" d="M428.5,311.3c-0.1-0.3-0.2-0.6-0.3-1l-1.6,1.3C427.2,311.5,427.9,311.4,428.5,311.3"/>
		<path fill="#FFFFFF" d="M449.5,301.9c-2.7,0-5.8,0.2-9,0.6c3.2,8.4,5.4,21.2,4.7,31.2l0.8,0.3c2.1-3.3,4-6.7,5.8-10.3
			C451.9,316.4,451.4,307.6,449.5,301.9"/>
		<path fill="#FFFFFF" d="M431.2,310.9c3.6-0.4,7.1-0.7,9.3-0.8c-0.1-2.8-1-5.6-1.7-7.5c-0.5,0.1-1,0.2-1.6,0.2l-6.8,5.5
			C430.7,309.3,431,310.1,431.2,310.9"/>
		<path fill="#FFFFFF" d="M435.2,323.5c0.4,2.2,0.9,5.7,1.2,9.3c2.3,0.1,4.7,0.6,6.8,1.1c0-3.4,0-6.9-0.3-10.2
			C440.9,323.3,437.9,323.1,435.2,323.5"/>
		<path fill="#FFFFFF" d="M422.8,314.6l-11.2,9.1c9.6-2.8,22.4-3.2,31.2-1.9c-0.3-3.2-0.7-6.2-1.3-8.9
			C436.3,312.5,429.2,313.3,422.8,314.6"/>
		<path fill="#FFFFFF" d="M436.6,335.5c0.3,3.5,0.4,6.8,0.2,9c0.4,0.2,0.7,0.4,1.1,0.5c1.8-2.1,3.5-4.3,5.1-6.6
			c0-0.5,0.1-1.1,0.1-1.6C440,336,437.9,335.6,436.6,335.5"/>
		<path fill="#FFFFFF" d="M458,288.7c0-0.8-0.1-1.6-0.3-2.3l-3.1,2.5C455.9,288.8,457,288.7,458,288.7"/>
		<path fill="#FFFFFF" d="M461.2,292.7c0.4-3.2,0.7-6.5,0.8-9.8l-2.7,2.2C460,287.5,460.6,290,461.2,292.7"/>
		<path fill="#FFFFFF" d="M454.3,318.3c0.6-1.3,1.1-2.7,1.6-4c-0.7-0.1-1.3-0.2-1.8-0.3C454.1,315.5,454.2,317,454.3,318.3"/>
		<path fill="#FFFFFF" d="M451.3,291.6l-10.6,8.6c6.7-0.7,13.7-0.5,19.1,0.3c0.1-0.3,0.1-0.6,0.2-1c-0.3-2.8-0.7-5.5-1.2-7.9
			C456.6,291.3,454,291.3,451.3,291.6"/>
		<path fill="#FFFFFF" d="M452.6,302c0.4,2.2,0.9,5.7,1.2,9.3c1,0.1,2,0.2,3,0.3c1.1-3.1,2-6.3,2.7-9.6
			C457.5,301.8,455,301.6,452.6,302"/>
		<polygon fill="#FFFFFF" points="48.3,200.6 44.4,207 45.8,208 		"/>
		<polygon fill="#FFFFFF" points="44.6,210.2 43.2,209.1 41.7,211.5 43.8,212.5 		"/>
		<polygon fill="#FFFFFF" points="42.8,214.1 41.1,212.9 41.2,212.4 39.2,215.7 41.3,217.4 		"/>
		<polygon fill="#FFFFFF" points="58.7,183.8 58.4,183.7 54.8,189.8 57.4,190.9 		"/>
		<polygon fill="#FFFFFF" points="54.3,201.1 57,193.3 53.6,191.8 51.2,195.8 50.6,198.5 		"/>
		<polygon fill="#FFFFFF" points="47,208.2 49.8,210.5 51.3,207.2 49.6,206 50.1,204.5 52.3,205.6 53.1,203.3 49.9,200.8 		"/>
		<polygon fill="#FFFFFF" points="67.7,168.2 64.5,173.7 67.5,174.5 		"/>
		<polygon fill="#FFFFFF" points="65.9,184 67.2,176.9 63.3,175.6 61.2,179.1 60.9,181.9 		"/>
		<polygon fill="#FFFFFF" points="60.7,184.2 59.1,191.6 62.8,194.2 65.5,186.4 		"/>
		<polygon fill="#FFFFFF" points="55.5,201.3 58.3,203.6 59.9,200.3 58.1,199.1 58.6,197.6 60.8,198.7 61.7,196.4 58.4,193.9 		"/>
		<polygon fill="#FFFFFF" points="76,167.6 76.3,160.4 72.7,159.9 69.7,164.9 69.7,165.9 		"/>
		<polygon fill="#FFFFFF" points="75.7,170 70.1,168.1 69.4,175 74.4,177.1 		"/>
		<polygon fill="#FFFFFF" points="74,179.5 69.3,177.3 67.6,184.7 71.4,187.3 		"/>
		<polygon fill="#FFFFFF" points="68.4,193.4 66.6,192.2 67.1,190.7 69.4,191.8 70.2,189.5 66.9,187 64,194.4 66.9,196.7 		"/>
		<polygon fill="#FFFFFF" points="84.5,160.7 84.8,153.5 78,152.5 78.3,159 		"/>
		<polygon fill="#FFFFFF" points="75.8,154.8 73.9,157.9 76.1,158.1 		"/>
		<polygon fill="#FFFFFF" points="84.3,163.1 78.7,161.2 78,168.1 83,170.2 		"/>
		<polygon fill="#FFFFFF" points="82.5,172.6 77.8,170.4 76.1,177.8 79.9,180.4 		"/>
		<polygon fill="#FFFFFF" points="72.5,187.5 75.4,189.8 76.9,186.5 75.1,185.3 75.6,183.8 77.9,184.9 78.7,182.6 75.4,180.1 		"/>
		<polygon fill="#FFFFFF" points="93.1,153.8 93.3,146.6 86.5,145.6 86.8,152.1 		"/>
		<polygon fill="#FFFFFF" points="84,145.4 81.5,145.3 78.3,150.6 84.6,151.2 		"/>
		<polygon fill="#FFFFFF" points="92.8,156.2 87.2,154.4 86.5,161.2 91.5,163.3 		"/>
		<polygon fill="#FFFFFF" points="88.4,173.5 91.1,165.7 86.3,163.5 84.6,170.9 		"/>
		<polygon fill="#FFFFFF" points="85.4,179.6 83.7,178.4 84.1,176.9 86.4,178 87.2,175.7 84,173.2 81.1,180.6 83.1,182.3 
			85.1,180.4 		"/>
		<polygon fill="#FFFFFF" points="95.3,145.2 101.6,146.9 101.9,139.7 95,138.7 		"/>
		<polygon fill="#FFFFFF" points="93.2,144.3 92.5,138.5 85.7,138.3 85.4,138.8 86.4,143.6 		"/>
		<polygon fill="#FFFFFF" points="83.7,141.7 82.7,143.3 84,143.3 		"/>
		<polygon fill="#FFFFFF" points="100,156.4 101.3,149.3 95.7,147.4 95,154.3 		"/>
		<polygon fill="#FFFFFF" points="96.9,166.6 99.6,158.8 94.8,156.6 93.2,164 		"/>
		<polygon fill="#FFFFFF" points="92.2,171.5 92.7,170 94.5,170.9 95.3,170.2 95.7,168.8 92.5,166.3 89.6,173.7 90.8,174.7 
			93.2,172.2 		"/>
		<polygon fill="#FFFFFF" points="103.8,138.3 110.1,140 110.4,132.8 103.5,131.8 		"/>
		<polygon fill="#FFFFFF" points="101.7,137.4 101,131.6 93.8,131.3 94.9,136.7 		"/>
		<polygon fill="#FFFFFF" points="91.4,131.3 89.8,131.5 86.8,136.4 92.5,136.4 		"/>
		<polygon fill="#FFFFFF" points="104.2,140.6 103.5,147.4 108.5,149.5 109.8,142.4 		"/>
		<polygon fill="#FFFFFF" points="105.4,159.7 108.1,151.9 103.3,149.7 101.7,157.1 		"/>
		<polygon fill="#FFFFFF" points="100.7,164.6 101.2,163.1 101.9,163.5 103.9,161.6 101,159.4 98.1,166.8 98.4,167.1 100.8,164.7 		
			"/>
		<polygon fill="#FFFFFF" points="112.3,131.4 118.6,133.1 118.9,125.9 112,124.9 		"/>
		<polygon fill="#FFFFFF" points="102.3,124.4 103.4,129.8 110.2,130.5 109.6,124.7 		"/>
		<polygon fill="#FFFFFF" points="101,129.5 99.9,124.4 93.6,125.1 92.4,127 93.5,129.6 		"/>
		<polygon fill="#FFFFFF" points="91,129.5 90.8,129.8 91.1,129.7 		"/>
		<polygon fill="#FFFFFF" points="118.3,135.5 112.7,133.7 112,140.5 117,142.6 		"/>
		<polygon fill="#FFFFFF" points="110.2,150.2 113.2,152.3 114.6,150.8 116.6,145 111.9,142.8 		"/>
		<polygon fill="#FFFFFF" points="109.5,152.5 107.3,158.1 111.5,154 		"/>
		<polygon fill="#FFFFFF" points="120.9,124.5 127.1,126.2 127.4,119 120.6,118 		"/>
		<polygon fill="#FFFFFF" points="111.9,122.9 118.7,123.6 118.1,117.8 110.8,117.5 		"/>
		<polygon fill="#FFFFFF" points="109.6,122.6 108.5,117.5 100.3,118.5 102,122.7 		"/>
		<polygon fill="#FFFFFF" points="97.9,119.1 97.1,119.2 95.9,121.3 96,121.9 95.5,122 94.4,123.7 99.6,122.8 		"/>
		<polygon fill="#FFFFFF" points="121.3,126.8 120.6,133.6 125.6,135.7 126.9,128.6 		"/>
		<polygon fill="#FFFFFF" points="120.7,144.7 124,141.5 125.1,138.1 120.4,135.9 118.7,143.3 		"/>
		<polygon fill="#FFFFFF" points="116.9,148.5 119,146.4 118,145.6 		"/>
		<polygon fill="#FFFFFF" points="135.7,119.3 135.9,112.1 129.1,111.1 129.4,117.6 		"/>
		<polygon fill="#FFFFFF" points="127.3,116.7 126.6,110.9 119.4,110.6 120.4,116 		"/>
		<polygon fill="#FFFFFF" points="118.1,115.7 117,110.6 108.8,111.6 110.5,115.8 		"/>
		<polygon fill="#FFFFFF" points="108.1,115.9 106.4,112.2 104,112.6 104.5,115 103,115.2 102.2,113.2 100.5,113.6 99.4,115.5 
			100.3,117.3 		"/>
		<polygon fill="#FFFFFF" points="135.4,121.7 129.8,119.9 129.1,126.7 134.1,128.8 		"/>
		<polygon fill="#FFFFFF" points="128.3,137.1 133.3,132.1 133.7,131.2 128.9,129 127.2,136.4 		"/>
		<polygon fill="#FFFFFF" points="126.6,138.7 126.5,139 126.6,138.8 		"/>
		<polygon fill="#FFFFFF" points="144.2,112.4 144.4,106.3 137.7,106.3 137.9,110.7 		"/>
		<polygon fill="#FFFFFF" points="135.8,109.8 135.4,106.3 128.4,106.3 129,109.1 		"/>
		<polygon fill="#FFFFFF" points="126.6,108.8 126.1,106.3 118,106.3 119,108.9 		"/>
		<polygon fill="#FFFFFF" points="108.8,110.4 116.6,109 115.4,106.3 112.6,106.3 113,108.1 111.5,108.3 110.7,106.3 110.7,106.3 
			107.1,107.1 		"/>
		<polygon fill="#FFFFFF" points="143.9,114.8 138.3,113 137.6,119.8 142.6,121.9 		"/>
		<polygon fill="#FFFFFF" points="135.8,129.6 141.5,124 137.4,122.1 135.8,129.5 		"/>
		<polygon fill="#FFFFFF" points="150.6,114.8 151.3,114.2 152.4,107.9 147.6,106.3 146.8,106.3 146.1,112.9 		"/>
		<polygon fill="#FFFFFF" points="148.9,116.6 145.9,115.2 144.7,120.7 		"/>
		<polygon fill="#FFFFFF" points="159.1,106.3 155.4,106.3 158,107.4 		"/>
		<polygon fill="#FFFFFF" points="154.5,108.3 153.7,111.7 156.3,109.2 		"/>
		<path fill="#FFFFFF" d="M7.8,338.6c-1.3-1.3-1.3-3.5,0-4.8c1.3-1.3,3.5-1.4,4.8,0l4.9-4.9l-4.8-4.8l-3.7,3.7l-2.4-2.4l3.7-3.7
			l-2.4-2.4l-4,1.4l0.9-3.5l4.3-1.5l1.5-4.3l3.5-0.9l-1.4,4l2.4,2.4l3.7-3.7l2.4,2.4l-3.7,3.7l4.8,4.8l4.9-4.9
			c-1.3-1.3-1.3-3.5,0-4.8c1.3-1.3,3.5-1.4,4.8,0l4.9-4.9l-4.8-4.8l-3.7,3.7l-2.4-2.4l3.7-3.7l-2.4-2.4l-4,1.4l0.9-3.5l4.3-1.5
			l1.5-4.3l3.5-0.9l-1.3,4l2.4,2.4l3.7-3.7l2.4,2.4l-3.7,3.7l4.8,4.8l4.9-4.9c-1.3-1.3-1.3-3.5,0-4.8c1.3-1.3,3.5-1.4,4.8,0l4.9-4.9
			l-4.8-4.8l-3.7,3.7l-2.4-2.4l3.7-3.7l-2.4-2.4l-4,1.3l0.9-3.5l4.3-1.5l1.5-4.3l3.5-0.9l-1.3,4l2.4,2.4l3.7-3.7l2.4,2.4l-3.7,3.7
			l4.8,4.8l4.9-4.9c-1.3-1.3-1.3-3.5,0-4.8c1.3-1.3,3.5-1.4,4.8,0l4.9-4.9l-4.8-4.8l-3.7,3.7l-2.4-2.4l3.7-3.7l-2.4-2.4l-4,1.4
			l0.9-3.5l4.3-1.5l1.5-4.3l3.5-0.9l-1.4,4l2.4,2.4l3.7-3.7l2.4,2.4l-3.7,3.7l4.8,4.8l4.9-4.9c-1.3-1.3-1.3-3.5,0-4.8
			c1.3-1.3,3.5-1.4,4.8,0l1.8-1.8l2.3-3.9l-4-4l-3.7,3.7l-2.4-2.4l3.7-3.7l-2.4-2.4l-4,1.3l0.9-3.5l4.3-1.5l1.5-4.3l3.5-0.9l-1.4,4
			l2.4,2.4L97,235l2.4,2.4l-3.7,3.7l2.7,2.7l8.1-13.9l-2.2-2.2l3.7-3.7l-2.4-2.4l-4,1.4l0.9-3.5l4.3-1.5l1.5-4.3l3.5-0.9l-1.4,4
			l2.4,2.4l9.4-16l-1.1,0.4l0.9-3.5l2.5-0.9l4.5-7.6l-0.3,0.1l1.4-4l-10.9,3.7l-3.7,10.9l4-1.4l-0.9,3.5l-4.3,1.5l-1.5,4.3l-3.5,0.9
			l1.4-4l-10.9,3.7l-3.7,10.9l4-1.4l-0.9,3.5l-4.3,1.5l-1.5,4.3l-3.5,0.9l1.4-4L80,230.2l-3.7,10.9l4-1.4l-0.9,3.5l-4.3,1.5
			l-1.5,4.3l-3.5,0.9l1.4-4l-10.9,3.7l-3.7,10.9l4-1.3l-0.9,3.5l-4.3,1.5l-1.5,4.3l-3.5,0.9l1.3-4L41,269.3l-3.7,10.9l4-1.4
			l-0.9,3.5l-4.3,1.5l-1.5,4.3l-3.5,0.9l1.3-4l-10.9,3.7l-3.7,10.9l4-1.3l-0.9,3.5l-4.3,1.5l-1.5,4.3l-3.5,0.9l1.3-4l-10,3.4v21.1
			l2.6-2.6l2.4,2.4L3,333.8l-0.1-0.1v9.8l0.1,0.1L7.8,338.6z M103.1,228.9l2.4,2.4l-4.9,4.9l-2.4-2.4L103.1,228.9z M83.5,248.4
			l2.4,2.4l-4.9,4.9l-2.4-2.4L83.5,248.4z M64,267.9l2.4,2.4l-4.9,4.9l-2.4-2.4L64,267.9z M44.5,287.4l2.4,2.4l-4.9,4.9l-2.4-2.4
			L44.5,287.4z M25,307l2.4,2.4l-4.9,4.9l-2.4-2.4L25,307z"/>
		<path fill="#FFFFFF" d="M159.7,109.7c1.3,1.3,1.3,3.5,0,4.8c-1.3,1.3-3.5,1.4-4.8,0l-4.9,4.9l4.8,4.8l3.7-3.7l2.4,2.4l-3.7,3.7
			l2.4,2.4l4-1.4l-0.9,3.5l-4.3,1.5l-1.5,4.3l-3.5,0.9l1.4-4l-2.4-2.4l-3.7,3.7l-2.4-2.4l3.7-3.7l-4.8-4.8l-4.9,4.9
			c1.3,1.3,1.3,3.5,0,4.8c-1.3,1.3-3.5,1.4-4.8,0l-4.9,4.9l4.8,4.8l3.7-3.7l2.4,2.4l-3.7,3.7l2.4,2.4l4-1.3l-0.9,3.5l-4.3,1.5
			l-1.5,4.3l-3.5,0.9l1.3-4l-2.4-2.4l-3.7,3.7l-2.4-2.4l3.7-3.7l-4.8-4.8l-4.9,4.9c1.3,1.3,1.3,3.5,0,4.8c-1.3,1.3-3.5,1.4-4.8,0
			l-4.9,4.9l4.8,4.8l3.7-3.7l2.4,2.4l-3.7,3.7l2.4,2.4l4-1.3l-0.9,3.5l-4.3,1.5l-1.5,4.3l-3.5,0.9l1.4-4l-2.4-2.4l-3.7,3.7l-2.4-2.4
			l3.7-3.7l-4.8-4.8l-4.9,4.9c1.3,1.3,1.3,3.5,0,4.8c-1.3,1.3-3.5,1.4-4.8,0l-4.9,4.9l4.8,4.8l3.7-3.7l2.4,2.4l-3.7,3.7l2.4,2.4
			l4-1.3l-0.9,3.5l-4.3,1.5l-1.5,4.3l-3.5,0.9l1.4-4l-2.4-2.4l-3.7,3.7l-2.4-2.4l3.7-3.7l-4.8-4.8l-4.9,4.9c1.3,1.3,1.3,3.5,0,4.8
			c-1.3,1.3-3.5,1.4-4.8,0l-4.9,4.9l4.8,4.8l3.7-3.7l2.4,2.4l-3.7,3.7l2.4,2.4l4-1.4l-0.9,3.5l-4.3,1.5l-1.5,4.3l-3.5,0.9l1.3-4
			l-2.4-2.4l-3.7,3.7l-2.4-2.4l3.7-3.7l-4.8-4.8l-4.9,4.9c1.3,1.3,1.3,3.5,0,4.8c-1.3,1.3-3.5,1.4-4.8,0l-4.9,4.9l4.8,4.8l3.7-3.7
			l2.4,2.4l-3.7,3.7l2.4,2.4l4-1.3l-0.9,3.5l-4.3,1.5l-1.5,4.3l-3.5,0.9l1.3-4l-2.4-2.4l-3.7,3.7l-2.4-2.4l3.7-3.7l-4.8-4.8
			l-4.9,4.9c1.3,1.3,1.3,3.5,0,4.8c-1.3,1.3-3.5,1.4-4.8,0l-4.9,4.9l4.8,4.8l3.7-3.7l2.4,2.4l-3.7,3.7l2.4,2.4l4-1.3l-0.9,3.5
			l-4.3,1.5l-1.5,4.3l-3.5,0.9l1.3-4l-2.4-2.4l-3.7,3.7L29,250l3.7-3.7l-4.8-4.8l-4.9,4.9c1.3,1.3,1.3,3.5,0,4.8
			c-1.3,1.3-3.5,1.4-4.8,0l-0.5,0.5l-3.3,5.5L18,261l3.7-3.7l2.4,2.4l-3.7,3.7l2.4,2.4l4-1.4l-0.9,3.5l-4.3,1.5l-1.5,4.3l-3.5,0.9
			l1.3-4l-2.4-2.4l-3.7,3.7l-2.4-2.4l3.7-3.7l-2.5-2.5l-7.8,13v1.1l1.7,1.7L2.8,281v3.8l0.5,0.5l4-1.3l-0.9,3.5l-3.6,1.2v9.7
			l6.5-2.2l3.7-10.9l-4,1.4l0.9-3.5l4.3-1.5l1.5-4.3l3.5-0.9l-1.4,4l10.9-3.7l3.7-10.9l-4,1.4l0.9-3.5l4.3-1.5l1.5-4.3l3.5-0.9
			l-1.3,4l10.9-3.7l3.7-10.9l-4,1.4L49,244l4.3-1.5l1.5-4.3l3.5-0.9l-1.4,4l10.9-3.7l3.7-10.9l-4,1.4l0.9-3.5l4.3-1.5l1.5-4.3
			l3.5-0.9l-1.4,4l10.9-3.7l3.7-10.9l-4,1.4L88,205l4.3-1.5l1.5-4.3l3.5-0.9l-1.4,4l10.9-3.7l3.7-10.9l-4,1.4l0.9-3.5l4.3-1.5
			l1.5-4.3l3.5-0.9l-1.4,4l10.9-3.7l3.7-10.9l-4,1.4l0.9-3.5l4.3-1.5l1.5-4.3l3.5-0.9l-1.4,4l10.9-3.7l3.7-10.9l-4,1.4l0.9-3.5
			l4.3-1.5l1.5-4.3l3.5-0.9l-1.4,4l10.9-3.7l3.7-10.9l-4,1.4l0.9-3.5l4.3-1.5l1.5-4.3l3.5-0.9l-1.3,4l10.9-3.7l3.7-10.9l-4,1.4
			l0.9-3.5l3-1h-11.2l-0.9,0.9l2.4,2.4l4-1.3l-0.9,3.5l-4.3,1.5l-1.5,4.3l-3.5,0.9l1.3-4l-2.4-2.4l-3.7,3.7l-2.4-2.4l3.7-3.7
			l-3.3-3.3h-2.9L159.7,109.7z M5.8,278l-2.4-2.4l4.9-4.9l2.4,2.4L5.8,278z M25.3,258.5l-2.4-2.4l4.9-4.9l2.4,2.4L25.3,258.5z
			 M44.8,239l-2.4-2.4l4.9-4.9l2.4,2.4L44.8,239z M64.4,219.4L62,217l4.9-4.9l2.4,2.4L64.4,219.4z M83.9,199.9l-2.4-2.4l4.9-4.9
			l2.4,2.4L83.9,199.9z M103.4,180.4L101,178l4.9-4.9l2.4,2.4L103.4,180.4z M122.9,160.9l-2.4-2.4l4.9-4.9l2.4,2.4L122.9,160.9z
			 M142.5,141.3l-2.4-2.4l4.9-4.9l2.4,2.4L142.5,141.3z M166.9,116.9l-4.9,4.9l-2.4-2.4l4.9-4.9L166.9,116.9z"/>
		<polygon fill="#FFFFFF" points="187.4,122.8 187.4,122.9 172.8,127.8 167.9,142.4 167.9,142.4 153.3,147.3 148.4,161.9 
			148.4,161.9 133.8,166.8 128.8,181.4 114.3,186.4 109.3,200.9 94.7,205.9 89.8,220.5 75.2,225.4 70.3,240 70.3,240 55.7,244.9 
			50.7,259.5 36.2,264.5 31.2,279 31.2,279 16.7,284 11.7,298.6 11.7,298.6 2.8,301.6 2.8,304.8 14.1,301 19.1,286.4 19.1,286.4 
			33.6,281.4 33.6,281.5 38.6,266.9 38.6,266.9 53.2,261.9 53.2,261.9 58.1,247.4 58.1,247.4 72.7,242.4 72.7,242.4 77.6,227.8 
			77.6,227.8 92.2,222.9 92.2,222.9 92.2,222.9 92.2,222.9 97.2,208.3 111.7,203.4 116.7,188.8 116.7,188.8 131.3,183.8 
			136.2,169.3 136.2,169.3 150.8,164.3 155.7,149.7 155.7,149.7 170.3,144.8 170.3,144.8 175.3,130.2 175.3,130.2 189.8,125.3 
			194.8,110.7 194.8,110.7 206.9,106.6 206.9,106.3 198.2,106.3 192.4,108.3 		"/>
		<path fill="#FFFFFF" d="M193.5,124l4-1.4l-0.9,3.5l-4.3,1.5l-1.5,4.3l-3.5,0.9l1.4-4l-10.9,3.7l-3.7,10.9l4-1.3l-0.9,3.5l-4.3,1.5
			l-1.5,4.3l-3.5,0.9l1.3-4l-10.9,3.7l-3.7,10.9l4-1.4l-0.9,3.5l-4.3,1.5l-1.5,4.3l-3.5,0.9l1.4-4l-10.9,3.7l-2.6,7.6l2.9-4.9V193
			l3.2-3.2l2.4,2.4l-4.9,4.9l-0.7-0.7v9.8l0.7,0.7l4.9-4.9c-1.3-1.3-1.3-3.5,0-4.8c1.3-1.3,3.5-1.4,4.8,0l4.9-4.9l-4.8-4.8l-3.7,3.7
			l-2.4-2.4l3.7-3.7l-2.4-2.4l-4,1.4l0.9-3.5l4.3-1.5l1.5-4.3l3.5-0.9l-1.4,4l2.4,2.4l3.7-3.7l2.4,2.4l-3.7,3.7l4.8,4.8l4.9-4.9
			c-1.3-1.3-1.3-3.5,0-4.8c1.3-1.3,3.5-1.4,4.8,0l4.9-4.9l-4.8-4.8l-3.7,3.7l-2.4-2.4l3.7-3.7l-2.4-2.4l-4,1.4l0.9-3.5l4.3-1.5
			l1.5-4.3l3.5-0.9l-1.4,4l2.4,2.4l3.7-3.7l2.4,2.4l-3.7,3.7l4.8,4.8l4.9-4.9c-1.3-1.3-1.3-3.5,0-4.8c1.3-1.3,3.5-1.4,4.8,0l4.9-4.9
			l-4.8-4.8l-3.7,3.7l-2.4-2.4l3.7-3.7l-2.4-2.4l-4,1.4l0.9-3.5l4.3-1.5l1.5-4.3l3.5-0.9l-1.4,4l2.4,2.4l3.7-3.7l2.4,2.4l-3.7,3.7
			l4.8,4.8l4.9-4.9c-1.3-1.3-1.3-3.5,0-4.8c1.1-1.1,2.6-1.3,3.9-0.7v-8l-2.6,2.6l-2.4-2.4l3.7-3.7l-2.4-2.4l-4,1.3l0.9-3.5l4.3-1.5
			l1.5-4.3l1.1-0.3v-2.4l-0.2,0l0.2-0.5v-3.1l-9.7,3.3L193.5,124z M164,172.7l-4.9,4.9l-2.4-2.4l4.9-4.9L164,172.7z M183.6,153.2
			l-4.9,4.9l-2.4-2.4l4.9-4.9L183.6,153.2z M198.2,138.5l-2.4-2.4l4.9-4.9l2.4,2.4L198.2,138.5z"/>
		<path fill="#FFFFFF" d="M227.4,118.9l4.9-4.9l-4.8-4.8l-3.6,3.6v5.3C225.1,117.7,226.5,118,227.4,118.9"/>
		<polygon fill="#FFFFFF" points="224.6,106.3 223.9,106.3 223.9,108 225.1,106.8 		"/>
		<polygon fill="#FFFFFF" points="237.2,109.2 240,106.3 234.3,106.3 		"/>
		<polygon fill="#FFFFFF" points="314.2,333.9 312.2,342.4 323.7,333.1 324.7,329 		"/>
		<path fill="#FFFFFF" d="M322.9,323.1L322.9,323.1l-14,6.4l-3.4,15l0.3,0.2l-0.3-0.2l-14,6.4l-0.7,3.1c0.9,0.8,1.7,1.6,2.6,2.3
			l0.7-3.3v0l11.1-5.1l3.1-2.5l3.1-13.8l0,0l14-6.4l3.4-15l0,0l9.8-4.5c-0.9-0.7-1.7-1.4-2.5-2.2l-10,4.6L322.9,323.1z"/>
		<path fill="#FFFFFF" d="M325.2,298.8l0.9-4.1l-2.6-2.1l-3.3,4l-2.6-2.1l3.3-4l-5.3-4.3l-4.3,5.4c1.5,1.2,1.7,3.3,0.5,4.8
			c-1.2,1.5-3.4,1.7-4.8,0.5l-4.3,5.4l5.3,4.3l3.3-4l2.6,2.1l-3.3,4l2.6,2.1l3.8-1.8l-0.5,3.6l-4.1,1.9l-1,4.4l-3.4,1.3l0.9-4.1
			l-2.6-2.1l-3.3,4l-2.6-2.1l3.3-4l-5.3-4.3l-4.3,5.4c1.5,1.2,1.7,3.3,0.5,4.8c-1.2,1.5-3.4,1.7-4.8,0.5l-4.3,5.4l5.3,4.3l3.3-4
			l2.6,2.1l-3.3,4l2.6,2.1l3.8-1.8l-0.5,3.6l-4.1,1.9l-1,4.4l-3.4,1.3l0.9-4.1l-2.6-2.1l-3.3,4l-2.6-2.1l3.3-4l-5.3-4.3l-4.3,5.4
			c1.3,1.1,1.6,3,0.7,4.4c0.7,1,1.4,1.9,2.1,2.8l2.4-3l2.6,2.1l-2.9,3.6c1.6,1.9,3.3,3.8,5,5.6l2.3-1.1l1-4.4l3.4-1.3l-0.9,4.1
			l10.5-4.8l2.5-11.3l-3.8,1.8l0.5-3.6l4.1-1.9l1-4.4l3.4-1.3l-0.9,4.1l10.5-4.8l2.6-11.3l-3.8,1.8l0.5-3.6l4.1-1.9l1-4.4l3.4-1.3
			l-0.9,4.1l6.9-3.2c-1.8-2.1-3.4-4.5-4.6-7l-0.8,3.4L325.2,298.8z M297.5,324.8l-2.6-2.1l4.3-5.4l2.6,2.1L297.5,324.8z
			 M314.8,303.3l-2.6-2.1l4.3-5.4l2.6,2.1L314.8,303.3z"/>
		<path fill="#FFFFFF" d="M329,323.7l3.8-1.8l-0.5,3.6l-4.1,1.9l-0.6,2.6l7.3-5.9l0.5-3.4l4.1-1.9l1-4.4l3.4-1.3l-0.9,4.1l0.2,0.2
			l6.9-5.6c-1.9-0.6-3.7-1.3-5.4-2.2l-0.2,0.8l-3.4,1.3l0.8-3.6c-0.1-0.1-0.2-0.2-0.4-0.2l-10,4.6L329,323.7z"/>
		<path fill="#FFFFFF" d="M319.9,280.8l5.3,4.3l1.1-1.3c-0.2-1.5-0.3-3-0.3-4.5v-3.1c-0.4,0-0.7-0.1-1.1-0.3L319.9,280.8z"/>
		<path fill="#FFFFFF" d="M397,272.1l4.3-5.4l-5.3-4.3l-2,2.5v6.5C395,271.2,396.1,271.4,397,272.1"/>
		<path fill="#FFFFFF" d="M395.1,252.8l2.6,2.1l3.3-4l2.6,2.1l-3.3,4l5.3,4.3l4.3-5.4c-1.5-1.2-1.7-3.3-0.5-4.8
			c1.2-1.5,3.4-1.7,4.8-0.5l4.3-5.4l-5.3-4.3l-3.3,4l-2.6-2.1l3.3-4l-2.6-2.1l-3.8,1.8l0.5-3.6l4.1-1.9l1-4.4l3.4-1.3l-0.9,4.1
			l2.6,2.1l3.3-4l2.6,2.1l-3.3,4l5.3,4.3l4.3-5.4c-1.5-1.2-1.7-3.3-0.5-4.8c1.2-1.5,3.4-1.7,4.8-0.5l4.3-5.4l-5.3-4.3l-3.3,4
			l-2.6-2.1l3.3-4l-2.6-2.1l-3.8,1.8l0.5-3.6l4.1-1.9l1-4.4l3.4-1.3l-0.9,4.1l2.6,2.1l3.3-4l2.6,2.1l-3.3,4l5.3,4.3l4.3-5.4
			c-1.5-1.2-1.7-3.3-0.5-4.8c1.2-1.5,3.4-1.7,4.8-0.5l4.3-5.4l-5.3-4.3l-3.3,4l-2.6-2.1l3.3-4l-2.6-2.1l-3.8,1.8l0.5-3.6l4.1-1.9
			l1-4.4l3.4-1.3l-0.9,4.1l2.6,2.1l3.3-4l2.6,2.1l-3.3,4l5.3,4.3l4.2-5.2v-0.2c-1.4-1.2-1.5-3.3-0.4-4.7c0.1-0.1,0.2-0.3,0.4-0.4v-6
			l-2.4-1.9l2.4-3v-1.8l-1.8-1.4l-3.8,1.8l0.5-3.6l4.1-1.9l0.9-4.1v-6.4l-8.9,4.1l-2.6,11.3l3.8-1.8l-0.5,3.6l-4.1,1.9l-1,4.4
			l-3.4,1.3l0.9-4.1l-10.5,4.8l-2.6,11.3l3.8-1.8l-0.5,3.6l-4.1,1.9l-1,4.4l-3.4,1.3l0.9-4.1l-10.5,4.8l-2.6,11.3l3.8-1.8l-0.5,3.6
			l-4.1,1.9l-1,4.4l-3.4,1.3l0.9-4.1l-10.5,4.8l-2.6,11.3l3.8-1.8l-0.5,3.6l-4.1,1.9l-1,4.4l-2.6,1v2.5l2-0.8L395.1,252.8z
			 M461.2,182l-4.3,5.4l-2.6-2.1l4.3-5.4L461.2,182z M443.8,203.5l-4.3,5.4l-2.6-2.1l4.3-5.4L443.8,203.5z M426.5,224.9l-4.3,5.4
			l-2.6-2.1l4.3-5.4L426.5,224.9z M409.1,246.4l-4.3,5.4l-2.6-2.1l4.3-5.4L409.1,246.4z"/>
		<polygon fill="#FFFFFF" points="394,243.3 394,243.8 394.2,243.2 		"/>
		<polygon fill="#FFFFFF" points="395,239.4 398.4,224.4 398.4,224.4 412.4,218 415.8,203 415.8,203 429.8,196.5 433.2,181.5 
			447.1,175.1 447.1,175.1 450.5,160 450.5,160 462,154.7 462,150.7 461.9,151.5 461.9,151.5 447.9,157.9 444.5,172.9 444.5,172.9 
			430.5,179.4 427.1,194.4 413.1,200.8 409.7,215.8 409.7,215.8 395.8,222.3 394,230 394,239.9 395,239.4 		"/>
		<polygon fill="#FFFFFF" points="397.5,214.4 396.6,218.5 407.1,213.7 409.6,202.4 405.8,204.2 406.4,200.6 410.5,198.7 
			411.5,194.2 414.9,193 414,197.1 424.5,192.2 427,181 423.2,182.7 423.7,179.1 427.9,177.2 428.9,172.8 432.3,171.5 431.4,175.6 
			441.9,170.8 444.4,159.5 440.6,161.3 440.8,159.9 433.2,167.5 432.9,168.8 431.4,169.4 419.8,181 421.2,180.3 420.7,183.9 
			416.5,185.8 415.5,190.2 412.1,191.5 413,187.8 398.5,202.3 400,203.5 403.8,201.8 403.3,205.4 399.2,207.3 398.2,211.7 
			394.7,213 395.7,208.9 394,207.5 394,216.2 394.1,215.7 		"/>
		<polygon fill="#FFFFFF" points="445.3,155.4 444.7,156 445.3,155.8 		"/>
		<polygon fill="#FFFFFF" points="449.4,151.4 448.7,154.2 459.2,149.3 461.5,139.2 		"/>
		<polygon fill="#FFFFFF" points="70.4,343.9 70.5,344.4 77.4,344.4 77.4,344.1 		"/>
		<polygon fill="#FFFFFF" points="60.7,344.4 60.7,344.4 68.1,344.4 68,343.9 		"/>
		<polygon fill="#FFFFFF" points="85.1,336.4 78.2,336.1 79.2,342.5 85.6,343.5 		"/>
		<polygon fill="#FFFFFF" points="75.7,336.1 68.5,336.7 70.1,341.9 77,341.9 		"/>
		<polygon fill="#FFFFFF" points="58.1,338.7 60.2,342.7 67.7,341.8 66.1,336.8 		"/>
		<polygon fill="#FFFFFF" points="57.8,343.1 55.7,339.6 53.4,340.2 54.2,342.5 52.6,342.9 51.7,341 48.2,342.1 49.7,344.4 
			53.1,344.4 		"/>
		<polygon fill="#FFFFFF" points="92.9,328.6 85.9,328.4 86.9,334.8 93.3,335.8 		"/>
		<polygon fill="#FFFFFF" points="84.7,334.1 83.5,328.4 76.2,328.9 77.9,334.1 		"/>
		<polygon fill="#FFFFFF" points="75.5,334 73.9,329.1 65.8,330.9 68,334.9 		"/>
		<polygon fill="#FFFFFF" points="65.6,335.3 63.5,331.8 61.1,332.4 61.9,334.8 60.4,335.1 59.4,333.2 55.9,334.4 57.9,337.5 		"/>
		<polygon fill="#FFFFFF" points="93.3,338.2 87.6,337 87.6,343.8 89.5,344.4 92.8,344.4 		"/>
		<polygon fill="#FFFFFF" points="101.1,328 100.6,320.9 93.7,320.6 94.7,327 		"/>
		<polygon fill="#FFFFFF" points="92.5,326.4 91.2,320.6 84,321.2 85.6,326.4 		"/>
		<polygon fill="#FFFFFF" points="81.6,321.3 73.6,323.2 75.7,327.2 83.2,326.3 		"/>
		<polygon fill="#FFFFFF" points="73.3,327.6 71.2,324.1 68.9,324.7 69.7,327 68.1,327.3 67.2,325.5 63.7,326.6 65.7,329.7 		"/>
		<polygon fill="#FFFFFF" points="101.1,330.5 95.3,329.2 95.3,336.1 100.5,337.7 		"/>
		<polygon fill="#FFFFFF" points="95.4,338.5 94.7,344.4 99.4,344.4 100.3,340.1 		"/>
		<polygon fill="#FFFFFF" points="108.8,320.3 108.4,313.1 101.4,312.9 102.4,319.3 		"/>
		<polygon fill="#FFFFFF" points="100.2,318.6 99,312.9 91.7,313.4 93.4,318.6 		"/>
		<polygon fill="#FFFFFF" points="91,318.5 89.4,313.6 81.3,315.4 83.5,319.4 		"/>
		<polygon fill="#FFFFFF" points="81.1,319.8 79,316.3 76.6,316.9 77.4,319.3 75.9,319.6 74.9,317.7 71.4,318.9 73.4,322 		"/>
		<polygon fill="#FFFFFF" points="108.3,329.9 108.8,322.7 103.1,321.5 103.1,328.3 		"/>
		<polygon fill="#FFFFFF" points="103.1,330.7 102.3,338.2 106.3,340.4 108.1,332.3 		"/>
		<polygon fill="#FFFFFF" points="101.8,340.6 100.8,344.4 102.3,344.4 102.4,344.2 102.9,344.4 104.9,344.4 105.3,342.7 		"/>
		<polygon fill="#FFFFFF" points="116.1,305.4 109.2,305.1 110.2,311.5 116.6,312.5 		"/>
		<polygon fill="#FFFFFF" points="99.5,305.6 101.1,310.9 108,310.9 106.7,305.1 		"/>
		<polygon fill="#FFFFFF" points="89.1,307.7 91.2,311.7 98.7,310.8 97.1,305.8 		"/>
		<polygon fill="#FFFFFF" points="82.7,310 79.2,311.1 81.2,314.2 88.8,312.1 86.7,308.6 84.4,309.2 85.2,311.5 83.6,311.8 		"/>
		<polygon fill="#FFFFFF" points="116,322.2 116.6,315 110.8,313.7 110.8,320.6 		"/>
		<polygon fill="#FFFFFF" points="114,332.6 115.8,324.6 110.9,322.9 110,330.5 		"/>
		<polygon fill="#FFFFFF" points="111.7,339 109.8,338 110.1,336.5 112.5,337.3 113.1,334.9 109.6,332.8 107.5,340.5 110.5,342.5 		
			"/>
		<polygon fill="#FFFFFF" points="124.3,304.8 123.9,297.6 117,297.4 117.9,303.8 		"/>
		<polygon fill="#FFFFFF" points="107.2,297.9 108.9,303.1 115.7,303.1 114.5,297.4 		"/>
		<polygon fill="#FFFFFF" points="96.8,299.9 99,303.9 106.5,303 104.9,298.1 		"/>
		<polygon fill="#FFFFFF" points="88.9,306.5 96.6,304.3 94.5,300.8 92.1,301.4 92.9,303.8 91.4,304.1 90.4,302.2 87,303.4 		"/>
		<polygon fill="#FFFFFF" points="124.3,307.2 118.6,306 118.6,312.8 123.8,314.4 		"/>
		<polygon fill="#FFFFFF" points="123.6,316.8 118.6,315.2 117.8,322.7 121.8,324.9 		"/>
		<polygon fill="#FFFFFF" points="120.3,329.6 120.8,327.2 117.3,325.1 115.2,332.7 118.3,334.7 119.4,331.2 117.6,330.3 
			117.9,328.7 		"/>
		<polygon fill="#FFFFFF" points="124.7,289.6 125.7,296 132.1,297 131.6,289.9 		"/>
		<polygon fill="#FFFFFF" points="115,290.1 116.6,295.4 123.5,295.4 122.2,289.6 		"/>
		<polygon fill="#FFFFFF" points="104.6,292.1 106.7,296.2 114.2,295.3 112.6,290.3 		"/>
		<polygon fill="#FFFFFF" points="98.2,294.5 94.7,295.6 96.7,298.7 104.4,296.6 102.2,293.1 99.9,293.7 100.7,296 99.1,296.3 		"/>
		<polygon fill="#FFFFFF" points="126.3,305 131.5,306.7 132.1,299.5 126.3,298.2 		"/>
		<polygon fill="#FFFFFF" points="131.3,309.1 126.4,307.4 125.5,315 129.5,317.1 		"/>
		<polygon fill="#FFFFFF" points="127.2,323.5 125.3,322.5 125.6,321 128,321.8 128.6,319.4 125.1,317.3 123,325 126,327 		"/>
		<polygon fill="#FFFFFF" points="139.8,289.3 139.4,282.1 132.5,281.9 133.4,288.3 		"/>
		<polygon fill="#FFFFFF" points="131.2,287.6 130,281.9 122.7,282.4 124.4,287.6 		"/>
		<polygon fill="#FFFFFF" points="112.3,284.4 114.5,288.4 122,287.5 120.4,282.6 		"/>
		<polygon fill="#FFFFFF" points="106,286.7 102.5,287.9 104.4,291 112.1,288.8 110,285.3 107.6,285.9 108.4,288.3 106.9,288.6 		
			"/>
		<polygon fill="#FFFFFF" points="134.1,297.3 139.3,298.9 139.8,291.7 134.1,290.5 		"/>
		<polygon fill="#FFFFFF" points="139.1,301.3 134.2,299.7 133.3,307.2 137.3,309.3 		"/>
		<polygon fill="#FFFFFF" points="132.8,309.6 130.7,317.2 133.8,319.2 134.9,315.7 133.1,314.8 133.4,313.2 135.8,314 136.3,311.7 
					"/>
		<polygon fill="#FFFFFF" points="147.6,281.5 147.1,274.3 140.2,274.1 141.2,280.5 		"/>
		<polygon fill="#FFFFFF" points="131,276.4 132.1,279.8 139,279.9 138.2,276.4 		"/>
		<polygon fill="#FFFFFF" points="121.2,276.4 120.1,276.6 122.2,280.7 129.7,279.8 128.6,276.4 		"/>
		<polygon fill="#FFFFFF" points="110.2,280.1 112.2,283.2 119.9,281.1 117.7,277.6 115.4,278.2 116.2,280.5 114.6,280.8 113.7,279 
					"/>
		<polygon fill="#FFFFFF" points="147.6,284 141.8,282.7 141.8,289.5 147,291.2 		"/>
		<polygon fill="#FFFFFF" points="146.9,293.6 141.9,291.9 141,299.5 145,301.6 		"/>
		<polygon fill="#FFFFFF" points="143.5,306.3 144.1,303.9 140.6,301.8 138.5,309.5 141.5,311.5 142.7,308 140.8,307 141.1,305.5 		
			"/>
		<polygon fill="#FFFFFF" points="154.9,266.6 148,266.4 148.9,272.8 155.4,273.7 		"/>
		<polygon fill="#FFFFFF" points="139.9,272.1 146.7,272.1 145.5,266.3 138.9,266.8 138.9,269 		"/>
		<polygon fill="#FFFFFF" points="154.8,283.4 155.3,276.2 149.6,274.9 149.6,281.8 		"/>
		<polygon fill="#FFFFFF" points="154.6,285.8 149.7,284.2 148.8,291.7 152.8,293.8 		"/>
		<polygon fill="#FFFFFF" points="148.3,294.1 146.2,301.7 149.3,303.7 150.5,300.2 148.6,299.3 148.9,297.7 151.3,298.5 
			151.8,296.2 		"/>
		<polygon fill="#FFFFFF" points="162.6,258.8 155.7,258.6 156.7,265 163.1,266 		"/>
		<polygon fill="#FFFFFF" points="154.5,264.4 153.2,258.6 146,259.1 147.6,264.3 		"/>
		<polygon fill="#FFFFFF" points="145.2,264.3 143.6,259.3 138.9,260.4 138.9,265 		"/>
		<polygon fill="#FFFFFF" points="157.3,267.2 157.3,274 162.5,275.7 163.1,268.4 		"/>
		<polygon fill="#FFFFFF" points="156.5,283.9 160.5,286.1 162.4,278.1 157.4,276.4 		"/>
		<polygon fill="#FFFFFF" points="159,290.8 159.6,288.4 156.1,286.3 154,294 157,296 158.2,292.5 156.3,291.5 156.6,290 		"/>
		<polygon fill="#FFFFFF" points="170.4,251.1 163.5,250.8 164.4,257.3 170.9,258.2 		"/>
		<polygon fill="#FFFFFF" points="161,250.8 153.7,251.4 155.4,256.6 162.2,256.6 		"/>
		<polygon fill="#FFFFFF" points="143.3,253.4 145.5,257.4 153,256.5 151.4,251.6 		"/>
		<polygon fill="#FFFFFF" points="139.5,257.3 138.9,257.4 138.9,259 143.1,257.8 141,254.3 138.9,254.8 138.9,255.7 		"/>
		<polygon fill="#FFFFFF" points="170.8,260.7 165.1,259.4 165.1,266.3 170.3,267.9 		"/>
		<polygon fill="#FFFFFF" points="168.3,278.3 170.1,270.3 165.2,268.7 164.3,276.2 		"/>
		<polygon fill="#FFFFFF" points="166,284.7 164.1,283.8 164.4,282.2 166.8,283 167.4,280.7 163.8,278.6 161.7,286.2 164.8,288.2 		
			"/>
		<polygon fill="#FFFFFF" points="178.6,250.5 178.1,243.3 171.2,243.1 172.2,249.5 		"/>
		<polygon fill="#FFFFFF" points="170,248.8 168.7,243.1 161.5,243.6 163.1,248.8 		"/>
		<polygon fill="#FFFFFF" points="160.7,248.8 159.1,243.8 151.1,245.6 153.2,249.6 		"/>
		<polygon fill="#FFFFFF" points="150.9,250.1 148.8,246.6 146.4,247.1 147.2,249.5 145.7,249.8 144.7,248 141.2,249.1 143.2,252.2 
					"/>
		<polygon fill="#FFFFFF" points="178,260.2 178.6,252.9 172.8,251.7 172.8,258.5 		"/>
		<polygon fill="#FFFFFF" points="177.9,262.5 172.9,260.9 172,268.4 176,270.6 		"/>
		<polygon fill="#FFFFFF" points="173.7,277 171.8,276 172.2,274.5 174.5,275.3 175.1,272.9 171.6,270.8 169.5,278.5 172.5,280.5 		
			"/>
		<polygon fill="#FFFFFF" points="185.9,235.6 179,235.3 180,241.8 186.4,242.7 		"/>
		<polygon fill="#FFFFFF" points="177.7,241.1 176.5,235.3 169.3,235.9 170.9,241.1 		"/>
		<polygon fill="#FFFFFF" points="158.8,237.9 161,241.9 168.5,241 166.9,236.1 		"/>
		<polygon fill="#FFFFFF" points="152.5,240.2 149,241.4 151,244.4 158.6,242.3 156.5,238.8 154.1,239.4 155,241.8 153.4,242.1 		
			"/>
		<polygon fill="#FFFFFF" points="186.3,245.2 180.6,243.9 180.6,250.8 185.8,252.4 		"/>
		<polygon fill="#FFFFFF" points="183.8,262.8 185.6,254.8 180.7,253.2 179.8,260.7 		"/>
		<polygon fill="#FFFFFF" points="182.3,267.5 182.9,265.2 179.4,263.1 177.2,270.7 180.3,272.7 181.5,269.2 179.6,268.3 
			179.9,266.7 		"/>
		<polygon fill="#FFFFFF" points="193.6,227.8 186.7,227.6 187.7,234 194.1,235 		"/>
		<polygon fill="#FFFFFF" points="177,228.1 178.6,233.3 185.5,233.3 184.2,227.6 		"/>
		<polygon fill="#FFFFFF" points="176.2,233.3 174.6,228.3 166.6,230.1 168.7,234.1 		"/>
		<polygon fill="#FFFFFF" points="161.9,231.6 162.7,234 161.2,234.3 160.2,232.5 156.7,233.6 158.7,236.7 166.4,234.6 164.3,231.1 
					"/>
		<polygon fill="#FFFFFF" points="194.1,237.4 188.3,236.2 188.3,243 193.5,244.7 		"/>
		<polygon fill="#FFFFFF" points="188.4,245.4 187.5,252.9 191.5,255.1 193.4,247 		"/>
		<polygon fill="#FFFFFF" points="187.7,259 190,259.8 190.6,257.4 187.1,255.3 185,263 188.1,264.9 189.2,261.5 187.3,260.5 		"/>
		<polygon fill="#FFFFFF" points="195.5,226.3 201.9,227.2 201.4,220.1 194.5,219.8 		"/>
		<polygon fill="#FFFFFF" points="184.8,220.4 186.4,225.6 193.2,225.6 192,219.8 		"/>
		<polygon fill="#FFFFFF" points="174.3,222.4 176.5,226.4 184,225.5 182.4,220.6 		"/>
		<polygon fill="#FFFFFF" points="164.5,225.9 166.5,228.9 174.1,226.8 172,223.3 169.6,223.9 170.5,226.3 168.9,226.6 168,224.7 		
			"/>
		<polygon fill="#FFFFFF" points="201.8,229.7 196.1,228.4 196.1,235.3 201.3,236.9 		"/>
		<polygon fill="#FFFFFF" points="199.3,247.3 201.1,239.3 196.2,237.7 195.3,245.2 		"/>
		<polygon fill="#FFFFFF" points="195.1,252.8 195.4,251.2 197.8,252 198.4,249.7 194.9,247.5 192.7,255.2 195.8,257.2 197,253.7 		
			"/>
		<polygon fill="#FFFFFF" points="203.2,218.5 206.9,219.1 206.9,212.3 202.2,212.1 		"/>
		<polygon fill="#FFFFFF" points="194.1,217.8 201,217.8 199.7,212.1 192.5,212.6 		"/>
		<polygon fill="#FFFFFF" points="182.1,214.6 184.2,218.6 191.8,217.7 190.1,212.8 		"/>
		<polygon fill="#FFFFFF" points="181.9,219.1 179.8,215.6 177.4,216.1 178.2,218.5 176.7,218.8 175.7,217 172.2,218.1 174.2,221.2 
					"/>
		<polygon fill="#FFFFFF" points="203.8,227.5 206.9,228.5 206.9,221.4 203.8,220.7 		"/>
		<polygon fill="#FFFFFF" points="203,237.4 206.9,239.5 206.9,230.9 203.9,229.9 		"/>
		<polygon fill="#FFFFFF" points="203.6,249.4 204.7,245.9 202.9,245 203.2,243.5 205.5,244.3 206.1,241.9 202.6,239.8 200.5,247.5 
					"/>
		<polygon fill="#FFFFFF" points="201.9,210.1 206.9,210.1 206.9,204.4 200.3,204.9 		"/>
		<polygon fill="#FFFFFF" points="189.8,206.9 192,210.9 199.5,210 197.9,205 		"/>
		<polygon fill="#FFFFFF" points="185.1,208.4 186,210.8 184.4,211.1 183.5,209.2 180,210.4 182,213.4 189.6,211.3 187.5,207.8 		
			"/>
		<polygon fill="#FFFFFF" points="197.6,199.1 199.7,203.1 206.9,202.3 206.9,201.2 205.6,197.3 		"/>
		<polygon fill="#FFFFFF" points="192.9,200.6 193.7,203 192.2,203.3 191.2,201.4 187.7,202.6 189.7,205.7 197.4,203.6 195.3,200.1 
					"/>
		<polygon fill="#FFFFFF" points="206.9,194.3 206.9,191 205.4,191.4 		"/>
		<polygon fill="#FFFFFF" points="201.5,195.3 199.9,195.6 199,193.7 195.5,194.9 197.5,197.9 205.1,195.8 203,192.3 200.7,192.9 		
			"/>
		<polygon fill="#FFFFFF" points="203.2,187.1 205.2,190.2 206.9,189.7 206.9,186.3 206.7,185.9 		"/>
		<polygon fill="#FFFFFF" points="241,173.3 241.1,174.3 248,174.3 247.9,173.6 		"/>
		<polygon fill="#FFFFFF" points="231.3,173.9 231.4,174.3 238.7,174.3 238.5,173.3 		"/>
		<polygon fill="#FFFFFF" points="227.6,174.3 229,174.3 228.9,174 		"/>
		<polygon fill="#FFFFFF" points="248.7,165.6 249.7,172 256.1,173 255.7,165.8 		"/>
		<polygon fill="#FFFFFF" points="239,166.1 240.7,171.3 247.5,171.3 246.3,165.6 		"/>
		<polygon fill="#FFFFFF" points="228.6,168.1 230.8,172.1 238.3,171.2 236.6,166.3 		"/>
		<polygon fill="#FFFFFF" points="226.3,169 223.9,169.6 223.9,169.7 224.7,172 223.9,172.2 223.9,173.8 228.4,172.6 		"/>
		<polygon fill="#FFFFFF" points="250.3,174.3 251.1,174.3 250.3,174.2 		"/>
		<polygon fill="#FFFFFF" points="263.4,158.1 256.5,157.8 257.5,164.2 263.9,165.2 		"/>
		<polygon fill="#FFFFFF" points="254,157.8 246.8,158.4 248.4,163.6 255.3,163.6 		"/>
		<polygon fill="#FFFFFF" points="244.4,158.5 236.4,160.4 238.5,164.4 246,163.5 		"/>
		<polygon fill="#FFFFFF" points="234,161.3 231.7,161.9 232.5,164.2 230.9,164.6 230,162.7 226.5,163.8 228.5,166.9 236.1,164.8 		
			"/>
		<polygon fill="#FFFFFF" points="263.9,167.7 258.1,166.4 258.1,173.3 263.3,174.9 		"/>
		<polygon fill="#FFFFFF" points="263.1,177.3 258.2,175.7 258,177.7 258,183.5 261.3,185.3 		"/>
		<polygon fill="#FFFFFF" points="258,191.2 258,194.8 259,191.7 		"/>
		<polygon fill="#FFFFFF" points="260.4,187.6 258,186.2 258,189.4 259.8,190 		"/>
		<polygon fill="#FFFFFF" points="271.2,150.3 264.2,150.1 265.2,156.5 271.6,157.5 		"/>
		<polygon fill="#FFFFFF" points="261.8,150.1 254.5,150.6 256.2,155.8 263,155.8 		"/>
		<polygon fill="#FFFFFF" points="246.3,156.6 253.8,155.7 252.2,150.8 244.1,152.6 		"/>
		<polygon fill="#FFFFFF" points="243.9,157 241.8,153.5 239.4,154.1 240.2,156.5 238.7,156.8 237.7,154.9 234.2,156.1 236.2,159.2 
					"/>
		<polygon fill="#FFFFFF" points="271.1,167.1 271.6,159.9 265.9,158.7 265.9,165.5 		"/>
		<polygon fill="#FFFFFF" points="265.9,167.9 265.1,175.4 269.1,177.6 270.9,169.5 		"/>
		<polygon fill="#FFFFFF" points="262.5,185.4 265.6,187.4 266.7,183.9 264.9,183 265.2,181.4 267.6,182.3 268.1,179.9 264.6,177.8 
					"/>
		<polygon fill="#FFFFFF" points="278.9,142.6 272,142.3 273,148.7 279.4,149.7 		"/>
		<polygon fill="#FFFFFF" points="270.8,148.1 269.5,142.3 262.3,142.8 263.9,148.1 		"/>
		<polygon fill="#FFFFFF" points="261.5,148 259.9,143 251.9,144.9 254,148.9 		"/>
		<polygon fill="#FFFFFF" points="251.6,149.3 249.5,145.8 247.2,146.4 248,148.7 246.4,149 245.5,147.2 242,148.3 244,151.4 		"/>
		<polygon fill="#FFFFFF" points="278.8,159.4 279.4,152.2 273.6,150.9 273.6,157.8 		"/>
		<polygon fill="#FFFFFF" points="273.7,160.1 272.8,167.7 276.8,169.8 278.6,161.8 		"/>
		<polygon fill="#FFFFFF" points="270.3,177.7 273.3,179.7 274.5,176.2 272.6,175.2 272.9,173.7 275.3,174.5 275.9,172.1 272.4,170 
					"/>
		<polygon fill="#FFFFFF" points="286.7,134.8 279.7,134.6 280.7,141 287.1,142 		"/>
		<polygon fill="#FFFFFF" points="278.5,140.3 277.3,134.6 270,135.1 271.7,140.3 		"/>
		<polygon fill="#FFFFFF" points="269.3,140.2 267.7,135.3 259.6,137.1 261.8,141.1 		"/>
		<polygon fill="#FFFFFF" points="259.4,141.5 257.3,138 254.9,138.6 255.7,141 254.2,141.3 253.2,139.4 249.8,140.6 251.7,143.7 		
			"/>
		<polygon fill="#FFFFFF" points="286.6,151.6 287.1,144.4 281.4,143.2 281.4,150 		"/>
		<polygon fill="#FFFFFF" points="281.4,152.4 280.6,159.9 284.6,162.1 286.4,154 		"/>
		<polygon fill="#FFFFFF" points="278,169.9 281.1,171.9 282.2,168.4 280.4,167.5 280.7,165.9 283.1,166.8 283.6,164.4 280.1,162.3 
					"/>
		<polygon fill="#FFFFFF" points="294.4,127.1 287.5,126.8 288.5,133.2 294.9,134.2 		"/>
		<polygon fill="#FFFFFF" points="286.3,132.6 285,126.8 277.8,127.3 279.4,132.6 		"/>
		<polygon fill="#FFFFFF" points="269.5,133.4 277,132.5 275.4,127.5 267.4,129.4 		"/>
		<polygon fill="#FFFFFF" points="267.1,133.8 265,130.3 262.7,130.9 263.5,133.2 261.9,133.5 261,131.7 257.5,132.8 259.5,135.9 		
			"/>
		<polygon fill="#FFFFFF" points="294.3,143.9 294.9,136.7 289.1,135.4 289.1,142.2 		"/>
		<polygon fill="#FFFFFF" points="289.2,144.6 288.3,152.2 292.3,154.3 294.1,146.3 		"/>
		<polygon fill="#FFFFFF" points="285.8,162.2 288.8,164.2 290,160.7 288.1,159.7 288.4,158.2 290.8,159 291.4,156.6 287.9,154.5 		
			"/>
		<polygon fill="#FFFFFF" points="296.2,125.5 302.6,126.5 302.2,119.3 295.3,119.1 		"/>
		<polygon fill="#FFFFFF" points="287.2,124.8 294,124.8 292.8,119.1 285.5,119.6 		"/>
		<polygon fill="#FFFFFF" points="284.8,124.7 283.2,119.8 275.1,121.6 277.3,125.6 		"/>
		<polygon fill="#FFFFFF" points="274.9,126 272.8,122.5 270.4,123.1 271.2,125.5 269.7,125.8 268.8,123.9 265.3,125.1 267.2,128.2 
					"/>
		<polygon fill="#FFFFFF" points="302.1,136.1 302.6,128.9 296.9,127.7 296.9,134.5 		"/>
		<polygon fill="#FFFFFF" points="297,136.9 296.1,144.4 300.1,146.5 301.9,138.5 		"/>
		<polygon fill="#FFFFFF" points="293.5,154.4 296.6,156.4 297.7,152.9 295.9,152 296.2,150.4 298.6,151.2 299.1,148.9 295.6,146.8 
					"/>
		<polygon fill="#FFFFFF" points="310.4,118.7 309.9,111.5 303,111.3 304,117.7 		"/>
		<polygon fill="#FFFFFF" points="301.8,117.1 300.5,111.3 293.3,111.8 294.9,117 		"/>
		<polygon fill="#FFFFFF" points="285,117.9 292.5,117 290.9,112 282.9,113.8 		"/>
		<polygon fill="#FFFFFF" points="282.7,118.3 280.5,114.8 278.2,115.4 279,117.7 277.4,118 276.5,116.2 273,117.3 275,120.4 		"/>
		<polygon fill="#FFFFFF" points="309.8,128.4 310.4,121.2 304.6,119.9 304.6,126.7 		"/>
		<polygon fill="#FFFFFF" points="304.7,129.1 303.8,136.7 307.8,138.8 309.7,130.8 		"/>
		<polygon fill="#FFFFFF" points="301.3,146.7 304.3,148.7 305.5,145.2 303.6,144.2 303.9,142.7 306.3,143.5 306.9,141.1 303.4,139 
					"/>
		<polygon fill="#FFFFFF" points="318.2,110.9 317.8,106.3 311.2,106.3 311.7,110 		"/>
		<polygon fill="#FFFFFF" points="309.5,109.3 308.9,106.3 301.7,106.3 302.7,109.3 		"/>
		<polygon fill="#FFFFFF" points="300.3,109.2 299.3,106.3 290.7,106.3 292.8,110.1 		"/>
		<polygon fill="#FFFFFF" points="290.4,110.5 288.3,107 285.9,107.6 286.7,110 285.2,110.3 284.3,108.4 280.8,109.6 282.7,112.7 		
			"/>
		<polygon fill="#FFFFFF" points="317.6,120.6 318.1,113.4 312.4,112.1 312.4,119 		"/>
		<polygon fill="#FFFFFF" points="312.5,121.4 311.6,128.9 315.6,131 317.4,123 		"/>
		<polygon fill="#FFFFFF" points="309,138.9 312.1,140.9 313.3,137.4 311.4,136.5 311.7,134.9 314.1,135.7 314.6,133.4 311.1,131.3 
					"/>
		<polygon fill="#FFFFFF" points="325.3,112.9 325.8,106.3 320.1,106.3 320.1,111.2 		"/>
		<polygon fill="#FFFFFF" points="320.2,113.6 319.3,121.1 323.3,123.3 325.2,115.3 		"/>
		<polygon fill="#FFFFFF" points="316.8,131.2 319.8,133.2 321,129.7 319.1,128.7 319.4,127.2 321.8,128 322.4,125.6 318.9,123.5 		
			"/>
		<polygon fill="#FFFFFF" points="326,124.4 326,118.1 324.5,123.4 		"/>
		<path fill="#FFFFFF" d="M319.6,367.1l-6.9-1l0.2,3.6c2.1,1.1,4.3,2.1,6.5,3.1L319.6,367.1z"/>
		<path fill="#FFFFFF" d="M306,365.8c1.5,0.9,3,1.8,4.6,2.7l-0.3-2.6L306,365.8z"/>
		<polygon fill="#FFFFFF" points="328.1,360.2 321.3,359.3 321.6,365.7 327.9,367.4 		"/>
		<polygon fill="#FFFFFF" points="311.6,358.8 312.7,364.1 319.5,364.9 318.8,359 		"/>
		<path fill="#FFFFFF" d="M309.2,358.7l-8.2,1l1.6,3.8c0.2,0.1,0.3,0.2,0.5,0.4l7.2-0.1L309.2,358.7z"/>
		<path fill="#FFFFFF" d="M298.3,360.4c0.2,0.1,0.4,0.3,0.6,0.4l-0.2-0.5L298.3,360.4z"/>
		<path fill="#FFFFFF" d="M322,368l-0.6,5.7c1.7,0.7,3.4,1.3,5.1,1.9l1-5.8L322,368z"/>
		<polygon fill="#FFFFFF" points="329.8,352.4 330.1,358.8 336.4,360.5 336.7,353.3 		"/>
		<polygon fill="#FFFFFF" points="320.1,351.9 321.2,357.2 328,358 327.3,352.1 		"/>
		<polygon fill="#FFFFFF" points="318.8,356.9 317.7,351.8 309.5,352.8 311.2,357 		"/>
		<polygon fill="#FFFFFF" points="307.1,353.5 304.7,353.8 305.3,356.2 303.7,356.4 302.9,354.4 299.3,355.2 301,358.5 308.8,357.2 
					"/>
		<polygon fill="#FFFFFF" points="329.8,367.9 334.8,370.1 336.1,362.9 330.5,361.1 		"/>
		<path fill="#FFFFFF" d="M329.6,370.3l-1.3,5.9c1.4,0.5,2.9,0.9,4.3,1.3l1.8-5.1L329.6,370.3z"/>
		<polygon fill="#FFFFFF" points="345.2,346.4 338.3,345.5 338.6,351.9 344.9,353.6 		"/>
		<polygon fill="#FFFFFF" points="335.9,345.2 328.6,345 329.7,350.3 336.5,351.1 		"/>
		<polygon fill="#FFFFFF" points="318,345.9 319.8,350.1 327.3,350 326.2,344.9 		"/>
		<polygon fill="#FFFFFF" points="313.2,346.9 313.8,349.3 312.2,349.5 311.5,347.5 307.9,348.3 309.5,351.6 317.4,350.3 
			315.6,346.6 		"/>
		<polygon fill="#FFFFFF" points="343.3,363.2 344.6,356 339,354.2 338.3,361 		"/>
		<polygon fill="#FFFFFF" points="338.2,363.4 336.5,370.8 340.2,373.3 342.9,365.5 		"/>
		<path fill="#FFFFFF" d="M336,376.8l2.3,1.1l0.8-2.3l-3.3-2.5l-1.9,4.8c0.5,0.1,1.1,0.3,1.6,0.4l0,0L336,376.8z"/>
		<polygon fill="#FFFFFF" points="353.7,339.5 346.9,338.6 347.2,345 353.4,346.7 		"/>
		<polygon fill="#FFFFFF" points="337.1,338.1 338.2,343.4 345,344.2 344.4,338.3 		"/>
		<polygon fill="#FFFFFF" points="335.8,343.1 334.8,338 326.6,339 328.3,343.2 		"/>
		<polygon fill="#FFFFFF" points="316.4,341.4 318,344.7 325.9,343.4 324.1,339.7 321.7,340 322.3,342.4 320.7,342.6 320,340.6 		
			"/>
		<polygon fill="#FFFFFF" points="351.9,356.3 353.1,349.1 347.6,347.3 346.8,354.1 		"/>
		<polygon fill="#FFFFFF" points="346.7,356.5 345,363.9 348.8,366.4 351.4,358.6 		"/>
		<polygon fill="#FFFFFF" points="341.4,373.6 344.3,375.9 345.8,372.5 344,371.4 344.5,369.9 346.8,370.9 347.6,368.6 344.3,366.2 
					"/>
		<polygon fill="#FFFFFF" points="362.2,332.6 355.4,331.7 355.7,338.1 362,339.8 		"/>
		<polygon fill="#FFFFFF" points="353.5,337.3 352.9,331.4 345.7,331.2 346.7,336.5 		"/>
		<polygon fill="#FFFFFF" points="336.8,336.3 344.4,336.2 343.3,331.1 335.1,332.1 		"/>
		<polygon fill="#FFFFFF" points="326.6,337.8 334.4,336.5 332.7,332.8 330.3,333.1 330.8,335.5 329.2,335.7 328.5,333.7 
			324.9,334.5 		"/>
		<polygon fill="#FFFFFF" points="360.4,349.4 361.7,342.2 356.1,340.4 355.4,347.2 		"/>
		<polygon fill="#FFFFFF" points="355.2,349.6 353.5,357 357.3,359.5 359.9,351.7 		"/>
		<polygon fill="#FFFFFF" points="349.9,366.7 352.8,369 354.3,365.6 352.6,364.5 353,363 355.3,364 356.1,361.7 352.9,359.3 		"/>
		<polygon fill="#FFFFFF" points="364.2,331.2 370.5,332.9 370.7,325.7 363.9,324.8 		"/>
		<polygon fill="#FFFFFF" points="362.1,330.4 361.4,324.5 354.2,324.3 355.3,329.6 		"/>
		<polygon fill="#FFFFFF" points="343.6,325.2 345.3,329.4 352.9,329.3 351.8,324.2 		"/>
		<polygon fill="#FFFFFF" points="335.1,330.9 342.9,329.6 341.2,325.9 338.8,326.2 339.3,328.6 337.8,328.8 337,326.8 333.4,327.6 
					"/>
		<polygon fill="#FFFFFF" points="370.2,335.3 364.6,333.5 363.9,340.3 368.9,342.5 		"/>
		<polygon fill="#FFFFFF" points="363.7,342.7 362,350.1 365.8,352.6 368.5,344.8 		"/>
		<polygon fill="#FFFFFF" points="358.5,359.8 361.3,362.1 362.8,358.7 361.1,357.6 361.5,356.1 363.8,357.1 364.6,354.8 
			361.4,352.4 		"/>
		<polygon fill="#FFFFFF" points="379,326 379.3,318.8 372.4,317.9 372.7,324.3 		"/>
		<polygon fill="#FFFFFF" points="363.8,322.7 370.6,323.5 369.9,317.6 362.7,317.4 		"/>
		<polygon fill="#FFFFFF" points="361.4,322.4 360.3,317.3 352.1,318.3 353.8,322.5 		"/>
		<polygon fill="#FFFFFF" points="345.5,319.9 341.9,320.7 343.6,324 351.4,322.7 349.7,319 347.3,319.3 347.9,321.7 346.3,321.9 		
			"/>
		<polygon fill="#FFFFFF" points="378.7,328.4 373.1,326.6 372.4,333.4 377.4,335.6 		"/>
		<polygon fill="#FFFFFF" points="374.3,345.7 377,337.9 372.2,335.8 370.6,343.2 		"/>
		<polygon fill="#FFFFFF" points="367,352.9 369.8,355.2 371.4,351.8 369.6,350.7 370.1,349.2 372.3,350.2 373.2,347.9 369.9,345.5 
					"/>
		<polygon fill="#FFFFFF" points="387.5,319.1 387.8,311.9 380.9,311 381.2,317.4 		"/>
		<path fill="#FFFFFF" d="M379.1,316.6l-0.6-5.9l-5.2-0.2c-0.6,0.3-1.3,0.5-1.9,0.7l0.9,4.6L379.1,316.6z"/>
		<path fill="#FFFFFF" d="M362.4,315.6l7.6-0.1l-0.8-3.5c-2.5,0.7-5.1,1.1-7.8,1.2L362.4,315.6z"/>
		<path fill="#FFFFFF" d="M354.8,315l-0.7-2l-3.6,0.8l1.7,3.3l7.8-1.3l-1.2-2.6c-0.9,0-1.9-0.1-2.8-0.2l0.4,1.9L354.8,315z"/>
		<polygon fill="#FFFFFF" points="387.2,321.5 381.6,319.7 380.9,326.5 385.9,328.7 		"/>
		<polygon fill="#FFFFFF" points="382.8,338.8 385.5,331 380.8,328.9 379.1,336.3 		"/>
		<polygon fill="#FFFFFF" points="375.5,346 378.4,348.3 379.9,344.9 378.1,343.8 378.6,342.3 380.9,343.3 381.7,341 378.4,338.6 		
			"/>
		<polygon fill="#FFFFFF" points="396,312.2 396.3,305 389.5,304.1 389.8,310.5 		"/>
		<path fill="#FFFFFF" d="M387.6,309.7l-0.6-5.9l-3.4-0.1c-1,1-2.1,1.9-3.3,2.8l0.5,2.4L387.6,309.7z"/>
		<path fill="#FFFFFF" d="M378.3,307.9c-0.4,0.3-0.8,0.5-1.2,0.7l1.4,0L378.3,307.9z"/>
		<polygon fill="#FFFFFF" points="395.7,314.6 390.2,312.8 389.4,319.6 394.5,321.8 		"/>
		<polygon fill="#FFFFFF" points="391.4,331.9 394,324.1 389.3,322 387.6,329.4 		"/>
		<polygon fill="#FFFFFF" points="389.4,336.4 390.2,334.1 386.9,331.7 384,339.1 386.9,341.4 388.4,338 386.6,336.9 387.1,335.4 		
			"/>
		<polygon fill="#FFFFFF" points="398.3,303.6 404.6,305.3 404.8,298.1 398,297.2 		"/>
		<path fill="#FFFFFF" d="M396.1,302.8l-0.6-5.9l-6.3-0.2c-0.2,0.4-0.5,0.7-0.7,1.1l0.9,4.2L396.1,302.8z"/>
		<path fill="#FFFFFF" d="M386.7,300.3c-0.4,0.5-0.8,1-1.2,1.4l1.5,0L386.7,300.3z"/>
		<polygon fill="#FFFFFF" points="403,314.9 404.3,307.7 398.7,305.9 398,312.7 		"/>
		<polygon fill="#FFFFFF" points="399.9,325 402.5,317.2 397.8,315.1 396.1,322.5 		"/>
		<polygon fill="#FFFFFF" points="396.9,331.1 395.2,330 395.6,328.5 397.9,329.5 398.7,327.2 395.5,324.8 392.5,332.2 395.4,334.5 
					"/>
		<polygon fill="#FFFFFF" points="406.8,296.7 413.1,298.4 413.3,291.2 406.5,290.3 		"/>
		<polygon fill="#FFFFFF" points="397.9,295.1 404.7,295.9 404,290 396.8,289.8 		"/>
		<path fill="#FFFFFF" d="M394.4,289.7l-2.1,0.3c-0.6,1.7-1.3,3.3-2.1,4.9l5.3-0.1L394.4,289.7z"/>
		<polygon fill="#FFFFFF" points="406.5,305.8 411.5,308 412.8,300.8 407.2,299 		"/>
		<polygon fill="#FFFFFF" points="408.4,318.1 411.1,310.3 406.3,308.2 404.7,315.6 		"/>
		<polygon fill="#FFFFFF" points="401.1,325.3 403.9,327.6 405.4,324.2 403.7,323.1 404.1,321.6 406.4,322.6 407.2,320.3 404,317.9 
					"/>
		<polygon fill="#FFFFFF" points="415.3,289.8 421.6,291.5 421.9,284.3 415,283.4 		"/>
		<polygon fill="#FFFFFF" points="405.3,282.9 406.4,288.2 413.2,289 412.5,283.1 		"/>
		<polygon fill="#FFFFFF" points="404,287.9 402.9,282.8 394.7,283.8 396.4,288 		"/>
		<path fill="#FFFFFF" d="M393.2,286.4c-0.1,0.7-0.3,1.3-0.5,1.9l1.3-0.2L393.2,286.4z"/>
		<polygon fill="#FFFFFF" points="415,298.9 420,301.1 421.3,293.9 415.7,292.1 		"/>
		<polygon fill="#FFFFFF" points="416.9,311.2 419.6,303.4 414.8,301.3 413.2,308.7 		"/>
		<polygon fill="#FFFFFF" points="412.7,314.7 414.9,315.7 415.8,313.4 412.5,311 409.6,318.4 412.4,320.7 414,317.3 412.2,316.2 		
			"/>
		<polygon fill="#FFFFFF" points="423.8,282.9 430.1,284.6 430.4,277.4 423.5,276.5 		"/>
		<polygon fill="#FFFFFF" points="413.8,276 414.9,281.3 421.7,282.1 421.1,276.2 		"/>
		<polygon fill="#FFFFFF" points="403.2,276.9 405,281.1 412.5,281 411.4,275.9 		"/>
		<path fill="#FFFFFF" d="M402.6,281.3l-1.7-3.7l-2.4,0.3l0.6,2.4l-1.6,0.1l-0.7-2l-2.7,0.6v0.1c0,0.6,0,1.2-0.1,1.9l0.8,1.5
			L402.6,281.3z"/>
		<polygon fill="#FFFFFF" points="423.5,292 428.5,294.2 429.8,287 424.2,285.2 		"/>
		<polygon fill="#FFFFFF" points="423.4,294.4 421.7,301.8 425.5,304.3 428.1,296.5 		"/>
		<polygon fill="#FFFFFF" points="422.5,310.4 420.7,309.3 421.2,307.8 423.5,308.8 424.3,306.5 421,304.1 418.1,311.5 421,313.8 		
			"/>
		<polygon fill="#FFFFFF" points="432.4,276 438.6,277.7 438.9,270.5 432.1,269.6 		"/>
		<polygon fill="#FFFFFF" points="422.3,269.1 423.4,274.4 430.2,275.2 429.6,269.3 		"/>
		<polygon fill="#FFFFFF" points="411.8,270 413.5,274.2 421,274.1 420,269 		"/>
		<polygon fill="#FFFFFF" points="411.1,274.4 409.4,270.7 406.9,271 407.5,273.4 405.9,273.6 405.2,271.6 401.6,272.4 403.2,275.7 
					"/>
		<polygon fill="#FFFFFF" points="437.1,287.3 438.3,280.1 432.8,278.3 432,285.1 		"/>
		<polygon fill="#FFFFFF" points="436.6,289.6 431.9,287.5 430.2,294.9 434,297.4 		"/>
		<polygon fill="#FFFFFF" points="429.5,297.2 426.6,304.6 429.5,306.9 431,303.5 429.2,302.4 429.7,300.9 432,301.9 432.8,299.6 		
			"/>
		<polygon fill="#FFFFFF" points="440.9,269.2 447.2,270.8 447.4,263.6 440.6,262.7 		"/>
		<polygon fill="#FFFFFF" points="430.9,262.2 431.9,267.5 438.7,268.3 438.1,262.4 		"/>
		<polygon fill="#FFFFFF" points="420.3,263.1 422,267.3 429.6,267.2 428.5,262.1 		"/>
		<polygon fill="#FFFFFF" points="419.6,267.5 417.9,263.8 415.5,264.1 416,266.5 414.4,266.7 413.7,264.7 410.1,265.5 411.8,268.8 
					"/>
		<polygon fill="#FFFFFF" points="446.9,273.2 441.3,271.4 440.6,278.2 445.6,280.4 		"/>
		<polygon fill="#FFFFFF" points="445.1,282.7 440.4,280.6 438.7,288 442.5,290.5 		"/>
		<polygon fill="#FFFFFF" points="440.5,295 441.3,292.7 438.1,290.3 435.1,297.7 438,300 439.5,296.6 437.8,295.5 438.2,294 		"/>
		<polygon fill="#FFFFFF" points="449.4,262.3 455.7,263.9 455.9,256.7 449.1,255.8 		"/>
		<polygon fill="#FFFFFF" points="439.4,255.3 440.5,260.6 447.3,261.4 446.6,255.5 		"/>
		<polygon fill="#FFFFFF" points="428.8,256.2 430.5,260.4 438.1,260.3 437,255.2 		"/>
		<polygon fill="#FFFFFF" points="428.1,260.6 426.4,256.9 424,257.2 424.5,259.6 423,259.8 422.2,257.8 418.6,258.6 420.3,261.9 		
			"/>
		<polygon fill="#FFFFFF" points="449.8,264.5 449.1,271.3 454.1,273.5 455.4,266.3 		"/>
		<polygon fill="#FFFFFF" points="448.9,273.7 447.3,281.1 451,283.6 453.7,275.8 		"/>
		<polygon fill="#FFFFFF" points="446.3,288.6 446.7,287.1 449,288.1 449.8,285.8 446.6,283.4 443.7,290.8 446.5,293.1 448,289.7 		
			"/>
		<polygon fill="#FFFFFF" points="457.6,248.9 457.9,255.4 462,256.4 462,249.5 		"/>
		<polygon fill="#FFFFFF" points="449,253.7 455.8,254.5 455.1,248.6 447.9,248.4 		"/>
		<polygon fill="#FFFFFF" points="437.3,249.3 439,253.5 446.6,253.4 445.5,248.3 		"/>
		<polygon fill="#FFFFFF" points="436.6,253.7 434.9,250 432.5,250.3 433.1,252.7 431.5,252.9 430.7,250.9 427.1,251.7 428.8,255 		
			"/>
		<polygon fill="#FFFFFF" points="457.6,264.4 462,266.3 462,258.8 458.3,257.6 		"/>
		<polygon fill="#FFFFFF" points="457.4,266.8 455.8,274.2 459.5,276.7 462,269.3 462,268.8 		"/>
		<polygon fill="#FFFFFF" points="452.2,283.9 455,286.2 456.6,282.8 454.8,281.7 455.3,280.2 457.5,281.2 458.4,278.9 455.1,276.5 
					"/>
		<polygon fill="#FFFFFF" points="457.5,246.8 462,247.3 462,241.7 456.4,241.5 		"/>
		<polygon fill="#FFFFFF" points="447.6,246.6 455.1,246.5 454,241.4 445.8,242.4 		"/>
		<polygon fill="#FFFFFF" points="445.2,246.8 443.4,243.1 441,243.4 441.6,245.8 440,246 439.3,244 435.7,244.8 437.3,248.1 		"/>
		<polygon fill="#FFFFFF" points="462,278 462,273.6 460.7,277 		"/>
		<polygon fill="#FFFFFF" points="456.1,239.7 462,239.6 462,234.6 454.4,235.5 		"/>
		<polygon fill="#FFFFFF" points="453.7,239.9 452,236.2 449.5,236.5 450.1,238.9 448.5,239.1 447.8,237.1 444.2,237.9 445.8,241.2 
					"/>
		<polygon fill="#FFFFFF" points="458.1,229.6 458.6,232 457,232.2 456.3,230.2 452.7,231 454.4,234.3 462,233 462,232.6 
			460.5,229.3 		"/>
		<polygon fill="#FFFFFF" points="462,225.7 462,224 461.2,224.1 		"/>
		<path fill="#FFFFFF" d="M181.9,375c0.3,1.1,0.5,2.2,0.8,3.4h8.7c-0.1-1.1-0.3-2.1-0.5-3.1C188.2,375.1,185.1,375,181.9,375"/>
		<path fill="#FFFFFF" d="M157.4,378.2c0,0,0,0.1,0.1,0.3h10.3c-0.2-0.7-0.5-1.4-0.8-2.2C163.3,376.8,160,377.4,157.4,378.2"/>
		<path fill="#FFFFFF" d="M169.9,375.9c0.3,0.8,0.6,1.7,0.8,2.6h10.1c-0.2-1.3-0.5-2.4-0.7-3.4C176.8,375.2,173.3,375.5,169.9,375.9
			"/>
		<path fill="#FFFFFF" d="M201.4,355.5c1.6,6.4,2.6,14.9,2.3,22.9h3.2v-22.9C205.2,355.5,203.3,355.5,201.4,355.5"/>
		<path fill="#FFFFFF" d="M176.9,358.6c0,0,0.9,2.6,2.6,5.1c2.2-0.4,5.5-0.7,9-0.8c-0.2-1.2-0.8-3.3-2-6.3
			C182.9,357.3,179.5,357.9,176.9,358.6"/>
		<path fill="#FFFFFF" d="M200.6,363.2c0.1-2.8-0.5-5.7-1-7.6c-3.4,0.1-6.9,0.4-10.2,0.8c0.7,2,1.4,4.4,1.8,6.6
			C194.9,362.9,198.4,363,200.6,363.2"/>
		<path fill="#FFFFFF" d="M193.9,375.8c0.1,0.7,0.1,1.6,0.1,2.6h7.4c0-0.5,0.1-1.1,0.1-1.6C199.6,376.3,196.7,375.7,193.9,375.8"/>
		<path fill="#FFFFFF" d="M167.2,368.3l2.8,5.4c9.8-1.8,22.8-0.9,31.5,1.4c0.1-3.2,0-6.3-0.4-9C190.9,363.9,172.1,366.7,167.2,368.3
			"/>
		<path fill="#FFFFFF" d="M196.4,339.1c0,0,0.9,2.6,2.6,5.1c2.2-0.4,5.5-0.7,9-0.8c-0.3-1.2-0.8-3.3-2-6.3
			C202.4,337.7,199,338.4,196.4,339.1"/>
		<path fill="#FFFFFF" d="M221,336c0.6,2.5,1.2,5.4,1.6,8.4h8.2c0-3-0.3-5.7-0.8-8.1C227.2,336,224.2,335.9,221,336"/>
		<path fill="#FFFFFF" d="M209,336.8c0.7,2,1.4,4.4,1.8,6.6c3.6,0,7.1,0.1,9.4,0.2c0.1-2.8-0.5-5.7-1-7.6
			C215.8,336.1,212.3,336.4,209,336.8"/>
		<path fill="#FFFFFF" d="M189.6,354.2c5.3-1,11.4-1.2,17.4-0.8v-7.5c-8.5,0.4-17.1,1.9-20.2,2.9L189.6,354.2z"/>
		<path fill="#FFFFFF" d="M240.9,318.4v-1.9c-0.2,0-0.3,0-0.5,0C240.6,317.1,240.8,317.7,240.9,318.4"/>
		<path fill="#FFFFFF" d="M216,319.6c0,0,0.9,2.6,2.6,5.1c2.2-0.4,5.5-0.7,9-0.8c-0.2-1.2-0.8-3.3-2-6.3
			C221.9,318.2,218.6,318.9,216,319.6"/>
		<path fill="#FFFFFF" d="M239.7,324.1c0.1-2.8-0.5-5.7-1-7.6c-3.4,0.1-6.9,0.4-10.2,0.8c0.7,2,1.4,4.4,1.8,6.6
			C233.9,323.9,237.4,324,239.7,324.1"/>
		<path fill="#FFFFFF" d="M233,336.8c0.1,1.9,0.2,4.6,0.2,7.6h7c0.2-2.2,0.4-4.5,0.4-6.7C238.7,337.3,235.7,336.7,233,336.8"/>
		<path fill="#FFFFFF" d="M206.3,329.3l2.8,5.4c9.8-1.8,22.8-0.9,31.5,1.4c0.1-3.2,0-6.3-0.4-9C230,324.8,211.1,327.7,206.3,329.3"
			/>
		<path fill="#FFFFFF" d="M269,297.3c-2.7-0.3-5.8-0.4-9-0.4c0.8,3,1.4,6.4,1.8,10.1c1.7,5.9,3.9,11.6,6.5,17
			C269.6,316.1,270.5,304.6,269,297.3"/>
		<path fill="#FFFFFF" d="M235.5,300.1c0,0,0.9,2.6,2.6,5.1c0.8-0.2,1.8-0.3,2.8-0.4v-6C238.9,299.2,237.1,299.6,235.5,300.1"/>
		<path fill="#FFFFFF" d="M228.6,315.1c3.8-0.7,8-1,12.3-1v-7c-6.7,0.6-12.7,1.8-15.2,2.6L228.6,315.1z"/>
		<path fill="#FFFFFF" d="M267.6,278.2c0.7,2,1.4,4.4,1.8,6.6c3.6,0,7.1,0.1,9.4,0.2c0.1-2.8-0.5-5.7-1-7.6
			C274.4,277.6,270.9,277.8,267.6,278.2"/>
		<path fill="#FFFFFF" d="M279.5,277.4c2.3,8.7,3.2,21.7,1.4,31.5l5.4,2.8c1.6-4.9,4.4-23.7,2.3-34
			C285.8,277.4,282.7,277.3,279.5,277.4"/>
		<path fill="#FFFFFF" d="M264.6,278.6c-2.4,0.3-4.7,0.7-6.7,1.2c0,1.9,0.1,3.9,0.2,5.8c2.2-0.4,5.3-0.6,8.5-0.7
			C266.4,283.7,265.8,281.6,264.6,278.6"/>
		<path fill="#FFFFFF" d="M271.4,318.8c2.6,1.7,5.1,2.6,5.1,2.6c0.7-2.6,1.4-6,1.9-9.6c-3-1.2-5.1-1.8-6.3-2
			C272.1,313.3,271.8,316.7,271.4,318.8"/>
		<path fill="#FFFFFF" d="M272,297.8c0.2,2.2,0.3,5.7,0.2,9.4c2.3,0.4,4.6,1.1,6.6,1.8c0.4-3.3,0.7-6.8,0.8-10.2
			C277.7,298.2,274.8,297.6,272,297.8"/>
		<path fill="#FFFFFF" d="M279.7,297c0.1-3.2,0-6.3-0.4-9c-5.7-1.2-13.9-0.9-21-0.1c0.2,2.3,0.5,4.5,0.8,6.7
			C266.4,294.6,274,295.5,279.7,297"/>
		<path fill="#FFFFFF" d="M305.8,292.3c1.6-4.9,4.4-23.7,2.3-34c-2.7-0.3-5.8-0.4-9-0.4c2.3,8.7,3.2,21.7,1.4,31.5L305.8,292.3z"/>
		<path fill="#FFFFFF" d="M298.3,265.6c0.1-2.8-0.5-5.7-1-7.6c-3.4,0.1-6.9,0.4-10.2,0.8c0.7,2,1.4,4.4,1.8,6.6
			C292.5,265.3,296,265.4,298.3,265.6"/>
		<path fill="#FFFFFF" d="M277.2,266.2c2.2-0.4,5.5-0.7,9-0.8c-0.2-1.2-0.8-3.3-2-6.3c-3.7,0.5-7,1.2-9.6,1.9
			C274.5,261,275.4,263.6,277.2,266.2"/>
		<path fill="#FFFFFF" d="M264.8,270.7l2.8,5.4c9.8-1.8,22.8-0.9,31.5,1.4c0.1-3.2,0-6.3-0.4-9C288.5,266.3,269.7,269.1,264.8,270.7
			"/>
		<path fill="#FFFFFF" d="M291.5,278.2c0.2,2.2,0.3,5.7,0.2,9.4c2.3,0.4,4.6,1.1,6.6,1.8c0.4-3.3,0.7-6.8,0.8-10.2
			C297.3,278.7,294.3,278.1,291.5,278.2"/>
		<path fill="#FFFFFF" d="M290.9,299.3c2.6,1.7,5.1,2.6,5.1,2.6c0.7-2.6,1.4-6,1.9-9.6c-3-1.2-5.1-1.8-6.3-2
			C291.6,293.8,291.4,297.1,290.9,299.3"/>
		<path fill="#FFFFFF" d="M308.4,245.8c3.6,0,7.1,0.1,9.4,0.2c0.1-2.8-0.5-5.7-1-7.6c-3.4,0.1-6.9,0.4-10.2,0.8
			C307.3,241.2,308,243.6,308.4,245.8"/>
		<path fill="#FFFFFF" d="M318.6,238.4c2.3,8.7,3.2,21.7,1.4,31.5l5.4,2.8c0.2-0.6,0.4-1.5,0.7-2.6v-31.6
			C323.7,238.4,321.2,238.3,318.6,238.4"/>
		<path fill="#FFFFFF" d="M303.7,239.6c-3.7,0.5-7,1.2-9.6,1.9c0,0,0.9,2.6,2.6,5.1c2.2-0.4,5.5-0.7,9-0.8
			C305.4,244.6,304.9,242.6,303.7,239.6"/>
		<path fill="#FFFFFF" d="M284.3,251.2l2.8,5.4c9.8-1.8,22.8-0.9,31.5,1.4c0.1-3.2,0-6.3-0.4-9C308.1,246.7,289.2,249.6,284.3,251.2
			"/>
		<path fill="#FFFFFF" d="M311.2,270.8c-0.1,3.5-0.3,6.8-0.8,9c2.6,1.7,5.1,2.6,5.1,2.6c0.7-2.6,1.4-6,1.9-9.6
			C314.5,271.6,312.4,271.1,311.2,270.8"/>
		<path fill="#FFFFFF" d="M317.9,269.9c0.4-3.3,0.7-6.8,0.8-10.2c-1.9-0.5-4.9-1.1-7.6-1c0.2,2.2,0.3,5.7,0.2,9.4
			C313.5,268.4,315.9,269.2,317.9,269.9"/>
		<path fill="#FFFFFF" d="M313.6,222c0,0,0.9,2.6,2.6,5.1c2.2-0.4,5.5-0.7,9-0.8c-0.2-1.2-0.8-3.3-2-6.3
			C319.5,220.6,316.2,221.2,313.6,222"/>
		<path fill="#FFFFFF" d="M303.9,231.7l2.8,5.4c5.8-1.1,12.8-1.2,19.3-0.6v-7.7C316.9,228.9,307.2,230.6,303.9,231.7"/>
		<path fill="#FFFFFF" d="M326,217v-5.5c-1.1,0.2-1.9,0.5-2.6,0.7L326,217z"/>
		<path fill="#FFFFFF" d="M394.9,160.3c-0.3,0-0.6,0-0.9,0v7.5c0.7,0,1.3,0.1,1.9,0.1C396,165.2,395.4,162.2,394.9,160.3"/>
		<path fill="#FFFFFF" d="M405.7,160.6c-2.7-0.3-5.8-0.4-9-0.4c2.3,8.7,3.2,21.7,1.4,31.5l5.4,2.8
			C405,189.8,407.9,170.9,405.7,160.6"/>
		<path fill="#FFFFFF" d="M396.5,170.8c-0.8-0.2-1.6-0.3-2.5-0.4v8.7c1,0.2,1.9,0.4,2.8,0.6C396.9,176.6,396.8,173.5,396.5,170.8"/>
		<path fill="#FFFFFF" d="M395.6,194.7c-0.6-0.2-1.1-0.4-1.6-0.6v9C394.6,200.7,395.2,197.8,395.6,194.7"/>
		<path fill="#FFFFFF" d="M396.8,181.6c-0.8-0.2-1.7-0.4-2.8-0.6v10.2c0.7,0.2,1.4,0.4,2,0.7C396.4,188.4,396.7,185,396.8,181.6"/>
		<path fill="#FFFFFF" d="M403.3,148.2c-0.2-1.2-0.8-3.3-2-6.3c-2.6,0.4-5.1,0.8-7.3,1.3v5.3c0.1,0.1,0.2,0.3,0.3,0.5
			C396.5,148.6,399.8,148.3,403.3,148.2"/>
		<path fill="#FFFFFF" d="M414.5,140.8c-3.4,0.1-6.9,0.4-10.2,0.8c0.7,2,1.4,4.4,1.8,6.6c3.6,0,7.1,0.1,9.4,0.2
			C415.6,145.7,415,142.7,414.5,140.8"/>
		<path fill="#FFFFFF" d="M425.2,141.1c-2.7-0.3-5.8-0.4-9-0.4c2.3,8.7,3.2,21.7,1.4,31.5l5.4,2.8
			C424.5,170.2,427.4,151.4,425.2,141.1"/>
		<path fill="#FFFFFF" d="M408.7,161.1c0.2,2.2,0.3,5.7,0.2,9.4c2.3,0.4,4.6,1.1,6.6,1.8c0.4-3.3,0.7-6.8,0.8-10.2
			C414.4,161.5,411.4,160.9,408.7,161.1"/>
		<path fill="#FFFFFF" d="M416.4,160.3c0.1-3.2,0-6.3-0.4-9c-5.9-1.3-14.7-0.8-22,0v6.7C401.8,157.8,410.2,158.7,416.4,160.3"/>
		<path fill="#FFFFFF" d="M415.1,175.2c-3-1.2-5.1-1.8-6.3-2c-0.1,3.5-0.3,6.8-0.8,9c2.6,1.7,5.1,2.6,5.1,2.6
			C413.9,182.2,414.6,178.9,415.1,175.2"/>
		<path fill="#FFFFFF" d="M422.8,128.7c-0.2-1.2-0.8-3.3-2-6.3c-3.7,0.5-7,1.2-9.6,1.9c0,0,0.9,2.6,2.6,5.1
			C416,129.1,419.4,128.8,422.8,128.7"/>
		<path fill="#FFFFFF" d="M434.9,128.9c0.1-2.8-0.5-5.7-1-7.6c-3.4,0.1-6.9,0.4-10.2,0.8c0.7,2,1.4,4.4,1.8,6.6
			C429.2,128.6,432.7,128.7,434.9,128.9"/>
		<path fill="#FFFFFF" d="M444.7,121.6c-2.7-0.3-5.8-0.4-9-0.4c2.3,8.7,3.2,21.7,1.4,31.5l5.3,2.8
			C444,150.7,446.9,131.9,444.7,121.6"/>
		<path fill="#FFFFFF" d="M435.9,140.8c0.1-3.2,0-6.3-0.4-9c-10.3-2.2-29.2,0.7-34,2.3l2.8,5.4C414.2,137.6,427.2,138.5,435.9,140.8
			"/>
		<path fill="#FFFFFF" d="M428.4,150.9c2.3,0.4,4.6,1.1,6.6,1.8c0.4-3.3,0.7-6.8,0.8-10.2c-1.9-0.5-4.9-1.1-7.6-1
			C428.4,143.8,428.5,147.3,428.4,150.9"/>
		<path fill="#FFFFFF" d="M434.7,155.7c-3-1.2-5.1-1.8-6.3-2c-0.1,3.5-0.3,6.8-0.8,9c2.6,1.7,5.1,2.6,5.1,2.6
			C433.5,162.7,434.1,159.3,434.7,155.7"/>
		<path fill="#FFFFFF" d="M433.4,110c2.2-0.4,5.5-0.7,9-0.8c-0.1-0.7-0.4-1.6-0.8-2.9h-10.2C431.8,107.3,432.5,108.6,433.4,110"/>
		<path fill="#FFFFFF" d="M454.5,109.4c0.1-1,0-2-0.1-3.1h-9.9c0.2,0.9,0.5,1.9,0.6,2.8C448.7,109.1,452.2,109.2,454.5,109.4"/>
		<path fill="#FFFFFF" d="M456.6,133.2l5.4,2.8c0-0.1,0-0.2,0.1-0.2v-29.5h-5.8C457.7,114.6,458.1,125,456.6,133.2"/>
		<path fill="#FFFFFF" d="M421,114.5l2.8,5.4c9.8-1.8,22.8-0.9,31.5,1.4c0.1-3.2,0-6.3-0.4-9C444.7,110.1,425.9,112.9,421,114.5"/>
		<path fill="#FFFFFF" d="M447.1,143.1c2.6,1.7,5.1,2.6,5.1,2.6c0.7-2.6,1.4-6,1.9-9.6c-3-1.2-5.1-1.8-6.3-2
			C447.8,137.6,447.6,140.9,447.1,143.1"/>
		<path fill="#FFFFFF" d="M447.7,122c0.2,2.2,0.3,5.7,0.2,9.4c2.3,0.4,4.6,1.1,6.6,1.8c0.4-3.3,0.7-6.8,0.8-10.2
			C453.4,122.5,450.5,121.9,447.7,122"/>
	</g>
</g>
</svg>
