<?xml version="1.0" encoding="utf-8"?>
<!-- Generator: Adobe Illustrator 22.0.1, SVG Export Plug-In . SVG Version: 6.00 Build 0)  -->
<svg version="1.1" baseProfile="tiny" id="Layer_1" xmlns="http://www.w3.org/2000/svg" xmlns:xlink="http://www.w3.org/1999/xlink"
	 x="0px" y="0px" viewBox="0 0 487.6 385.5" xml:space="preserve">
<g>
	<g>
		<path fill="#FFFFFF" d="M216.9,5.7L216.9,5.7L216.9,5.7h-34v85h17V68h17l0,0v0c17.2,0,31.2-14,31.2-31.2
			C248.1,19.7,234.1,5.7,216.9,5.7 M216.9,51L216.9,51L216.9,51h-17V22.7h17l0,0v0c7.8,0,14.2,6.4,14.2,14.2S224.7,51,216.9,51
			 M168.7,65.2c0,14.1-11.4,25.5-25.5,25.5v0l0,0h-39.7v-17h39.7l0,0v0c4.7,0,8.5-3.8,8.5-8.5s-3.8-8.5-8.5-8.5v0l0,0h-17
			c-14.1,0-25.5-11.4-25.5-25.5c0-14.1,11.4-25.5,25.5-25.5v0h39.7v17h-39.7c-4.7,0-8.5,3.8-8.5,8.5c0,4.7,3.8,8.5,8.5,8.5h17l0,0v0
			C157.2,39.7,168.7,51.1,168.7,65.2 M486.2,22.7h-25.5v68h-17v-68h-25.5v-17h68V22.7z M296.2,2.8c-18.8,0-34,15.3-34,34h0l0,0v22.7
			l0,0h0c0,18.8,15.3,34,34,34c18.8,0,34-15.3,34-34h0l0,0V36.9l0,0h0C330.3,18.1,315,2.8,296.2,2.8 M313.3,59.5L313.3,59.5
			c0,9.4-7.6,17-17,17s-17-7.6-17-17h0l0,0V36.9l0,0h0c0-9.4,7.6-17,17-17c9.4,0,17,7.6,17,17h0l0,0L313.3,59.5L313.3,59.5z
			 M412.8,90.7l-15.6-27.1c9.1-5.4,15.3-15.4,15.3-26.8c0-17.2-14-31.2-31.2-31.2v0l0,0h-34v85h17V68l0,0h15.8l13.1,22.7H412.8z
			 M381.3,51L381.3,51l-17,0l0,0V22.7l0,0h17l0,0v0c7.8,0,14.2,6.4,14.2,14.2S389.1,51,381.3,51L381.3,51z"/>
		<path fill="#FFFFFF" d="M292.3,110c-2-0.7-3.9-1.5-5.9-2.2h12.6c-1.7,0.7-3.4,1.4-5.1,2.1C293.4,110,292.8,110.1,292.3,110
			 M274.7,110.1c1.6,0.2,3.3,0.3,4.9,0.4c-0.3-0.3-0.6-0.4-0.9-0.5c-3.1-0.5-6.1-1.3-9-2.3h-6.4
			C267.1,108.7,270.9,109.5,274.7,110.1 M268.3,110.9c1.5,0.2,3.1,0.3,4.6,0.5c-1.5-0.4-3.1-0.6-4.6-1.1c-3.2-0.9-6.4-1.8-9.5-2.7
			h-5.6C258.1,109.1,263.1,110.2,268.3,110.9 M269.5,112.5c-4.5-0.7-9.1-1.2-13.5-2.4c-2.5-0.7-5.1-1.5-7.6-2.3h-12.1
			c6.9,2.2,13.9,4,21.1,5c5.3,0.8,10.6,1.1,15.9,1.5l1.1-1.1C272.8,112.9,271.2,112.7,269.5,112.5 M229.5,143.6
			c-0.5-0.2-1-0.4-1.4-0.6c0.1,0.4,0.2,0.5,0.4,0.6c3.5,1.7,7,3.4,10.5,5l0.9-0.9C236.4,146.5,232.9,145.1,229.5,143.6 M79.2,148.1
			l-1.1,1.8c1.6-0.8,3.2-1.6,4.9-2.5C81.7,147.6,80.5,147.9,79.2,148.1 M244.4,127c-4.7-0.1-9.4-0.7-14.1-1.2
			c-2.6-0.3-5.2-0.6-7.8-0.9v3.4c2.8,0.6,5.7,1.2,8.6,1.6c5.6,0.8,11.2,1.8,16.9,2.1c2.5,0.1,5,0.2,7.5,0.2l5-5
			C255.1,127.2,249.8,127.1,244.4,127 M205.5,123.4v-1c-1.2-0.2-2.4-0.4-3.6-0.6c0.6,0.5,1.3,0.8,2,1.1
			C204.4,123,204.9,123.2,205.5,123.4 M129.7,128.4c-0.7,0-1.3-0.1-1.9,0c-6.9,1.6-13.5,4.1-19.8,7.4c-10,5.3-20,10.8-30,16
			c-0.4,0.2-0.9,0.4-1.3,0.7l-1.3,2.1c4.3-2.2,8.7-4.5,12.9-6.9C101.6,140.2,114.9,132.9,129.7,128.4 M236.4,132.3
			c-4.6-0.7-9.3-1.6-13.9-2.5v1c6.8,2,13.5,4,20.4,5.5c2.4,0.5,4.8,0.9,7.2,1.2l3.9-3.9C248.1,133.7,242.2,133.3,236.4,132.3
			 M258.5,119.1c-5.4-0.1-10.6-0.9-15.8-2.1c-6.9-1.6-13.6-3.8-20.1-6.4v3.5c12.1,5.2,24.7,7.9,38.1,7.5c1.9-0.1,3.8-0.2,5.7-0.3
			l3-3C265.7,118.8,262.1,119.1,258.5,119.1 M229.7,154c-2.4-1.8-4.8-3.6-7.2-5.5v3.3c2.9,1.5,5.8,3.1,8.7,4.6l0.9-0.9
			C231.2,155.1,230.5,154.6,229.7,154 M176.8,118.7c10.5,5.8,19.6,13.3,28.4,21.4c0.1,0.1,0.2,0.2,0.3,0.2v-5.2
			c-3.1-2.5-6.3-5.1-9.4-7.6c-4.6-3.6-9-7.4-13.7-10.9c-4.5-3.3-9.3-6.3-14.2-8.9h-7c2.1,1.3,4.2,2.6,6.3,4
			C170.6,113.9,173.4,116.8,176.8,118.7 M55.9,253.7c7.1,3.8,14.6,4.3,22.4,2.4c2.4-0.6,4.8-1.7,7.1-2.6c0-0.2-0.1-0.3-0.1-0.5
			c-0.7,0-1.5,0-2.2-0.1c-5.3-0.6-10.7-0.8-15.9-1.9c-9.3-1.9-18.3-5-26.6-9.5c-4.4-2.4-8.8-4.7-13.3-6.8l-0.5,0.9
			c6.1,3.2,11.8,7.1,17.6,10.8C48.2,248.8,51.8,251.6,55.9,253.7 M86.8,207.9c6.7-2.5,13.1-5.8,19.7-8.8c3.6-1.6,7.1-3.3,11.2-5.2
			c-1.2-0.3-2.1-0.8-2.8-0.7c-1.9,0.3-3.8,0.8-5.7,1.3c-6.2,1.8-11.9,4.8-17.4,8c-10.4,6-21.5,8.6-33.5,8c-4.3-0.2-8.7-0.7-13-1.2
			c-0.9-0.1-1.7-0.2-2.6-0.4l-1.1,1.8c4.8,0.5,9.5,0.8,14.3,1.2C66.5,212.8,76.9,211.6,86.8,207.9 M47.3,250.2
			c-1.9-1.1-3.7-2.5-5.8-3c-5.9-1.3-11.9-0.7-17.8,0.5c-1.7,0.4-3.4,0.8-5,1.3l-3,5c5.5-2.3,11.4-3.8,17.6-4.4
			C38,249,42.7,248.8,47.3,250.2 M205.5,107.7h-3c1,0.6,2,1.3,3,1.9V107.7z M237,120.5c-5-1.2-9.9-2.8-14.6-4.7v2.3
			c5.7,2.3,11.7,4.1,17.7,5.5c4.7,1.1,9.5,2.1,14.2,2.2c2.5,0,5.1-0.1,7.6-0.2l2.7-2.7C255.4,123.5,246.2,122.7,237,120.5
			 M205.5,133.3v-3.4c-3.6-2.9-7.3-5.8-10.9-8.7c-6.1-4.8-12.3-9.5-19-13.4h-4.2c8.2,4.7,16,10.2,23.2,16.5
			C198.2,127.3,201.8,130.3,205.5,133.3 M229,148.4c-2.2-1.7-4.4-3.4-6.6-5.1v3.1c0.6,0.5,1.2,1,1.8,1.5c2.9,2.3,5.8,4.5,8.8,6.5
			l1.8-1.8C233,151.3,231,149.9,229,148.4 M43.8,315.4c1.9-0.5,3.9-1.1,5.8-1.7c0-0.2,0-0.3,0-0.5c-0.9,0-1.8-0.3-2.7-0.1
			c-3.1,0.5-6.3,1-9.3,1.9c-5.1,1.4-10.2,2.9-14.5,6.1c-3.9,2.8-7.9,5.5-11.8,8.4c-3.3,2.4-6.6,4.9-9.8,7.3v2.6
			c6.4-4.6,13-8.9,19.6-13.1C28.1,321.7,35.5,317.5,43.8,315.4 M250.5,113.1c-6.5-1.4-12.8-3.2-19.1-5.3h-8.9v0.9
			c2.5,1.1,5,2.1,7.5,3.1c8,3,16.3,5.1,24.9,5.8c5.5,0.5,10.9,0,16.3-1.1l0.7-0.7C264.7,115.7,257.5,114.6,250.5,113.1 M196.6,119.2
			c1.4,0.1,2.7,0.5,4,0.7c1.6,0.3,3.2,0.6,4.8,0.8v-3.7c-0.8-0.4-1.7-0.7-2.5-1.1c-5.1-2.5-10-5.3-14.9-8.2h-9.3
			c3.9,2.4,7.6,5,11.2,7.7C192,117,193.8,119,196.6,119.2 M27.6,252c-4.6,1.1-9.1,2.3-13.3,4.3l-3.2,5.3c9.2-6,19.2-9.9,30.1-10.3
			C36.9,250.8,32.2,250.9,27.6,252 M34,235.8c-0.7-0.5-1.5-1-2.2-1.5c-1-0.7-2-1.4-3-2.1l-0.7,1.1c2,1,4,2,6,3
			C34.1,236,34.1,235.9,34,235.8 M28.1,242.9c1.2,0,2.4,0,3.6,0c-0.4-0.4-0.9-0.5-1.3-0.5c-2.6-0.1-5.1-0.2-7.7-0.1l-0.6,1.1
			C24.1,243,26.1,242.9,28.1,242.9 M22.6,319.4c6.5-4.4,13.9-6.1,21.5-7.6c-0.9-0.2-1.8-0.5-2.7-0.4c-7,0.7-13.5,2.9-19.6,6.4
			c-4.6,2.7-8.9,5.9-13.3,9c-2.4,1.7-4.9,3.5-7.2,5.4v2.3c0.8-0.6,1.6-1.2,2.4-1.8C10.1,328.3,16.3,323.7,22.6,319.4 M36.2,245.2
			c0-0.2,0-0.3,0-0.5c-1.5-0.1-3-0.3-4.6-0.3c-3.5,0.1-7.2,0-10.6,0.7l-1.2,1.9c4-1,8.2-1.6,12.5-1.8
			C33.6,245.1,34.9,245.2,36.2,245.2 M15.8,303.6c-4.8-2-9.6-3.9-14.4-5.5v2.5c5,0.9,9.9,2,14.8,3.5C16.1,303.8,16,303.7,15.8,303.6
			 M44.1,305.2c2.2,1,4.5,1.8,6.8,2.7c-0.3-0.5-0.6-0.7-1-0.9c-6.7-3.4-13.4-6.8-20.2-10.1c-6.7-3.2-13.3-6.4-20.2-9.3
			c-2.7-1.1-5.4-1.9-8.1-2.4v1.7c2.3,0.5,4.5,1.1,6.7,2.1C20.1,294.5,32.1,299.9,44.1,305.2 M24.4,307.9c-2-0.5-4-1-6-1.5
			c-5.5-1.4-10.9-3.1-16.4-4.1c-0.2,0-0.4-0.1-0.6-0.1v2.4c5.4,1.2,10.7,2.5,16.1,3.8C19.9,309,22.1,310,24.4,307.9 M26.7,313.6
			c1.8-0.7,3.5-1.3,5.3-2c-5.3,0.9-10.4,2.5-15,5.3c-5.6,3.3-10.7,7.3-15.7,11.5v1.9c2.6-2,5.3-4,7.9-6
			C14.8,320.2,20.3,316.1,26.7,313.6 M42.7,309.7c3,0.9,6.1,1.8,9.1,2.7c-0.1-0.4-0.3-0.5-0.5-0.5c-12.5-4.6-25-9.1-37.5-13.7
			c-4.2-1.6-8.3-3.4-12.5-5.1v0.8c1,0.4,1.9,0.8,2.9,1.3C16.7,301,29.6,305.7,42.7,309.7 M32.5,240.8c-0.4-0.2-0.9-0.6-1.5-0.7
			c-2.2-0.3-4.5-0.4-6.7-0.5l-0.7,1.1c0.7,0,1.4,0,2.1,0C28,240.9,30.3,240.8,32.5,240.8 M19,310.9c-0.4-0.4-0.5-0.6-0.7-0.6
			c-5.6-1.4-11.3-2.9-16.9-4.2v1.2c5.1,1.1,10.2,2.6,15.3,3.8C17.3,311.2,18,310.9,19,310.9 M1.4,295.7v0.8c1.9,0.6,3.7,1.2,5.6,1.8
			C5.1,297.4,3.3,296.5,1.4,295.7 M26.2,237.6c-0.2,0-0.5,0-0.7,0l-0.3,0.5c0.6,0,1.3,0,1.9,0C26.8,237.8,26.5,237.7,26.2,237.6
			 M1.5,319.2C1.4,319.3,1.4,319.3,1.5,319.2l-0.1,0.6c0.1-0.1,0.2-0.2,0.3-0.2C1.6,319.5,1.5,319.3,1.5,319.2 M140.4,120.3
			c5.7-0.3,11.4-0.3,17,0c4.3,0.3,8.6,1,12.8,2c7.7,1.9,14.6,5.7,21.4,9.5c1.1,0.6,2.2,1.3,3.4,1.9c-1.4-1.7-2.9-3.2-4.6-4.4
			c-11.7-8.1-23.7-15.7-37.7-19.3c-3.6-0.9-7.2-1.7-10.9-2.4h-38.4l-19.7,32.9c11.5-7.1,23.7-12.6,36.5-16.6
			C126.8,121.9,133.6,120.6,140.4,120.3 M195.7,337c-1.3-0.1-2.6-0.2-3.9-0.3l-5.4,4.3c1.3,0.4,2.6,0.9,4,1.3L195.7,337z
			 M214.2,318.6L194,334.9c1.2,0.1,2.5,0.1,3.7,0.1L214.2,318.6z M178.4,201.9c-2.3,0.7-4.5,1.6-6.7,2.4c0,0.2,0,0.4,0.1,0.6
			c3.5,0.2,7,0.3,10.5,0.4l6.6-6.6C185.4,199.8,181.9,200.8,178.4,201.9 M137.5,202.3c0.5-0.2,1-0.4,1.6-0.6
			c-0.6-0.2-1.1-0.4-1.6-0.5V202.3z M74.2,228c8-1.2,15.6-3.8,22.9-7.2c6.4-3,12.9-6,19.4-9l3.9-6.7c-3.8,1.6-7.6,3.3-11.4,5
			C97.1,215.7,85.1,221,72,223.2c-5.2,0.9-10.5,0.9-15.7,0.4c-4.9-0.4-9.9-1.1-14.8-2.1c-1.9-0.4-3.8-0.8-5.7-1.2l-2.9,4.8
			c5.6,1.9,11.4,2.9,17.4,3.4C58.3,229.1,66.3,229.2,74.2,228 M140.4,237.9c0.3,0.1,0.6,0.1,0.9,0.2c2.4,0.3,4.9,0.5,7.4,0.8
			l0.9-0.9C146.6,237.7,143.5,237.6,140.4,237.9 M141.6,242.4c-1.4,0.1-2.7,0.2-4.1,0.2v2.5c1.6,0.1,3.1,0.2,4.6,0.4l3.1-3.1
			C144,242.3,142.8,242.3,141.6,242.4 M205.5,181.6c-11.9,3.8-23.5,8.2-34.9,13.3c-4.6,2.1-9.1,4.4-13.7,6.6c0,0.1,0.1,0.3,0.1,0.4
			c2.1,0.4,4.2,0.9,6.4,1.3c0.8,0.1,1.7,0,2.4-0.3c10.8-5.4,21.8-10.2,33.1-14.2l6.5-6.5V181.6z M137.5,248.6
			C137.5,248.6,137.5,248.6,137.5,248.6l-0.1,0.8c0.2,0,0.4,0.1,0.7,0.1l0.7-0.7C138.4,248.7,138,248.7,137.5,248.6 M140.4,202.9
			c-1,0.4-2,0.9-2.9,1.3v4.1c2.9-1.4,5.8-2.9,8.7-4.3c-1.2-0.4-2.5-0.9-3.8-1.2C141.7,202.6,140.9,202.6,140.4,202.9 M37.9,231.9
			c5.5,1.4,11.2,2.3,16.9,2.4c6.8,0.1,13.7,0.1,20.2-1.7c9-2.3,17.9-5.1,26.6-8.1c3.2-1.1,6.4-2.4,9.5-3.7l4-6.8
			c-3.9,1.8-7.9,3.6-11.8,5.5c-11.3,5.5-22.8,9.9-35.4,10.6c-8.3,0.5-16.4,0.2-24.6-1c-3.9-0.5-7.6-1.5-11.2-2.7l-1.1,1.9
			c0.5,0.3,1.1,0.7,1.6,1C34.3,230.4,36,231.5,37.9,231.9 M55.1,299.5c-7.1-2.8-14.5-4.8-21.8-7c-5.7-1.7-11.5-3-17.2-4.5
			c0.1,0.4,0.2,0.5,0.4,0.6c6,2.9,12,5.8,17.9,8.8c12.4,6.4,25,12.5,37.9,17.9l5.4-5.4C70.1,306.6,62.7,302.6,55.1,299.5 M205.5,173
			c-15.3,5.3-30,12-44.6,18.9c-4.9,2.3-9.7,4.7-14.9,7.3c0.8,0.3,1.3,0.4,1.7,0.6c2.2,0.8,4,0.4,6.1-0.7
			c10.3-5.4,20.6-10.9,31.2-15.7c6.7-3,13.5-5.8,20.4-8.1V173z M145.5,239.9c-2.7-0.2-5.4-0.2-8-0.1v1.3c0.1,0,0.2,0,0.3,0
			c3-0.2,6-0.3,9-0.1l0.8-0.8C146.8,240,146.1,240,145.5,239.9 M93.2,251.6c-0.9,0.4-1.7,0.8-2.6,1.2C72,261.3,52.9,268.5,33.5,275
			c-4.5,1.5-9,2.9-13.9,4.5c0.8,0,1.2,0,1.5-0.1c3.8-1,7.7-1.9,11.5-3c14.1-3.8,27.9-8.7,41.2-14.9c6.2-2.9,12.3-5.8,18.5-8.5
			L93.2,251.6z M242.8,143.8c-7-1.4-13.8-3.5-20.3-6.5v1c6.1,3.1,12.3,5.9,18.6,8.1l2.5-2.5C243.3,143.9,243.1,143.9,242.8,143.8
			 M230.7,135.1c-2.8-0.8-5.5-1.6-8.2-2.5v3c4.5,2.2,9.2,4,14.1,5.2c2.8,0.7,5.6,1.3,8.4,1.8l3.8-3.8
			C242.7,137.9,236.6,136.7,230.7,135.1 M87.7,261.1l1.1-1.9c-1.4,0-2.7,0-4.1,0c-1.3,0-2.6,0.6-3.8,0.9c0,0.1,0.1,0.3,0.1,0.4
			c2.2,0.2,4.4,0.3,6.6,0.6C87.6,261,87.7,261.1,87.7,261.1 M109.8,223.2c-4.7,1.9-9.4,3.7-14.2,5.2c-5.7,1.8-11.3,3.7-17.1,5.1
			c-4,1-8.1,1.6-12.2,1.8c-5.9,0.3-11.9,0.1-17.8,0c-1.5,0-3-0.3-4.4-0.5c3.1,1.7,6.1,3.6,9.7,3.7c5.8,0.3,11.7,0.4,17.5,0.4
			c1.8,0,3.8,0,5.5-0.5c6.7-1.8,13.5-3.4,20-5.9c3.4-1.3,6.8-2.8,10.1-4.3L109.8,223.2z M148.4,205.1c-2.6,0.8-5.1,1.9-7.5,3.1
			c-1.2,0.6-2.3,1.2-3.5,1.8v3.4c4.6-2.4,9.2-4.8,13.8-7.2c0.2-0.1,0.4-0.3,0.9-0.8C150.6,205.3,149.4,204.8,148.4,205.1
			 M107.4,277.8h-5.1c1.6,0.9,3.1,1.9,4.6,2.9l2-2C108.4,278.4,107.9,278.1,107.4,277.8 M84,267.4c-2.8-0.8-5.7-1.5-8.7-2
			c-2.1-0.4-4.4-1.4-6.6,0.4c4.8,1,9.5,2.2,14.1,3.7L84,267.4z M71.3,205.5c6-0.5,11.7-2.8,17.1-5.4c5.5-2.7,11-5.5,16.4-8.3
			c0.9-0.4,1.8-0.7,2.8-1.2c-1.4-1-2.5-1.5-4-0.9c-4.7,2.2-9.4,4.2-14.1,6.6c-5.3,2.7-10.6,5.1-16.7,5.6c-8.5,0.7-16.9,0.2-25.3-0.7
			c-0.1,0-0.3,0-0.4,0l-2.6,4.3c2.7,0.3,5.4,0.5,8.1,0.4C59,205.9,65.2,206,71.3,205.5 M93.7,159.9c5.7-1.2,10.6-4.2,15.4-7.3
			c9-5.7,18.8-9.7,29.2-12c6.8-1.5,13.6-2.4,20.6-2.9c6.9-0.5,13.7,0,20.5,0.5c2.7,0.2,5.5,0.4,8.2,0.6c0-0.2,0.1-0.3,0.1-0.5
			c-3.5-0.6-7-1.4-10.5-1.9c-5-0.6-10-1-15-1.5c-8.5-0.8-17-0.1-25.3,1.6c-8,1.6-15.6,4.5-22.8,8.4c-6.7,3.7-13.3,7.7-20,11.5
			c-2.2,1.2-4.5,2.2-6.8,3.2c0,0.1,0,0.3,0,0.4C89.4,160,91.7,160.3,93.7,159.9 M137.5,184.6c3.7,0.6,7.4,1.1,11.1,1.2
			c7.9,0.1,15.7-0.9,23.5-2.8c-3,0.2-6,0.4-9,0.5c-8.6,0.4-17.2,0.2-25.6-1.7V184.6z M100,172.9c10.3,3.8,20.5,8.1,31.3,10.5
			c0.5,0.1,1,0.2,1.5,0.3l1.6-2.7c-0.7-0.2-1.5-0.4-2.2-0.7c-7.9-2.6-15.7-5.4-23.6-8.2c-10.9-3.8-22.2-6.2-33.7-7.2
			c-1.9-0.2-3.8-0.2-5.6-0.3l-1.4,2.3c5.5,0.5,10.9,1.4,16.3,2.1C89.6,169.8,94.9,171,100,172.9 M137.5,250.6v0.8c0,0,0,0,0,0
			L137.5,250.6C137.5,250.6,137.5,250.6,137.5,250.6 M86.9,262.3c-2.1-0.2-4.2-0.3-6.3-0.4c0.8,0.4,1.7,0.2,2.5,0.4
			c1.1,0.2,2.3,0.5,3.4,0.7L86.9,262.3z M94.6,289.9c-4.7-4.1-10.5-6.2-16.3-8.4c-8.6-3.3-17.5-5.5-26.5-7.5
			c-2.9-0.6-5.5-0.5-7.9,0.8c5.5,1.4,11.1,2.8,16.7,4.3c10.8,2.8,20.6,7.8,29.3,14.7c0.7,0.6,1.4,1.1,2.1,1.7l4.1-4.1
			C95.7,290.9,95.2,290.4,94.6,289.9 M84.3,277.8h-6.3l1.1-1.9c-5.8-2-11.8-3.5-17.8-5c-3.6-0.9-6.7,0-9.8,1.5
			c0.6,0.2,1.1,0.4,1.6,0.5c9.6,1.8,19,4.5,28.1,8c6,2.3,11.6,5.2,16.4,9.2l2.2-2.2C95.2,283.7,90.2,280.2,84.3,277.8 M137.5,274.2
			C137.5,274.1,137.5,274.1,137.5,274.2l0,3.5h0V274.2z M60.5,217.4c9.4,0.7,18.6-0.8,27.4-4.2c6.2-2.4,12.1-5.6,18-8.6
			c5.4-2.8,10.7-5.8,16.1-8.7c0-0.2-0.1-0.4-0.1-0.6c-1,0.1-2.1-0.2-3,0.2c-4.6,2-9.3,3.9-13.7,6.2c-12,6.2-24.4,11.3-38.2,11.7
			c-6,0.2-12-0.1-18-0.4c-2.7-0.1-5.5-0.4-8.2-0.7l-0.9,1.5c2.1,0.4,4.3,0.9,6.4,1.3C51,215.9,55.7,217,60.5,217.4 M205.5,145.2
			c-2.9-1.3-6-1.4-9-1.7c-6-0.7-12.1-1.1-18.2-1.5c-8.1-0.5-16.1-0.1-24.1,1.1c-5,0.7-10,1.9-14.9,3c-7.8,1.8-15.3,4.2-22.3,8.1
			c-5,2.7-9.4,6.5-15,8.2c1.5,0.4,3.1,0.9,4.4,0.5c4-1.2,8.1-2.4,11.7-4.4c10.6-5.7,21.6-10.4,33.6-12.3c5.8-0.9,11.7-1.7,17.5-2
			c11.1-0.5,22.3,0.1,33.3,1.6c1,0.1,2,0.2,3,0.3V145.2z M75.9,172c8.1,0.1,16.1,0.9,23.6,4.2c6.5,2.9,12.9,6,19.3,9
			c3.6,1.7,7.3,2.9,11,3.7l2.2-3.8c-0.8-0.2-1.7-0.4-2.5-0.6c-9.2-2.1-18-5.4-26.7-9c-8.6-3.5-17.6-5.1-26.8-6.3c-3-0.4-6-0.6-9-0.9
			l-0.9,1.6c1,0.2,2,0.4,3,0.6C71.4,171.1,73.6,171.9,75.9,172 M137.5,190c4.6,0.3,9.3,0.1,14-0.6c3.8-0.6,7.7-1,11.5-1.4
			c3.1-0.4,5.9-1.3,8.5-2.9c-5,0.6-10,1.2-15,1.8c-6.4,0.7-12.7,0.3-19-0.8V190z M153.9,200.9c0.1,0.1,0.1,0.3,0.2,0.4
			c0.3-0.1,0.7-0.3,1-0.4c2.6-1.4,5.1-2.8,7.7-4.1c13.8-6.7,28.1-12.1,42.6-16.8v-3c-1.2,0.4-2.4,0.8-3.5,1.2
			c-16.1,5.9-31.5,13.2-46.4,21.6C155,200.2,154.5,200.6,153.9,200.9 M139.1,176.6c-0.5-0.1-1.1-0.3-1.6-0.5v3.9
			c4.2,1,8.4,1.7,12.8,1.9c10.7,0.7,21.3-0.4,31.8-2c1.7-0.3,3.4-1,5.1-1.5c0-0.1-0.1-0.2-0.1-0.3c-0.2,0-0.3-0.1-0.5-0.1
			c-4.6,0.6-9.1,1.3-13.7,1.8C161.4,181,150.2,179.5,139.1,176.6 M94.9,166.6c9.5,2.1,18.7,5.5,27.9,8.9c4.1,1.5,8.3,2.9,12.5,4
			l2-3.4c-9.9-2.7-19.6-5.7-29.5-8.4c-5.8-1.5-11.7-2.6-17.7-3.6c-4.5-0.8-9-1.2-13.6-1.6c-1.9-0.1-3.9-0.2-5.8-0.2l-0.5,0.8
			c2.4,0.2,4.7,0.4,7,0.7C83.1,164.6,89.1,165.3,94.9,166.6 M126.1,195.3l0.4-0.6c-7.4-2.7-14.6-5.8-21.8-9.1
			c-12.8-5.9-25.7-11.1-39.4-14.2l-1.2,2.1c7,1.4,13.8,3.5,20.4,6C98.3,184.7,112.2,190.1,126.1,195.3 M164.9,204.9
			c-7.5-1.3-14.9-2.9-22.2-5c-1.8-0.5-3.5-1-5.2-1.5v1c12.1,4.3,24.5,8,37.4,9.5c1.3,0.1,2.5,0.2,3.7,0.2l2.1-2.1
			C175.4,206.4,170.1,205.8,164.9,204.9 M101.2,237.9c-1,0.4-2,0.7-3,1.1c-4.4,1.5-8.9,2.8-13.4,3.8c-3.4,0.8-6.9,1-10.3,1.4
			c0,0.2,0,0.3,0,0.5c4.2,0,8.5,0.4,12.7-0.1c3.9-0.5,7.7-1.2,11.5-2.3L101.2,237.9z M156.2,209.2c-6.2,3.4-12.5,6.7-18.7,10.1v3.5
			c7.8-4.7,15.5-9.5,23.2-14.2c0.1-0.1,0.2-0.2,0.5-0.7c-1.1,0.1-1.8,0.1-2.5,0.3C157.8,208.4,156.9,208.7,156.2,209.2 M94.3,278.1
			c-0.3-0.1-0.5-0.2-0.8-0.3h-5.3c4.8,2.3,8.9,5.4,12.7,8.9l2.9-2.9C100.9,281.6,97.8,279.6,94.3,278.1 M60.3,269.2
			c1.5,0.4,3,0.7,4.5,1c5.1,1.1,10.1,2.5,15,4.2l0.9-1.5c-5.1-1.7-10.3-3.1-15.6-4.2C63.6,268.5,61.8,267.7,60.3,269.2 M133.3,133.3
			c-8.8,2.1-17.1,5.6-25.1,9.7c-7.7,4-15.3,8.3-22.9,12.4c-2.1,1.1-4.3,2-6.4,3c0,0.2,0.1,0.4,0.1,0.6c2.1-0.2,4.3-0.1,6.3-0.6
			c2.2-0.6,4.4-1.5,6.4-2.7c6.7-3.7,13.3-7.7,20-11.4c10.7-6,22.2-9.8,34.4-10.7c6.5-0.5,13.2-0.2,19.7,0c3.3,0.1,6.6,0.7,9.9,1.2
			c2.3,0.3,4.6,0.6,6.9,1c0-0.1,0-0.1,0-0.2c-0.4-0.2-0.8-0.4-1.1-0.5c-9-2.8-18.2-4.2-27.7-4C147,131.1,140.1,131.7,133.3,133.3
			 M153.3,207.1c-5.3,2.7-10.6,5.5-15.8,8.2v2c4.9-2.7,9.8-5.4,14.7-8c1.4-0.8,2.9-1.4,4.4-2.1c0-0.2-0.1-0.4-0.1-0.6
			C155.4,206.7,154.2,206.6,153.3,207.1 M105.4,230.6c-2.8,1.2-5.5,2.4-8.3,3.5c-11,4.5-22.4,7.3-34.5,6.4c-1-0.1-2.1,0-3.1,0
			c0,0.2-0.1,0.3-0.1,0.5c2.4,0.5,4.8,1.4,7.2,1.5c4.1,0.1,8.2,0,12.2-0.5c4.3-0.5,8.7-1.2,12.9-2.5c3.7-1.1,7.3-2.5,10.9-3.9
			L105.4,230.6z M75.3,304.5c-10.4-5.6-21.1-10.3-32.6-13c-8.1-2-16.2-4.4-24.3-6.4c-3.6-0.9-7.1-2.7-11-1.4c-0.8,0.3-1.7,0.3-3,0.6
			c2.2,0.4,4,0.6,5.7,1.1c7.6,1.8,15.3,3.7,22.9,5.6c13.5,3.3,26.5,8.1,38.9,14.6c2.2,1.2,4.4,2.3,6.7,3.4l1.7-1.7
			C78.7,306.4,77,305.4,75.3,304.5 M61.1,316.7c-1.5-0.4-3.1-1-4.4-0.7c-4.1,1-8.2,2.4-12.2,3.8c-3.4,1.2-6.7,2.8-10,4.3
			c0,0.1,0.1,0.2,0.1,0.3c2.3,0,4.6-0.1,6.9,0c4.3,0.2,8.7,0.5,13,0.8c1.6,0.1,3.3,0.7,4.7,0.3c1.3-0.3,2.5-0.7,3.8-1l5.8-5.8
			C66.4,318,63.7,317.4,61.1,316.7 M137.5,224.3v4.8c2.4-1.8,4.8-3.7,7-5.7c5.1-4.6,10.9-8.5,17.2-11.3c2.1-0.9,4.3-1.6,6.6-2.5
			c-2.6-0.7-4.9-1.1-7.3,0.5c-2.6,1.8-5.4,3.1-8.1,4.7C147.8,218,142.6,221.1,137.5,224.3 M97.6,244.2c-0.8,0.2-1.6,0.4-2.4,0.6
			c0.1,0.2,0.1,0.5,0.2,0.7c0.6-0.1,1.1-0.2,1.7-0.3L97.6,244.2z M112,129.7c0,0.2,0.1,0.3,0.1,0.5c7.8-2,15.6-3.7,23.6-4
			c7-0.2,14,0.5,20.9,1.7c3.5,0.6,7,1.3,10.4,2c3.9,0.8,7.9,1.2,11.6,2.5c6.6,2.2,13,4.8,19.4,7.4c2.5,1,4.9,2.2,7.4,3.3
			c0-0.4-0.1-0.5-0.3-0.6c-14.9-8.8-30.5-15.9-47.9-18c-5.8-0.7-11.8-0.6-17.6-0.3c-5.2,0.3-10.3,1.1-15.4,2.1
			C120.1,127.1,116.1,128.5,112,129.7 M47.1,285.4c-6.5-1.5-13.1-2.9-19.6-4.3c-2.1-0.4-4.2-1.1-6.4-0.2c-0.8,0.3-1.7,0.4-2.8,0.6
			c3,0.5,5.7,0.9,8.5,1.5c6,1.4,12,2.8,18,4.3c8.9,2.3,17.6,5.1,25.9,9.2c4.5,2.3,9,4.5,13.6,6.8l1.6-1.6
			C74,293.8,61,288.5,47.1,285.4 M46,328.8c-4.8-0.4-9.4-0.2-14.1,0.5c-4.2,0.6-8.4,1.5-12.6,2.3c-4.3,0.8-7.9,3-11.5,5.4
			c11.6-4.1,23.4-5.4,35.6-4.3c3.4,0.3,6.8,0.8,10.1,1.5l3.3-3.3C53.2,329.9,49.7,329.2,46,328.8 M165.4,216.7
			c-4.5-1.1-6.9,1.9-10.1,3.7c3.1,0.2,6.1-0.1,9.1,0.3c0.7,0.1,1.5,0.2,2.2,0.4l3.2-3.2C168.3,217.4,166.9,217.1,165.4,216.7
			 M165.7,214.9c1.8,0.6,3.6,1.1,5.4,1.7l2.7-2.7C171,213.4,168.4,214.2,165.7,214.9 M27.2,259.1c8-3.8,16-7.1,25.1-5.1
			c-0.1-0.1-0.2-0.2-0.2-0.2c-5.7-1.6-11.6-1.3-17.3-0.3c-7.4,1.4-14.4,4.1-20.6,8.2c-1.8,1.2-3.5,2.4-5.3,3.7l-4.4,7.3
			c1.2-0.6,2.5-1.3,3.7-2C14.5,267,20.4,262.4,27.2,259.1 M24.3,265.1c9.7-7.2,20.4-9.5,32.2-6.8c1.9,0.4,3.9,0.5,5.9,0.8
			c-2.2-0.8-4.3-1.4-6.5-2.2c-5.1-1.8-10.3-2.6-15.7-1.2c-8.5,2.3-16.2,6.4-23.5,11.3c-4.6,3.1-9.2,6.2-14.1,8.8l-1.2,2v1.7
			c2.6-1,5.2-2.3,7.6-3.8C14.2,272.3,19.4,268.8,24.3,265.1 M102.8,160c3.7-1.7,7.2-3.7,10.7-5.8c11.8-7.1,25-10.1,38.4-12.3
			c5.9-0.9,11.9-1.3,17.9-1.4c7-0.1,14,0.5,21,0.8c2.8,0.1,5.5,0.5,8.3,0.8c-0.4-0.3-0.9-0.5-1.4-0.6c-3.8-0.5-7.7-1-11.5-1.4
			c-5.5-0.5-11-1-16.5-1.2c-10.2-0.3-20.3,0.7-30.3,3c-8.6,2-16.8,4.9-24.6,9.2c-6.2,3.4-11.8,7.8-18.8,9.8c0.1,0.2,0.1,0.4,0.2,0.6
			C98.4,161,100.7,160.9,102.8,160 M153,379.8h2.6c0.1,0,0.2-0.1,0.3-0.1h-2.6L153,379.8z M75.5,157.9c3.4-1.4,6.8-2.7,10-4.4
			c8.6-4.4,16.9-9.2,25.5-13.6c14.1-7,28.9-11,44.8-10.5c-2-0.3-4-0.7-6-0.9c-6.3-0.6-12.7-0.1-18.8,1.3c-4.7,1.1-9.3,3-13.9,4.9
			c-11.5,4.7-22.2,11-33,17.1c-3.6,2-7.2,3.9-10.7,5.9l-0.2,0.4l0,0C74,158.1,74.8,158.1,75.5,157.9 M13.1,278.4
			c6-4,12.1-7.8,18.1-11.8c6.9-4.6,14.3-7.2,22.8-6.1c2.4,0.3,4.9,0.1,7.3,0.1c-4.3-0.7-8.6-1.5-13-1.8c-2.7-0.2-5.4,0.1-8,0.5
			c-4.7,0.8-8.8,3-12.7,5.6c-4.3,2.9-8.4,5.9-12.6,8.9c-4.3,3-8.8,5.4-13.6,7.3v1.5c0.1,0,0.1,0,0.2,0
			C5.6,281.8,9.6,280.8,13.1,278.4 M54.6,222c6.5,0.8,12.9,0.7,19.3-0.6c8.1-1.7,15.9-4.3,23.4-7.6c8.1-3.6,16.2-7.3,24.4-10.9
			l3.5-6c-0.8-0.2-1.5,0-2.3,0.5c-3.3,2.2-6.5,4.4-9.9,6.3c-6.7,3.9-13.3,8-20.3,11.3c-8.2,3.8-17.1,5.6-26.2,6.4
			c-6.2,0.6-12.5,0.5-18.5-0.7c-3.6-0.7-7.2-1.6-10.7-2.6l-0.6,1.1c1.6,0.4,3.2,0.7,4.8,1C45.8,220.9,50.2,221.4,54.6,222 M82,270.8
			c-3.4-1.1-6.9-2.1-10.4-2.9c-1.9-0.4-3.8-0.7-5.7-1c0,0.2,0,0.4-0.1,0.6c0.7,0.1,1.3,0.2,2,0.4c4.5,1.4,9,2.7,13.6,4.1L82,270.8z
			 M100.3,278.5c-0.5-0.3-1-0.5-1.4-0.7h-1.5c2.7,1.4,5.2,3,7.6,4.8l0.7-0.7C104,280.7,102.2,279.5,100.3,278.5 M172.4,201.5
			c-1,0.5-2,1-3.1,1.6c0.4,0.1,0.8,0,1.1-0.1c7.8-3.4,15.6-6.5,23.6-9.3l2.3-2.3C188.2,194.3,180.3,197.8,172.4,201.5 M137.5,352.7
			v2.3c0,0,0,0,0,0L137.5,352.7C137.5,352.7,137.5,352.7,137.5,352.7 M77.6,192.4c5.9-1.8,11.7-4.1,17.1-7c0-0.2,0-0.3-0.1-0.5
			c-0.7,0.1-1.5,0-2.2,0.2c-3,1.3-5.8,2.8-8.8,4c-5,2.1-10.1,4-15.6,3.9c-3.3-0.1-6.7-0.4-9.9-0.9c-1.6-0.3-3.2-0.6-4.8-0.9
			l-0.8,1.4c1.7,0.2,3.5,0.4,5.2,0.7C64.4,194.3,71,194.4,77.6,192.4 M71.9,196.2c4.5-0.6,9-2,13.3-3.4c4.7-1.5,9.3-3.5,14.3-5.4
			c-1.4-0.9-2.1-1.4-3.5-0.8c-4.3,2-8.6,4.2-13,5.8c-6.4,2.4-12.9,3.9-19.9,3c-3.8-0.5-7.7-0.7-11.5-1.2l-0.7,1.1
			c2.7,0.4,5.5,0.7,8.2,0.9C63.4,196.4,67.7,196.7,71.9,196.2 M79,302.8c-11.1-6.2-22.7-11-35.1-13.9c-6.6-1.6-13.1-3.2-19.7-4.7
			c-1.6-0.4-3.3-0.6-5-0.8c0.1,0.3,0.2,0.4,0.3,0.5c7.3,1.9,14.7,3.9,22,5.8c11.1,2.8,21.7,6.7,31.9,12.1c2.7,1.5,5.4,2.9,8.1,4.3
			l1.2-1.2C81.5,304.2,80.2,303.5,79,302.8 M61.1,286.3c-8-2.3-16-4.4-24.1-6.4c-2.9-0.7-6-2.1-9.2-0.3c0.3,0.1,0.5,0.3,0.8,0.3
			c8,1.8,16,3.4,23.9,5.3c12.4,3,23.9,8.2,34.5,15.5l1.5-1.5C80,293.6,71,289.1,61.1,286.3 M137.5,246.6v0.6
			c0.5,0.1,1.1,0.1,1.6,0.2c0.4,0,0.7,0.1,1.1,0.1l0.6-0.6C139.6,246.8,138.5,246.7,137.5,246.6 M95.7,247.3
			c-9.4,0.7-18.9,1.2-28.4-0.6c-10.8-2.1-20.9-6.5-30.7-11.3c2,1.4,3.9,2.8,6,3.8c3.2,1.6,6.4,3.2,9.8,4.5c11,4.4,22.5,6.7,34.3,7.7
			c1.1,0.1,2.3,0.2,3.3-0.2c1.5-0.6,3-1.2,4.5-1.8L95.7,247.3z M47.9,309c0.1-0.1,0.1-0.2,0.2-0.4c-0.3-0.1-0.5-0.2-0.8-0.4
			c-10.6-4.7-21.3-9.4-31.9-14c-4.3-1.9-8.4-4-12.9-5.3c-0.3-0.1-0.7-0.2-1-0.3v2.7c11.1,4.3,22.3,8.7,33.4,13
			C39.1,306,43.5,307.4,47.9,309 M165.6,357.9l-1.9,1.5c0.2,0.1,0.4,0.2,0.6,0.3c2.2,0.9,4.4,1.5,6.7,2.1l1.1-1.1
			C169.8,360,167.6,359,165.6,357.9 M181.2,351.6c-1.5-0.8-3.1-1.7-4.6-2.5l-1.8,1.5c1.6,0.9,3.2,1.8,4.8,2.7L181.2,351.6z
			 M175.2,357.5c-1.9-0.9-3.7-1.9-5.5-2.9l-2.7,2.2c2,1.1,4.1,2,6.2,2.7L175.2,357.5z M178.2,354.5c-1.7-0.9-3.3-1.9-5-2.8l-2.2,1.8
			c1.8,1,3.6,1.9,5.4,2.8L178.2,354.5z M205.5,147.5c-0.5-0.1-1-0.1-1.4-0.2c-5.2-0.5-10.4-1-15.7-1.4c-11.6-0.9-23.2-0.6-34.7,1.3
			c-7.9,1.3-15.5,3.5-22.9,6.7c-3.9,1.7-7.7,3.7-11.5,5.6c0.1,0.1,0.1,0.3,0.2,0.4c0.4-0.2,0.9-0.3,1.3-0.5c4.4-1.9,8.7-4,13.2-5.7
			c9.8-3.7,20.1-5.6,30.5-6.7c10.1-1,20.3-0.4,30.4,0.6c3.6,0.3,7.1,0.9,10.6,1.4V147.5z M147.8,226.5c-1.3,0.3-2.6,1-3.9,1.5
			c0.1,0.2,0.1,0.3,0.2,0.5c0.8,0,1.7,0,2.5-0.1c4.1-0.6,8.1-0.2,12,0.6l2.4-2.4C156.7,225.6,152.3,225.4,147.8,226.5 M154.8,232.3
			c-5.6-0.7-11.2-0.3-16.8,0.9c-0.2,0-0.4,0.1-0.6,0.1v0.8c0.4,0,0.7,0,1.1-0.1c5.1-0.5,10.1-0.6,15.1-0.1l1.6-1.6
			C155.1,232.3,155,232.3,154.8,232.3 M73.5,198.1c3.1-0.4,6.2-1.5,9.3-2.2c-0.1-0.2-0.1-0.4-0.2-0.6c-0.2,0-0.4,0.1-0.6,0.1
			c-4,0.8-7.9,2.1-11.9,2.4c-6.7,0.5-13.4-0.2-20-1.1l-0.6,1c0.2,0,0.4,0,0.6,0.1C57.9,198.5,65.7,199.1,73.5,198.1 M71.5,191.3
			c6.6-1.1,12.7-3.7,18.7-6.8c0.3-0.2,0.6-0.4,0.9-0.6c-0.1-0.1-0.1-0.2-0.2-0.4c-0.4,0.1-0.8,0.2-1.2,0.4c-2.3,0.9-4.5,1.9-6.8,2.7
			c-5.7,2-11.5,3.8-17.6,3.3c-3.4-0.3-6.8-0.8-10.2-1.4l-0.9,1.4c2.7,0.5,5.4,1,8.2,1.4C65.3,191.7,68.5,191.8,71.5,191.3
			 M151.8,370.3c5.4-2.9,10.6-6.2,17-7.3c-1.6-0.5-2.9-1.1-4.3-1.4c-0.5-0.1-1.2,0-1.6,0.3c-4.5,3-8.8,6.4-13.4,9.1
			c-0.2,0.1-0.4,0.2-0.6,0.3l-1.4,1.1C149,371.8,150.4,371.1,151.8,370.3 M153.3,222.2c-1.6,0.2-3,0.9-4.2,2.5
			c4.7-0.6,9.1-0.3,13.3,0.6l2.9-2.9C161.4,221.5,157.4,221.6,153.3,222.2 M101.1,164.7c7.4,1.6,14.8,3.5,22.1,5.5
			c10.4,2.9,20.6,6.8,31.6,7.8c5.6,0.5,11.3,0.7,17,1c0-0.1,0-0.1,0-0.2c-5.1-0.4-10.2-0.6-15.2-1.2c-4.1-0.5-8.2-1.3-12.2-2.4
			c-6.8-1.8-13.5-4-20.3-5.9c-5.5-1.5-11.1-3-16.7-4.3c-4.7-1.1-9.5-1.9-14.3-2.8c-4.6-0.8-9.2-1.5-13.8-2.1
			c-2.3-0.3-4.5-0.4-6.8-0.5l-0.7,1.2c4.2,0.2,8.5,0.4,12.6,0.9C89.9,162.4,95.5,163.5,101.1,164.7 M118.9,165.1
			c3.3-0.6,6.6-1.1,9.8-2c4.9-1.3,9.7-3.1,14.6-4c6.8-1.3,13.7-1.9,20.6-2.8c7.9-1,15.9-0.9,23.9-0.8c2.9,0,5.9,0.3,8.8,0.4
			c-0.3-0.4-0.6-0.4-0.9-0.4c-4.7-0.3-9.3-0.4-14-0.8c-8.5-0.7-16.9-0.8-25.4,0.4c-7,1-13.9,2.7-20.6,4.8c-4.3,1.3-8.6,2.6-12.9,3.8
			c-1.9,0.5-3.8,0.7-5.7,1.1c0,0.1,0,0.2,0,0.3C117.7,165.1,118.3,165.2,118.9,165.1 M128.9,190.4c-4.4-1-8.6-2.7-12.8-4.6
			c-6.3-2.9-12.5-5.9-18.9-8.7c-5.4-2.4-11.1-3.3-16.9-3.3c1.4,0.6,2.7,1.1,4.2,1.4c3.8,1,7.8,1.6,11.4,3
			c8.6,3.4,17.1,7.4,25.7,10.8c2.2,0.9,4.5,1.6,6.7,2.2L128.9,190.4z M137.5,192.8c1.8,0.1,3.6,0.1,5.4,0c1.5-0.1,3-0.2,4.4-0.4
			c2.7-0.4,5.4-1,8.1-1.4c0-0.1,0-0.2,0-0.3c-4.2,0.3-8.4,0.7-12.7,0.8c-1.7,0-3.5,0.1-5.2,0V192.8z M63.8,262.3
			c-4.7-0.2-9.1-0.4-13.5-0.5c-4.2-0.1-8.2,0.6-11.9,2.8c-5.5,3.3-11,6.7-16.5,10.1c-1.9,1.2-3.8,2.5-5.6,3.7
			c0.1,0.1,0.1,0.3,0.2,0.4c2-0.6,4.3-0.9,6.1-2c4.8-3,9.5-6.1,14.1-9.4c2.9-2.1,6-3.4,9.5-3.6c3.4-0.2,6.8,0.1,10.2,0.3
			C58.9,264.3,61.2,263.4,63.8,262.3 M72,188c5.6-1.1,10.8-3,16-5.2c0-0.2-0.1-0.3-0.1-0.5c-0.6,0.1-1.3,0-1.9,0.2
			c-2.8,1-5.5,2.2-8.3,3.2c-5.5,1.9-11.1,2.7-16.9,1.4c-1.5-0.3-3-0.7-4.5-1.1l-0.6,1c0.1,0,0.3,0.1,0.4,0.1
			C61.4,188.2,66.6,189,72,188 M77.9,206.8c4.3-1.4,8.4-3.5,12.6-5.2c-0.1-0.1-0.1-0.3-0.2-0.4c-0.1,0-0.2-0.1-0.3-0.1
			c-0.4,0.2-0.9,0.4-1.3,0.6c-7.6,3.7-15.6,5.6-24,5.8c-7,0.2-13.9,0-20.8-0.7l-0.4,0.7c3.4,0.4,6.9,0.8,10.3,1.1
			C62,209.6,70.1,209.4,77.9,206.8 M163.6,176.2c3.2-1,6.4-2.3,9.2-4c6.4-3.8,12.5-7.9,18.8-11.9c-0.1-0.1-0.1-0.3-0.2-0.4
			c-11.8,4.3-22,12.2-34,16.3C159.5,176.3,161.7,176.8,163.6,176.2 M185,347.8c-1.3-0.8-2.7-1.5-4-2.3l-0.9,0.7
			c1.4,0.7,2.8,1.5,4.2,2.2L185,347.8z M137.5,235.6v1c4.5-0.3,9-0.3,13.4,0.2l1.4-1.4C147.4,234.9,142.4,235.1,137.5,235.6
			 M145.8,151.7c-2.7,0.7-5.4,1.6-8,2.4c0,0.2,0.1,0.4,0.1,0.6c20.8-4.9,41.8-4.5,62.9-2.9c-2.1-0.3-4.3-0.8-6.4-1
			c-7.1-0.6-14.2-1.2-21.3-1.4C163.9,149.1,154.8,149.5,145.8,151.7 M79.6,217.4c-3.5,0.5-7.1,1.2-10.6,1.3
			c-4.6,0.1-9.2-0.1-13.8-0.5c-3.3-0.3-6.6-1.2-10-1.9c-2.1-0.4-4.1-0.9-6.2-1.3l-1.1,1.8C51.5,220.5,65.3,221.6,79.6,217.4
			 M154.9,373.1c-3.9,2.7-8,5.1-12.4,6.8h2.7c4.4-2.3,8.6-4.8,12.9-7.2c1.4-0.8,2.9-1.5,4.3-2.2l2.9-2.9
			C161.5,368.9,158.1,370.9,154.9,373.1 M131.2,169.4c6-1.3,12.1-2.3,17.8-4.1c8.8-2.8,17.5-5.9,26.7-7.4
			c-16.3,1.3-31.6,6.9-47.4,10.9C129.3,169.1,130.4,169.6,131.2,169.4 M129.1,166.7c7.8-2.1,15.5-4.3,23.3-6.3
			c3.7-1,7.5-1.7,11.2-2.6c0,0,0-0.1,0-0.1c-1.8,0.2-3.6,0.3-5.4,0.6c-4.5,0.6-9,1.1-13.5,2c-4.6,1-9.1,2.5-13.7,3.7
			c-3.5,0.9-7.1,1.7-10.5,2.5C122.8,167.6,125.5,167.7,129.1,166.7 M146.9,173.3c3.9-0.9,7.9-1.9,11.6-3.4
			c6.8-2.7,13.4-5.8,20.1-8.7c-0.1-0.2-0.1-0.4-0.2-0.6c-12.2,4.1-24.4,8.1-36.6,12.2c0,0.1,0,0.3,0,0.4
			C143.5,173.3,145.3,173.7,146.9,173.3 M52.5,328.2c0.3,0,0.6,0,0.9,0.1c1.5,0.4,3,0.9,4.5,1.4l0.7-0.7
			C56.6,328.6,54.6,328.3,52.5,328.2 M84.4,345.8h2.1c0,0-0.1-0.1-0.1-0.1h-2.1C84.3,345.7,84.3,345.8,84.4,345.8 M138.6,171.6
			c3.7-0.7,7.3-1.7,10.8-2.9c7.2-2.3,14.3-4.9,21.5-7.3c2.1-0.7,4.2-1.2,6.3-1.8c-0.3-0.3-0.6-0.3-0.8-0.2c-0.3,0-0.5,0.2-0.8,0.2
			c-6.5,1-12.8,2.7-19,4.8c-4.9,1.7-9.9,3.1-14.9,4.6c-2.3,0.7-4.7,1.1-7.1,1.6c0,0.1,0,0.2,0,0.3
			C136,171.1,137.4,171.8,138.6,171.6 M38.8,267.8c-2.4,1.7-4.7,3.5-7,5.2c-0.4,0.3-0.8,0.6-1.3,0.9c0.1,0.1,0.1,0.2,0.2,0.3
			c8.1-2.9,16.2-5.8,24.3-8.7c0-0.1,0-0.2-0.1-0.3c-1.5-0.1-3.1-0.1-4.6-0.2C46.3,264.8,42.3,265.4,38.8,267.8 M175.8,176.5
			c1.3-0.1,2.7-0.2,4-0.4c3.2-0.3,6-1.2,7.9-4c2.3-3.4,4.4-6.8,6.7-10.1c-0.1-0.1-0.1-0.2-0.2-0.3
			C188.1,166.6,182,171.5,175.8,176.5 M124.9,192.4c0.8,0.3,1.6,0.5,2.4,0.8l0.2-0.4c-1-0.3-2.1-0.6-3.1-0.9
			C124.6,192.1,124.7,192.3,124.9,192.4 M137.5,196.6c1.1,0.4,2.2,0.8,3.3,1.2c2.1,0.8,3.7,0.6,5.6-0.5c2.9-1.6,5.9-3,8.9-4.5
			c-6,1.3-12,1.9-17.9,1.6V196.6z M155.2,174.9c4.3-1.7,8.7-3.3,12.8-5.4c5.4-2.6,10.7-5.6,16.1-8.5c-11.9,4-22.7,10.7-35,13.6
			C152,175.6,152.8,175.8,155.2,174.9 M184.7,130.3c-13.4-8.7-35.4-11.7-58.4-6.2C146.4,120.6,165.9,121.8,184.7,130.3 M227.7,159.9
			L227.7,159.9c-0.3-0.2-0.9,0.1-1.2,0.4c-1.3,0.9-2.7,1.8-4,2.8v3.1c0,0,0,0,0.1,0v-1.1L227.7,159.9z M28.5,310.7
			c2.2-0.5,4.4-1,6.5-1.6c0-0.2,0-0.3,0-0.5c-1.7-0.1-3.4-0.4-5.1-0.2c-5,0.6-9.6,2.7-13.6,5.7c-5.1,3.8-10,7.6-15,11.6v0.8
			c2.2-1.8,4.4-3.6,6.7-5.4C14.1,316.2,20.8,312.5,28.5,310.7 M223.8,157.7c-0.5-0.4-0.9-0.5-1.3-0.3v3.7c1.1-0.7,2.2-1.5,3.2-2.3
			C225,158.4,224.3,158.2,223.8,157.7 M205.5,169.3c-0.9,0.5-1.8,0.9-2.8,1.3c-3.9,1.8-7.9,3.2-12.1,5c5.2-1.3,10.1-3.1,14.9-5.1
			V169.3z M128.8,160.5c6.5-2,13-3.8,19.6-5.6c1.9-0.5,3.8-0.8,5.7-1.2c-13.6,1.5-27.1,4-39.3,9.6C119.3,163,124.1,162,128.8,160.5
			 M183.1,349.6c-1.5-0.8-3-1.6-4.4-2.3l-0.8,0.6c1.5,0.8,3,1.6,4.5,2.4L183.1,349.6z M188.3,174.4c1.5-0.5,3-1,4.4-1.3
			c1.7-0.4,2.7-1.5,3.2-3.2c0.8-3,1.7-6.1,2.5-9.1C195.9,162.7,189.6,171.1,188.3,174.4 M54.1,314.9c-0.1-0.2-0.1-0.3-0.2-0.5
			c-10.3,2.1-20.2,5.4-29.2,11.6c1.5-0.3,2.7-0.4,3.9-0.8c1.2-0.4,2.4-1.1,3.6-1.6c4.5-2,9-4,13.5-5.8
			C48.4,316.7,51.3,315.9,54.1,314.9 M137.5,378.6C137.5,378.6,137.5,378.6,137.5,378.6l0,1.2h0.2c0.1,0,0.3-0.1,0.4-0.1h-0.6V378.6
			z M157.4,369.5c0.1-0.1,0.1-0.2,0.1-0.3c-1.7,0.9-3.4,1.8-5.1,2.7c-3.5,2-7,3.9-10.7,5.3l-2.7,2.2
			C145.7,377.2,151.6,373.3,157.4,369.5 M157.6,369.1C157.6,369.1,157.6,369.2,157.6,369.1C157.6,369.2,157.6,369.2,157.6,369.1
			L157.6,369.1z M205.5,153.7c-15.2-1.5-45.8-1.8-49.5-0.2c9.6-1.4,19.1-0.8,28.7-0.3c6.9,0.4,13.9,0.8,20.8,1.2V153.7z M74.4,200.3
			c3.8-0.2,7.2-1.7,10.5-3.6c-0.3,0-0.5,0-0.7,0.1c-4.1,1.5-8.2,2.6-12.6,3c-7.7,0.7-15.3-0.1-23-0.7l-0.4,0.6
			c3.4,0.4,6.7,0.9,10.1,0.9C63.7,200.8,69,200.6,74.4,200.3 M144.5,230c-1.4,0.2-2.7,0.5-4.1,0.7c0,0.2,0,0.4,0,0.6
			c5.6-1,10.9-1,16.1-0.2l0.7-0.7C153.1,229.6,148.9,229.3,144.5,230 M152.1,378.4c1.5-0.8,3.1-1.6,4.6-2.4l2.3-2.3
			C156.1,375.2,153.7,376.8,152.1,378.4 M200.9,160.5c-2.5,3-2.6,7-3.8,10.9c2-0.9,3.8-1.7,5.3-2.3
			C201.9,166.1,201.4,163.3,200.9,160.5 M222.5,154.1v1.1c2.2,1.1,4.4,2.3,6.5,3.4l0.8-0.8C227.4,156.6,224.9,155.3,222.5,154.1
			 M59.3,181.3C59.3,181.3,59.3,181.3,59.3,181.3l-0.5,0.8c1.6,0.6,3.4,1,5.2,1.2C62.4,182.6,60.8,182.1,59.3,181.3 M167.6,177.1
			c7.2-0.5,11.8-5.7,16.9-10C178.9,170.5,173.2,173.8,167.6,177.1 M1.4,308.8v1c4.7,0.9,9.4,1.9,14.2,2.8
			C13.5,311.5,7.5,310,1.4,308.8 M1.4,322.1v1.4c2.3-1.9,4.7-3.8,7-5.7C6,319.1,3.6,320.5,1.4,322.1 M57.9,183.5l-0.3,0.4
			c1.1,0.3,2.3,0.7,3.4,1C60.1,184.4,59,184,57.9,183.5 M78.8,181c-5.7-1.4-11.1-2.9-16.3-5.2l-0.3,0.5
			C67.9,179.3,75.9,181.7,78.8,181 M205.5,156c-2.2-0.1-4.5-0.2-6.7-0.3c0,0.1,0,0.2,0,0.4c0.3,0,0.5,0.1,0.8,0.1l5.9,0.5V156z
			 M105.4,134.5c-6.1,1.7-11.4,4.9-16.8,8c0.1,0.2,0.2,0.4,0.3,0.6C94.5,140.2,99.9,137.3,105.4,134.5 M205.5,166.1
			c-1.7-2.5-2.2-5.2-1.3-8.2c-2,0.8-1.8,7,0.2,10.1c0.4-0.2,0.7-0.4,1.1-0.6V166.1z M13.1,314.6c0-0.2,0-0.5,0-0.7
			c-3.9-0.9-7.8-1.8-11.7-2.6v0.6c3.2,1,6.4,2,9.6,2.9C11.6,315,12.4,314.7,13.1,314.6 M60.5,179.4l-0.3,0.5c1.1,0.5,2.3,1,3.5,1.3
			C62.6,180.6,61.5,180,60.5,179.4 M205.5,150.6c-1.3-0.1-2.7-0.2-4-0.4c1.3,0.2,2.7,0.5,4,0.7V150.6z M205.5,159.6
			c-0.3,0.9-0.3,1.9,0,3V159.6z M111.8,192.1c-3.8-0.4-6.9,1.3-9.9,3.3C105.2,194.3,108.5,193.2,111.8,192.1 M77.8,179.2
			c0.1-0.2,0.1-0.3,0.2-0.5c-3.3-1-6.7-1.9-10-2.9c0,0.2-0.1,0.3-0.1,0.5C71.1,177.2,74.5,178.2,77.8,179.2 M76.7,184.6
			c0-0.1,0-0.2,0.1-0.3c-2.8-0.5-5.7-1.1-8.5-1.6c0,0.1,0,0.2-0.1,0.4C71,183.6,73.8,184.1,76.7,184.6 M164.6,365.5
			c-2.2,1.1-4.3,2.3-6.5,3.4c2.2-1,4.5-2,6.7-2.9L164.6,365.5z M157.6,369.1L157.6,369.1c0.2-0.1,0.4-0.1,0.5-0.2
			C157.9,369,157.8,369,157.6,369.1 M200.1,149.7c-2.3-0.2-4.6-0.4-6.9-0.6c0,0.1,0,0.1,0,0.2c2.3,0.3,4.5,0.6,6.8,0.9
			C200.1,149.9,200.1,149.8,200.1,149.7 M27.2,328.4c1.7-0.2,3.5-0.5,5.2-0.7c0-0.2-0.1-0.3-0.1-0.5c-1.7,0.3-3.4,0.6-5.2,0.9
			C27.2,328.1,27.2,328.3,27.2,328.4 M388.4,375.2c-0.6-0.8-1.1-1.5-1.6-2.1c-0.4-0.6-0.7-0.9-0.7-0.9l-3.8-0.5
			c-1.9-0.3-3.8-0.4-3.8-0.4h0l-2.5-2.9c-0.6-0.7-1.3-1.4-1.7-1.9c-0.5-0.5-0.8-0.9-0.8-0.9s-0.5,0-1.2-0.1
			c-0.7-0.1-1.7-0.1-2.6-0.1l-3.8-0.1c0,0-0.1-0.1-0.2-0.2h0l-0.9,0.4c-2.9,1.2-2.9,3.4-0.2,4.8l16.5,9.4c0.2,0.1,0.4,0.2,0.6,0.3
			c2.8-0.7,5.6-1.5,8.4-2.3c-0.1-0.1-0.2-0.3-0.3-0.4C389.6,376.7,389,375.9,388.4,375.2 M428.9,347.7c-1.7-1.7-4.4-2.6-6.9-2.5
			c-0.8,0-1.6,0.2-2.4,0.5l-7.1,3c0.4,0.5,0.9,1.1,1.4,1.7c0.6,0.7,1.1,1.5,1.6,2c0.4,0.6,0.7,0.9,0.7,0.9l3.7,0.6
			c1.8,0.4,3.7,0.7,3.7,0.7s0.3,0.4,0.7,1c0.2,0.3,0.4,0.6,0.7,1c0.2,0.3,0.4,0.6,0.6,1c2.3-2,4.5-4.1,6.6-6.3
			c-0.2-0.6-0.6-1.1-1.1-1.6L428.9,347.7z M408.6,364.2l-11.9-6c-1.8-0.8-4.3-1.3-6.7-1.3c-1.4,0-2.8,0.1-3.9,0.4l-4.2,1.6
			c0.4,0.4,0.7,0.7,1.1,1.1c1.3,1.4,2.6,2.8,2.6,2.8s1.9,0.1,3.8,0.3c1.9,0.2,3.8,0.4,3.8,0.4s0.3,0.4,0.8,0.9
			c0.5,0.6,1.1,1.3,1.7,2c0.6,0.7,1.2,1.5,1.7,2c0.4,0.6,0.7,0.9,0.7,0.9s1.9,0.3,3.8,0.6c1,0.1,1.9,0.3,2.6,0.4
			c0.7,0.1,1.2,0.2,1.2,0.2s0.1,0.2,0.3,0.4c0.2-0.1,0.4-0.2,0.6-0.3l1.9-1.2C411.3,368.1,411.4,365.7,408.6,364.2 M256.6,280.5
			v-4.3v-4.3v-4.3c0,0,0-0.1,0-0.1v13.2c0,0.6,0,1.1,0,1.7c0,0,0,0,0.1,0c0-0.4,0-0.8,0-1.3C256.6,280.9,256.6,280.7,256.6,280.5
			 M450.9,281.1c-1.9-0.1-3.7,1-4.5,2.9l-0.8,2.1c0,0.1,0.1,0.1,0.1,0.2c0.2,0.3,0.4,0.5,0.5,0.7c0.1,0.2,0.2,0.3,0.2,0.3
			s1.9,0.4,3.8,0.9c0.5,0.1,0.9,0.2,1.4,0.3c0.4,0.1,0.8,0.2,1.2,0.3c0.7,0.2,1.2,0.3,1.2,0.3s1.1,1.6,2.1,3.3l1.9,3.3
			c0,0,0.5,0.1,1.2,0.4c0.1,0,0.2,0.1,0.3,0.1c0.5-3.1,0.8-6.2,1-9.4l-7-4.9C452.6,281.5,451.8,281.2,450.9,281.1 M457.6,274.8
			c-0.1-0.2-0.3-0.4-0.5-0.7c-0.5-0.5-1.1-1.3-1.7-2c-0.4-0.5-0.8-1-1.2-1.4h0c-0.5,0.7-0.8,1-0.8,1c-1.8,2.6-1.1,6,1.5,7.7l5.6,4
			c0-0.9,0-1.9,0-2.9h0v-5.1c-1.5-0.2-2.8-0.4-2.8-0.4S457.7,275,457.6,274.8 M435.5,338.4c-0.7-0.2-1.1-0.3-1.1-0.3l-1.9-3.1
			c-0.2-0.4-0.5-0.8-0.7-1.2c-0.2-0.4-0.5-0.7-0.6-1c0,0,0,0,0,0h0c-1,2.4-1.7,3.8-1.7,3.8c-1.4,2.8-0.7,6.9,1.5,9.1l2,2
			c0.5,0.5,1,0.8,1.5,1c2.5-2.8,4.8-5.7,7-8.7c-0.3-0.1-1.9-0.5-3.5-1C437.1,338.8,436.2,338.6,435.5,338.4 M451.9,304.6
			c-0.7-0.2-1.1-0.4-1.1-0.4s-0.9-1.7-1.8-3.4c-0.5-0.9-1-1.7-1.3-2.3c-0.4-0.6-0.6-1.1-0.6-1.1s-0.5-0.1-1.2-0.4
			c-0.3-0.1-0.8-0.2-1.2-0.4c-0.4-0.1-0.9-0.3-1.4-0.4c-0.5-0.1-1.1-0.3-1.5-0.4h0l-0.3,0.9c-0.9,3,0.3,7.1,2.6,9.2l8.8,8.4
			c0.5,0.5,1.1,0.9,1.7,1.1c1.1-2.9,2-5.9,2.8-8.9c-0.7-0.3-1.8-0.7-2.8-1.1C453.5,305.2,452.6,304.8,451.9,304.6 M407.6,232
			L407.6,232l-3.3,2.2c-2.7,1.5-2.8,4-0.2,5.7l6.2,4.1c1,0.7,2.1,1,3.3,1.1c2,0.1,4-0.5,5.4-1.9c0,0,0.8-0.8,1.9-1.9c0,0,0,0,0,0
			c-1.8-0.6-3.5-1.2-3.5-1.2s-0.2-0.4-0.5-1c-0.3-0.6-0.8-1.4-1.2-2.2c-0.4-0.8-0.9-1.6-1.2-2.2c-0.3-0.6-0.6-1-0.6-1
			s-1.8-0.5-3.6-0.9c-0.9-0.2-1.8-0.5-2.5-0.6C407.8,232,407.7,232,407.6,232 M401.5,232.5l4-2.6c-0.2-0.4-0.5-0.8-0.8-1.2
			c-0.3-0.4-0.5-0.8-0.7-1.2c-0.2-0.4-0.5-0.7-0.7-1c-0.4-0.6-0.7-1-0.7-1s-1.8-0.3-3.7-0.7c-1.8-0.3-3.7-0.6-3.7-0.6
			s-0.3-0.4-0.7-0.9c-0.4-0.6-1-1.3-1.5-2c-0.2-0.2-0.4-0.5-0.6-0.7v12.2c1.2,0.4,2.5,0.7,3.9,0.7
			C398.3,233.6,400.1,233.3,401.5,232.5 M302.3,312.6c0.2,0.4,0.5,0.8,0.7,1.2l1.9,3.2c0,0,0.5,0.1,1.1,0.3c0.7,0.2,1.6,0.4,2.4,0.7
			c1.8,0.5,3.6,1,3.6,1s0.6,1.3,1.4,2.7h0c1.7-2.6,3.7-6,5.7-9.6c-0.4-1-0.8-1.8-0.8-1.8s-0.4-0.2-1.1-0.4c-0.6-0.3-1.5-0.6-2.4-0.9
			c-1.7-0.6-3.5-1.2-3.5-1.2s-0.2-0.4-0.5-1c-0.3-0.6-0.7-1.4-1.1-2.2c-0.8-1.7-1.7-3.3-1.7-3.3s-1.4-0.4-3-0.9h0
			c-1.2,4.3-2.6,8.2-3.8,11.1c0.1,0.1,0.2,0.2,0.2,0.4C301.9,311.9,302.1,312.3,302.3,312.6 M412.3,263.7l-0.5,0.6l0.9-1.1
			c0,0,1.8,0.6,3.6,1.2c1.8,0.6,3.6,1.3,3.6,1.3s0.2,0.4,0.5,1.1c0.3,0.6,0.8,1.5,1.2,2.3c0.8,1.7,1.7,3.4,1.7,3.4s0.1,0.1,0.4,0.1
			v0l0,0c0.9-1.6,1.7-3.1,2.4-4.5l1.1-2.3c1.2-2.3,0.2-5.8-2.3-7.8l-5.1-3.9c-1.6-1.2-3.4-1.8-4.8-1.8c-0.9,0-1.6,0.2-2.1,0.7
			l-1.3,1.2c-0.8,0.7-1.6,1.6-2.5,2.4c0.3,0.5,1,1.8,1.7,3c0.5,0.8,0.9,1.7,1.3,2.3c0.3,0.6,0.6,1,0.6,1l-0.9,1.1L412.3,263.7z
			 M411.3,263.3c-0.3-0.6-0.8-1.5-1.3-2.3c-0.8-1.4-1.6-2.8-1.8-3.2h0c-2.5,2.5-5.3,5.2-7.5,7.3c0.5,0.2,0.8,0.3,0.8,0.3l1.7,3.4
			c0.4,0.8,0.9,1.7,1.2,2.3c0.3,0.6,0.5,1.1,0.5,1.1s1.8,0.7,3.6,1.3c1.8,0.7,3.5,1.4,3.5,1.4s0.2,0.4,0.5,1.1
			c0.3,0.7,0.7,1.5,1.1,2.4l1.5,3.5h0c0,0,0.4,0.2,1.1,0.5c0.5,0.2,1,0.5,1.6,0.7h0c1.6-2.7,3.6-6.1,5.4-9.3
			c-0.4-0.2-0.7-0.3-0.7-0.3l-1.6-3.4c-0.4-0.9-0.8-1.7-1.2-2.3c-0.3-0.6-0.5-1.1-0.5-1.1l-3.6-1.2c-1.8-0.6-3.6-1.2-3.6-1.2l0,0
			C411.8,264.3,411.6,263.9,411.3,263.3 M397.6,264.1L397.6,264.1c2.1-2,4.9-4.7,7.5-7.3c-0.2-0.1-0.4-0.1-0.7-0.2
			c-1.8-0.5-3.6-1-3.6-1l-2-3.2c-0.5-0.8-1-1.6-1.4-2.2c-0.4-0.6-0.7-1-0.7-1s-1.9-0.4-3.7-0.8c-0.2,0-0.3-0.1-0.5-0.1v11.9l1.6,2.9
			h0C394.2,263,395.9,263.6,397.6,264.1 M396.5,265.2c-1.7-0.5-3.2-1-3.2-1h0l0.9-1.1l-0.9,1.1c0,0-0.3-0.5-0.7-1.3v5.7
			c0.6-0.3,1.1-0.6,1.6-1.1C394.2,267.5,395.1,266.6,396.5,265.2 M345.1,345.6c-0.3-1.8-0.6-3.6-0.6-3.6s-0.4-0.3-0.9-0.7
			c-0.6-0.4-1.4-0.9-2.1-1.4c-1.5-1-3.1-2-3.1-2s-0.1-0.5-0.3-1.1c-0.2-0.7-0.4-1.6-0.6-2.5c-0.2-0.9-0.4-1.8-0.6-2.5
			c-0.2-0.7-0.3-1.1-0.3-1.1s-0.3-0.2-0.8-0.4h0l-6.5,6.6c1.4,0.7,2.6,1.3,2.6,1.3s0.2,0.4,0.4,1.1c0.1,0.3,0.2,0.7,0.4,1.1
			c0.1,0.4,0.3,0.9,0.4,1.3l1.1,3.5c0,0,0.4,0.2,1,0.5c0.6,0.3,1.4,0.8,2.2,1.2c1.2,0.7,2.4,1.4,3,1.7l0,0v0L345.1,345.6z
			 M399.6,266.2L399.6,266.2c-2,1.9-3.3,3.2-3.3,3.2c-2.2,2.2-2.2,5.8,0,7.9l11.3,12c0.9,1,2.1,1.5,3.2,1.5c1.4,0,2.8-0.7,3.7-2.2
			c0,0,1-1.7,2.6-4.2c-0.7-0.3-1.4-0.6-2-0.9c-0.7-0.3-1.1-0.5-1.1-0.5l-1.5-3.5c-0.4-0.9-0.8-1.7-1.1-2.4c-0.3-0.6-0.5-1.1-0.5-1.1
			l-3.5-1.4c-1.8-0.7-3.5-1.3-3.5-1.3s-0.2-0.4-0.5-1.1c-0.3-0.6-0.7-1.5-1.2-2.3l-1.7-3.4C400.5,266.5,400.1,266.4,399.6,266.2
			 M442.6,284c0.5-3.2,0.6-3.6,0.6-3.6c0.6-3.1-0.8-7.3-3.1-9.4c-2.3-2.1-4.2-3.7-4.2-3.7c-1.2-1-2.5-1.5-3.6-1.5
			c-1.1,0-2.1,0.6-2.6,1.6l-1,2c-0.6,1.3-1.4,2.7-2.2,4.2c0.2,0.1,0.3,0.1,0.5,0.2l3.6,1.4c0,0,0.2,0.4,0.5,1.1
			c0.3,0.7,0.7,1.5,1.1,2.4c0.4,0.9,0.8,1.7,1,2.4c0.3,0.7,0.5,1.1,0.5,1.1s1.7,0.8,3.5,1.5c0.9,0.4,1.7,0.8,2.4,1.1
			c0.6,0.3,1.1,0.5,1.1,0.5s0.6,1.6,1.3,3.2l0,0v0C442.1,287,442.4,285.4,442.6,284 M459,265.6L459,265.6L459,265.6
			c-0.3,0.3-0.7,0.6-1,1c-0.3,0.3-0.6,0.6-0.9,0.9c-0.8,0.9-1.5,1.6-2.1,2.3c0.3,0.4,0.6,0.8,1,1.2c0.6,0.7,1.2,1.5,1.7,2
			c0.2,0.3,0.4,0.5,0.5,0.7c0.1,0.2,0.2,0.3,0.2,0.3h0l2.1,0.3v-9.5c-0.1-0.1-0.2-0.2-0.3-0.3C460,264.7,459.5,265.1,459,265.6
			 M401.3,200.7c0.9-0.8,1.8-1.5,2.6-2.3c2.1-2.1,2.2-2.2,2.2-2.2c0.7-0.8,1.1-1.9,1.3-3l-6.2,6.2
			C401.2,199.9,401.3,200.3,401.3,200.7 M392.6,180.4v-8.7v-1.3c0,0,0,0,0,0v15.2c0,0,0,0,0,0v-3.4V180.4z M392.6,195.4v-3v-3.2
			c0-0.1,0-0.2,0-0.2V207c0,0,0,0,0,0v-2.6V195.4z M397.3,203.9L397.3,203.9c1-0.7,1.9-1.4,2.8-2.1c-0.1-0.4-0.1-0.7-0.1-1.1
			l-4.4,4.4C396.2,204.7,396.7,204.3,397.3,203.9 M392.6,133.1L392.6,133.1L392.6,133.1L392.6,133.1L392.6,133.1z M392.6,123.1
			C392.6,123.2,392.6,123.2,392.6,123.1l0,9.6c0,0,0,0.1,0,0.1V130V123.1z M392.6,152.6v-2.8v-0.3l0-0.1V160c0,0,0,0,0,0v-0.7V152.6
			z M392.6,137.3v-3c0,0,0,0,0,0v11.9c0,0,0,0.1,0,0.1v-1.7V137.3z M437.9,165.5c0,0,0.5,0.1,1.2,0.4c0.7,0.2,1.6,0.5,2.5,0.8
			l3.7,1.3c0,0,0.2,0.4,0.6,1.1c0.3,0.7,0.8,1.5,1.2,2.4c0.1,0.1,0.1,0.2,0.2,0.4l1.5-2.2c1.8-2.5,1.2-6.2-1.2-8.1l-4.9-3.4
			l-5.7,5.7L437.9,165.5z M449.2,159.3c2.5,1.9,6.2,1.5,8.2-0.8c0,0,0.3-0.4,1.4-1.5c-0.4-0.7-0.9-1.5-1.2-2
			c-0.2-0.3-0.3-0.6-0.5-0.7c-0.1-0.2-0.2-0.3-0.2-0.3s-1.9-0.5-3.7-0.9c-0.9-0.2-1.8-0.5-2.5-0.6c-0.7-0.1-1.2-0.3-1.2-0.3
			s-0.2-0.3-0.5-0.7l-4.5,4.5L449.2,159.3z M450.8,171.5l-2.2,3.3c0,0.1,0.1,0.2,0.1,0.2s1.8,0.7,3.6,1.5c0.4,0.2,0.9,0.4,1.3,0.6
			c0.4,0.2,0.8,0.4,1.1,0.5c0.7,0.3,1.1,0.5,1.1,0.5l1.5,3.6c0.7,1.8,1.4,3.6,1.4,3.6s0.4,0.2,1.1,0.5c0.2,0.1,0.5,0.3,0.8,0.4v-13
			l-2.4-2.4C455.9,168.6,452.6,168.9,450.8,171.5 M457.9,144c0.7,0.1,1.6,0.3,2.6,0.5l0.2,0V140l-3.8,3.8L457.9,144z M455.8,144.8
			l-5.7,5.7c0.2,0.3,0.3,0.5,0.3,0.5s0.5,0.1,1.2,0.3c0.7,0.1,1.6,0.4,2.6,0.6l3.7,0.9c0,0,0.1,0.1,0.2,0.3c0.1,0.2,0.3,0.4,0.5,0.7
			c0.4,0.6,0.8,1.4,1.3,2.2c0.2-0.2,0.5-0.5,0.7-0.7c0,0,0.1-0.1,0.1-0.1v-9.3c-0.3-0.1-0.6-0.1-0.9-0.2c-0.9-0.2-1.8-0.4-2.5-0.5
			c-0.7-0.1-1.2-0.2-1.2-0.2l0.5-0.7L456,145C456,145,455.9,144.9,455.8,144.8 M456.4,144.3l0.1-0.2l0,0L456.4,144.3z M431,205.7
			c-0.1-0.2-0.1-0.4-0.2-0.6c-2,3.5-4,6.7-5.6,9.2c0,0,0,0,0,0c0.3,0.6,0.5,1,0.5,1s1.7,0.6,3.5,1.3c0.9,0.3,1.8,0.6,2.4,0.9
			c0.6,0.3,1.1,0.4,1.1,0.4s0.7,1.7,1.5,3.4c0.4,0.8,0.7,1.7,0.9,2.4c0.2,0.6,0.4,1.1,0.4,1.1s0.4,0.2,1.1,0.5
			c0.1,0,0.2,0.1,0.3,0.1c1.8-1.9,4.2-4.2,6.7-6.8c-0.8-0.4-1.5-0.9-2.1-1.2c-0.6-0.3-1-0.5-1-0.5s-0.5-1.8-1.1-3.5
			c-0.1-0.4-0.3-0.9-0.4-1.3c-0.1-0.4-0.3-0.8-0.4-1.1c-0.2-0.7-0.4-1.1-0.4-1.1s-1.7-0.8-3.3-1.6c-0.8-0.4-1.7-0.8-2.3-1
			c-0.6-0.3-1-0.5-1-0.5S431.3,206.4,431,205.7 M427.6,199.5c-0.6-0.3-1.5-0.6-2.4-0.9c-1.7-0.6-3.5-1.2-3.5-1.2s-0.2-0.4-0.5-1
			c-0.3-0.6-0.7-1.4-1.1-2.2c-0.8-1.6-1.7-3.3-1.7-3.3s-1.4-0.4-3-0.9c-1.2,4.3-2.6,8.2-3.8,11.1c0.1,0.1,0.2,0.2,0.2,0.4
			c0.2,0.3,0.4,0.6,0.7,1c0.2,0.4,0.5,0.8,0.7,1.2c1,1.6,1.9,3.2,1.9,3.2s0.5,0.1,1.1,0.3c0.7,0.2,1.6,0.4,2.4,0.7
			c1.8,0.5,3.6,1,3.6,1s0.6,1.3,1.4,2.7c1.7-2.6,3.7-6,5.7-9.6c-0.4-1-0.8-1.8-0.8-1.8S428.2,199.8,427.6,199.5 M459.6,160.3
			c-2,2.3-1.9,6,0.4,8.1l0.6,0.6v-8.9c-0.1-0.2-0.2-0.3-0.3-0.5C459.8,160.1,459.6,160.3,459.6,160.3 M457,237.6
			c0.1,0.4,0.1,0.7,0.1,0.7l3,2.2c0.2,0.1,0.3,0.3,0.5,0.4v-5.2c-0.4,0-0.8,0.1-1.1,0.3L457,237.6z M448.2,187.1
			c0,0-0.4-0.2-1.1-0.5c-0.3-0.2-0.7-0.4-1.1-0.6c-0.4-0.2-0.9-0.4-1.3-0.6c-0.9-0.4-1.7-0.8-2.4-1.1l-0.8,1.2
			c-1.6,2.7-1.2,6.9,0.8,9.3l7.4,9.5c1.8,2.5,5.1,2.8,7.3,0.5l1.8-1.9c-0.1-0.3-0.2-0.6-0.2-0.9c-0.3-0.9-0.5-1.9-0.7-2.6
			c-0.2-0.7-0.4-1.2-0.4-1.2s-1.7-1-3.4-2c-0.4-0.2-0.8-0.5-1.2-0.7c-0.4-0.2-0.8-0.4-1.1-0.6c-0.6-0.3-1.1-0.6-1.1-0.6
			s-0.6-1.8-1.3-3.7L448.2,187.1z M457.7,186.1c0,0-0.7-1.8-1.4-3.6c-0.7-1.8-1.5-3.6-1.5-3.6s-0.4-0.2-1.1-0.5
			c-0.3-0.1-0.7-0.3-1.1-0.5c-0.4-0.2-0.9-0.4-1.3-0.5c-1.5-0.6-3.1-1.3-3.5-1.4l-4.7,7.1l2.7,1.2c0.4,0.2,0.9,0.4,1.3,0.6
			c0.4,0.2,0.8,0.4,1.1,0.6c0.7,0.3,1.1,0.6,1.1,0.6s0.7,1.8,1.4,3.7c0.6,1.8,1.3,3.7,1.3,3.7l-1.1,0.9l1.1-0.9c0,0,0.4,0.2,1.1,0.6
			c0.3,0.2,0.7,0.4,1.1,0.6c0.4,0.2,0.8,0.5,1.2,0.7l3.4,2c0,0,0.1,0.5,0.4,1.2c0.2,0.7,0.5,1.7,0.7,2.6c0.1,0.2,0.1,0.4,0.2,0.6
			l0.6-0.6v-13.6c-0.7-0.4-1.3-0.7-1.9-0.9C458.1,186.3,457.7,186.1,457.7,186.1 M455.9,239c0,0,0-0.2-0.1-0.6l-4.2,2.9
			c0.1,0.3,0.2,0.7,0.2,1c0.2,0.9,0.4,1.8,0.6,2.5c0.2,0.7,0.3,1.1,0.3,1.1l3.1,2c0.8,0.5,1.6,1,2.1,1.4c0.6,0.4,1,0.7,1,0.7
			s0.3,1.8,0.6,3.6l1.1-0.6v-10.5c-0.5-0.4-1.1-0.9-1.7-1.3C457.4,240.1,455.9,239,455.9,239 M454.7,231.7c0,0-0.4-0.3-0.9-0.7
			c-0.6-0.4-1.4-0.9-2.1-1.4c-1.5-1-3.1-2-3.1-2s-0.1-0.5-0.3-1.1c-0.2-0.7-0.4-1.6-0.6-2.5c-0.2-0.9-0.4-1.8-0.6-2.5
			c-0.2-0.7-0.3-1.1-0.3-1.1s-0.3-0.2-0.8-0.4l-6.5,6.6c1.4,0.7,2.6,1.3,2.6,1.3s0.2,0.4,0.4,1.1c0.1,0.3,0.2,0.7,0.4,1.1
			c0.1,0.4,0.3,0.9,0.4,1.3l1.1,3.5c0,0,0.4,0.2,1,0.5c0.6,0.3,1.4,0.8,2.2,1.2c1.2,0.7,2.4,1.4,3,1.7l4.7-3.2
			C455,233.5,454.7,231.7,454.7,231.7 M445.5,242.1l4-2.8c-0.6-0.3-1.7-1-2.9-1.6c-0.8-0.5-1.6-0.9-2.2-1.2c-0.6-0.3-1-0.5-1-0.5
			s-0.5-1.8-1.1-3.5c-0.1-0.4-0.3-0.9-0.4-1.3c-0.1-0.4-0.3-0.8-0.4-1.1c-0.2-0.7-0.4-1.1-0.4-1.1s-1.2-0.6-2.5-1.2l-3.7,3.7
			c-2.2,2.2-2.2,5.9,0,8.1l2,2C439.2,243.7,443,244,445.5,242.1 M457.8,254.5l0.5-0.3c-0.3-1.8-0.6-3.4-0.6-3.4s-0.4-0.3-0.9-0.7
			c-0.6-0.4-1.4-0.9-2.1-1.4c-1.5-1-3.1-2-3.1-2s-0.1-0.5-0.3-1.1c-0.2-0.7-0.4-1.6-0.6-2.5c-0.1-0.4-0.2-0.7-0.3-1.1l-2.9,2
			c-2.5,1.9-2.7,5.2-0.5,7.4l2,2C451.2,255.7,455.1,256.2,457.8,254.5 M434.4,225.8c0,0-0.2-0.4-0.4-1.1c-0.3-0.6-0.6-1.5-0.9-2.4
			c-0.7-1.7-1.4-3.4-1.4-3.4s-0.4-0.2-1.1-0.4c-0.6-0.3-1.5-0.6-2.4-0.9c-1.7-0.6-3.5-1.2-3.5-1.2s-0.2-0.3-0.4-0.8
			c-1.3,2-2.2,3.3-2.2,3.3c-1.8,2.5-1.5,6.4,0.7,8.6l2,2c2.2,2.2,5.8,2.2,8,0c0,0,1.1-1.1,3-3c-0.1-0.1-0.3-0.1-0.4-0.2
			C434.9,226,434.4,225.8,434.4,225.8 M411.1,202.5c-1,2.4-1.7,3.8-1.7,3.8c-1.4,2.8-0.7,6.9,1.5,9.1l2,2c2.2,2.2,5.5,1.9,7.3-0.6
			c0,0,1.1-1.6,2.8-4.1c-0.8-1.5-1.5-2.9-1.5-2.9s-1.8-0.5-3.6-1c-0.9-0.2-1.8-0.5-2.4-0.7c-0.7-0.2-1.1-0.3-1.1-0.3
			s-0.9-1.6-1.9-3.1c-0.2-0.4-0.5-0.8-0.7-1.2C411.5,203.2,411.3,202.9,411.1,202.5C411.1,202.6,411.1,202.5,411.1,202.5
			 M458.7,207.1c-2.2,2.2-2.8,5.8-1.5,7.9l1.2,2c0.8,1.3,1.5,2.5,2.2,3.6v-14.2l-0.7-0.5L458.7,207.1z M431.7,172.8
			c0,0,0.5,0.2,1.2,0.4c0.7,0.2,1.6,0.6,2.5,0.9c1.8,0.7,3.7,1.4,3.7,1.4s0.2,0.4,0.5,1.1c0.3,0.7,0.7,1.6,1.1,2.5
			c0.2,0.5,0.5,1,0.7,1.5l5-7.6c-0.1-0.2-0.2-0.4-0.3-0.6l-1.2-2.4c-0.3-0.7-0.6-1.1-0.6-1.1s-1.8-0.6-3.7-1.2
			c-0.9-0.3-1.8-0.6-2.5-0.8c-0.7-0.2-1.1-0.3-1.2-0.3c0,0-0.5-0.8-1.1-1.9l-5.6,5.6L431.7,172.8z M448.8,213.2c1.3-1.3,0.8-4.5-1-7
			l-6.9-8.9c-2-2.4-4.8-2.1-6.3,0.6c0,0-0.1,0.2-1.4,2.6c-0.5,1-1.1,2.1-1.6,3.1c0.2,0.4,0.3,0.8,0.4,1.1c0.2,0.6,0.4,1.1,0.4,1.1
			l1.1,0.5c0.6,0.3,1.5,0.7,2.3,1.1c1.7,0.8,3.3,1.6,3.3,1.6s0.2,0.4,0.4,1.1c0.1,0.3,0.2,0.7,0.4,1.1c0.1,0.4,0.3,0.9,0.4,1.3
			c0.5,1.8,1.1,3.5,1.1,3.5s0.4,0.2,1,0.5c0.6,0.3,1.3,0.7,2,1.1c1.1-1.1,2.2-2.2,3.2-3.3L448.8,213.2z M455.8,218
			c-1.7-2.6-4.8-3-7-0.7l-1.8,1.9c0.6,0.3,0.9,0.5,0.9,0.5s0.1,0.4,0.3,1.1c0.2,0.7,0.4,1.6,0.6,2.5c0.2,0.9,0.4,1.8,0.6,2.5
			c0.2,0.7,0.3,1.1,0.3,1.1s1.5,1,3.1,2c0.8,0.5,1.6,1,2.1,1.4c0.6,0.4,1,0.7,1,0.7s0.3,1.8,0.6,3.5l1.6-1.1c1.2-0.7,2-1.7,2.5-2.9
			v-4.1c-0.1-0.3-0.2-0.5-0.3-0.8L455.8,218z M416.7,184.9c-0.3,1.3-0.6,2.6-0.9,3.8c1.8,0.5,3.5,1,3.5,1s0.9,1.7,1.7,3.3
			c0.4,0.8,0.8,1.6,1.1,2.3c0.3,0.6,0.5,1,0.5,1s1.7,0.6,3.5,1.3c0.9,0.3,1.8,0.6,2.4,0.9c0.6,0.3,1.1,0.4,1.1,0.4s0.2,0.6,0.6,1.4
			c0.2-0.3,0.4-0.7,0.5-1c1.4-2.7,1.9-3.6,1.9-3.6c1.5-2.8,0.9-6.8-1.3-9.1l-8.2-7.9c-0.2-0.2-0.5-0.4-0.7-0.5l-5.4,5.4
			C416.9,184,416.8,184.4,416.7,184.9 M432.8,184.1c2.2,2.2,5.3,1.8,6.8-0.8l0.8-1.3c-0.2-0.5-0.5-1.2-0.8-1.8
			c-0.4-0.9-0.8-1.8-1.1-2.4c-0.3-0.7-0.5-1.1-0.5-1.1s-1.8-0.7-3.6-1.4c-0.9-0.3-1.8-0.7-2.5-0.9c-0.7-0.2-1.1-0.4-1.1-0.4
			s-0.6-1.2-1.4-2.6l-4.9,4.9L432.8,184.1z M423.4,356.8c-0.4-0.6-0.7-1-0.7-1s-1.8-0.3-3.7-0.7c-1.8-0.3-3.7-0.6-3.7-0.6
			s-0.3-0.4-0.7-0.9c-0.4-0.6-1-1.3-1.5-2c-0.7-0.9-1.5-1.9-1.9-2.4h0l-9.8,4.1c-3,0.7-3.2,2.4-0.4,3.8l10.5,5.5
			c1.4,0.8,3.2,1.1,5,1.2c0.4,0,0.7,0,1,0c2.4-1.7,4.7-3.5,6.9-5.4c-0.1-0.2-0.3-0.4-0.4-0.6C423.8,357.5,423.6,357.1,423.4,356.8
			 M358.2,371.2c-2.2-0.1-4.5,0.5-6,1.6c0,0-0.4,0.3-1.1,0.9c0.2,0.3,0.5,0.5,0.7,0.8c0.6,0.7,1.3,1.4,1.7,1.9
			c0.5,0.5,0.8,0.9,0.8,0.9l0,0c0,0,1.9,0.2,3.8,0.4c0.5,0.1,1,0.1,1.4,0.2c0.4,0.1,0.9,0.1,1.2,0.2c0.7,0.1,1.2,0.2,1.2,0.2
			s1.2,1.5,2.4,3c0.3,0.4,0.6,0.8,0.9,1.2c4.2-0.3,8.4-0.8,12.4-1.6l-15.7-8.8C360.8,371.5,359.5,371.3,358.2,371.2 M361.2,379.5
			c0,0-0.5-0.1-1.2-0.2c-0.4,0-0.8-0.1-1.2-0.2c-0.4,0-0.9-0.1-1.4-0.2c-1.9-0.2-3.8-0.4-3.8-0.4v0c0,0-0.3-0.4-0.8-0.9
			c-0.5-0.5-1.1-1.2-1.7-1.9c-0.4-0.4-0.7-0.8-1.1-1.2h0c-0.4,0.4-0.8,0.8-1.3,1.2v0c-0.3,0.3-0.7,0.6-1,1c-0.3,0.3-0.6,0.6-0.9,0.9
			c-0.8,0.9-1.5,1.6-2.1,2.3c0.3,0.4,0.6,0.8,1,1.2c0.2,0.3,0.5,0.5,0.7,0.8c4,0.5,8,0.7,12.1,0.7c1.7,0,3.3,0,5-0.1c0,0,0,0,0-0.1
			C362.4,381,361.2,379.5,361.2,379.5 M401.2,371.1l-3.7-0.5c0,0-0.3-0.4-0.7-0.9c-0.4-0.5-1-1.3-1.6-2c-0.6-0.7-1.2-1.5-1.7-2
			c-0.5-0.6-0.8-0.9-0.8-0.9s-1.9-0.2-3.8-0.3c-1.9-0.2-3.8-0.3-3.8-0.3c0,0-1.3-1.4-2.6-2.8c-0.6-0.7-1.3-1.4-1.8-1.9c0,0,0,0,0,0
			h0l-12,4.6c0.5,0,1.1,0,1.7,0.1c1,0,1.9,0.1,2.6,0.1c0.7,0,1.2,0.1,1.2,0.1l0.8,0.9c0.5,0.5,1.1,1.2,1.8,1.9l2.5,2.9
			c0,0,1.9,0.2,3.8,0.4c1.9,0.3,3.8,0.5,3.8,0.5s0.3,0.4,0.7,0.9c0.4,0.6,1,1.3,1.6,2.1c0.6,0.8,1.1,1.5,1.6,2.1
			c0.4,0.6,0.7,1,0.7,1c0,0,0.2,0,0.5,0.1c4.4-1.5,8.6-3.3,12.7-5.4c-0.2,0-0.5-0.1-0.8-0.1C403.1,371.4,402.1,371.3,401.2,371.1
			 M291.1,311L291.1,311L291.1,311c0.9-0.8,1.8-1.5,2.6-2.3c2.1-2.1,2.2-2.2,2.2-2.2c0.7-0.8,1.1-1.9,1.3-3l-6.2,6.2
			C291,310.1,291,310.5,291.1,311 M256.6,258.8C256.5,258.8,256.5,258.8,256.6,258.8l0,5.2l0,0.1V258.8L256.6,258.8z M445.3,328.9
			c-1.7-0.6-3.5-1.2-3.5-1.2s-0.2-0.4-0.5-1c-0.3-0.6-0.7-1.4-1.1-2.2c-0.8-1.7-1.7-3.3-1.7-3.3s-1.4-0.4-3-0.9h0
			c-1.2,4.3-2.6,8.2-3.8,11.1c0.1,0.1,0.2,0.2,0.2,0.4c0.2,0.3,0.4,0.6,0.7,1c0.2,0.4,0.5,0.8,0.7,1.2l1.9,3.2c0,0,0.4,0.1,1.1,0.3
			c0.7,0.2,1.6,0.4,2.4,0.7c1.5,0.4,2.9,0.8,3.4,1c2-2.9,3.9-5.9,5.7-9.1c-0.1,0-0.2-0.1-0.2-0.1C447,329.5,446.1,329.2,445.3,328.9
			 M457,296.9c0,0-1-1.7-1.9-3.3c-1-1.6-2-3.3-2-3.3s-0.5-0.1-1.2-0.3c-0.3-0.1-0.8-0.2-1.2-0.3c-0.4-0.1-0.9-0.2-1.4-0.3
			c-1.9-0.4-3.7-0.8-3.7-0.8s-0.1-0.1-0.2-0.3c-0.1-0.2-0.2-0.4-0.4-0.6l0,0v0l-2.8,7c0.6,0.2,1.2,0.3,1.9,0.5
			c0.5,0.1,1,0.3,1.4,0.4c0.4,0.1,0.8,0.3,1.2,0.4c0.7,0.2,1.2,0.4,1.2,0.4s0.3,0.4,0.6,1.1c0.4,0.6,0.9,1.5,1.3,2.3l1.9,3.4
			c0,0,0.5,0.2,1.2,0.4c0.7,0.2,1.6,0.6,2.5,0.9c0.8,0.3,1.6,0.6,2.2,0.9c0.6-2.5,1.2-5.1,1.6-7.7c-0.4-0.1-0.7-0.2-1-0.3
			C457.5,297.1,457,296.9,457,296.9 M443.2,309c-0.9-0.8-1.8-1.2-2.6-1.2c-1.3,0-2.5,1-2.9,2.9c0,0-0.3,1.2-1,4.4
			c-0.3,1.3-0.6,2.6-0.9,3.8c1.8,0.5,3.5,1,3.5,1s0.9,1.7,1.7,3.3c0.4,0.8,0.8,1.6,1.2,2.3c0.3,0.6,0.5,1,0.5,1s1.7,0.6,3.5,1.3
			c0.8,0.3,1.7,0.6,2.3,0.9c1.6-3,3.1-6.1,4.4-9.3c-0.4-0.9-0.9-1.8-1.5-2.5L443.2,309z M421.2,329.6c0.1,0.4,0.1,0.9,0.2,1.5h0
			c0.9-0.8,1.8-1.5,2.6-2.3c2.1-2.1,2.2-2.2,2.2-2.2c1.9-2.5,2-6.6,0.2-9.1l-11.2-15c-1-1.2-2.3-1.8-3.5-1.8c-1.3,0-2.6,0.6-3.6,1.8
			c0,0-1.1,1.3-2.8,3.2c0,0.1,0.1,0.2,0.1,0.4c0.2,0.7,0.4,1.6,0.7,2.5c0.2,0.9,0.5,1.8,0.7,2.5c0.2,0.7,0.3,1.2,0.3,1.2
			s1.6,1,3.2,2.1c0.8,0.5,1.6,1,2.2,1.5c0.6,0.4,1,0.7,1,0.7s0.4,1.9,0.8,3.7l0.7,3.7c0,0,0.4,0.3,1,0.7c0.6,0.4,1.4,1,2.1,1.5
			c1.5,1.2,3,2.3,3,2.3S421.1,328.9,421.2,329.6 M385.7,317.8c1.2,0.1,2.5-0.3,3.5-1.2c0,0,1.5-1.2,3.5-2.9
			c-0.1-0.1-0.3-0.2-0.4-0.3c-0.8-0.5-1.6-1-2.2-1.4c-0.6-0.4-1-0.6-1-0.6s-0.5-1.8-1-3.7c-0.2-0.9-0.5-1.8-0.7-2.5
			c-0.2-0.7-0.3-1.1-0.3-1.1s-1.2-0.7-2.6-1.5c-2.1,2.5-4.6,4.7-7.4,6.6c2.6,3.6,4.5,6.4,4.5,6.4C382.6,317,384.1,317.8,385.7,317.8
			 M410.6,338.6L410.6,338.6c3-1.8,6.5-4.1,9.6-6.6c-0.1-0.6-0.2-1.2-0.2-1.7c-0.1-0.7-0.2-1.2-0.2-1.2l-3-2.3
			c-0.7-0.6-1.5-1.1-2.1-1.5c-0.6-0.4-1-0.7-1-0.7s-0.3-1.9-0.7-3.7c-0.4-1.9-0.8-3.7-0.8-3.7s-0.4-0.3-1-0.7
			c-0.6-0.4-1.4-0.9-2.2-1.4l-3.2-2c0,0-0.1-0.5-0.3-1.1c-0.2-0.7-0.4-1.6-0.7-2.5c-0.2-0.9-0.5-1.8-0.7-2.5c0,0,0-0.1,0-0.1h0
			c-0.8,0.9-1.8,1.9-2.8,3c-1.7,1.7-3.5,3.3-5.1,4.8l0.4,0.3c0,0,0.1,0.5,0.3,1.2c0.1,0.7,0.3,1.6,0.5,2.6c0.2,0.9,0.4,1.9,0.5,2.6
			c0.1,0.7,0.2,1.2,0.2,1.2s1.5,1.1,3.1,2.2c0.8,0.6,1.5,1.1,2.1,1.6c0.6,0.4,0.9,0.7,0.9,0.7s0.3,1.9,0.6,3.8
			c0.3,1.9,0.5,3.8,0.5,3.8s0.4,0.3,0.9,0.8c0.6,0.5,1.3,1.1,2,1.7L410.6,338.6L410.6,338.6z M401.1,343.1c0.9,0,1.8-0.2,2.7-0.6
			c0,0,2.3-1.2,5.6-3.1c-0.6-0.5-1.4-1.2-2.2-1.9c-0.7-0.6-1.5-1.2-2-1.7c-0.6-0.4-0.9-0.7-0.9-0.7s-0.2-1.9-0.5-3.8
			c-0.3-1.9-0.6-3.8-0.6-3.8s-0.4-0.3-0.9-0.7c-0.6-0.4-1.3-1-2.1-1.6l-3.1-2.2c0,0-0.1-0.5-0.2-1.2c-0.1-0.7-0.3-1.6-0.5-2.6
			c-0.2-0.9-0.4-1.9-0.5-2.6c-0.1-0.7-0.3-1.2-0.3-1.2s-0.1-0.1-0.3-0.2h0c-2.5,2.2-4.4,3.7-4.4,3.7c-2.4,1.9-3.1,5.7-1.6,8.4
			l6.9,12.5C397.2,341.9,399.1,343,401.1,343.1 M430.6,316.6c1.1,0.1,2.1-0.7,2.8-2.4c0,0,1.3-3.4,3-8.2c-0.2-0.1-0.4-0.2-0.5-0.3
			c-0.8-0.5-1.6-0.9-2.3-1.3c-0.6-0.3-1-0.6-1-0.6l-1.1-3.6c-0.6-1.8-1.2-3.6-1.2-3.6l-1-0.6c-0.6-0.3-1.5-0.8-2.3-1.2l-3.4-1.7
			c0,0-0.2-0.4-0.4-1.1c-0.2-0.7-0.6-1.5-0.9-2.4c-0.3-0.9-0.7-1.8-0.9-2.4c-0.2-0.7-0.4-1.1-0.4-1.1s-0.5-0.2-1.3-0.6h0
			c-1.9,3.1-3.2,5.3-3.2,5.3c-1.6,2.7-1.4,6.8,0.5,9.3l11.1,14.9C428.8,316,429.7,316.6,430.6,316.6 M388.6,304.4
			c0.2,0.7,0.5,1.6,0.7,2.5c0.5,1.8,1,3.7,1,3.7s0.4,0.3,1,0.6c0.6,0.4,1.4,0.9,2.2,1.4l0.3,0.2h0c1.7-1.5,3.7-3.3,5.6-5.2
			c1-1,2-2.1,2.9-3c-0.5-0.3-1-0.6-1.6-0.9c-0.8-0.5-1.6-1-2.3-1.3c-0.6-0.3-1-0.6-1-0.6s-0.6-1.8-1.1-3.6c-0.3-0.9-0.6-1.8-0.8-2.5
			c-0.2-0.7-0.4-1.1-0.4-1.1l-3.4-1.7c-0.4-0.2-0.8-0.4-1.2-0.6c-1.2,3.3-3,6.4-5.1,9.2c1.5,0.9,2.9,1.7,2.9,1.7
			S388.4,303.7,388.6,304.4 M385.6,347c0.5,0.5,0.9,0.8,0.9,0.8s0,0.8,0.1,1.9h0c2.6-0.9,4.3-1.6,4.3-1.6c2.9-1.1,4.1-4.3,2.7-7
			l-6.6-12c-1-1.7-2.7-2.6-4.5-2.7c-1.1,0-2.2,0.3-3.1,0.9l-4.8,3.1c0.1,0.1,0.2,0.2,0.3,0.2c0.6,0.5,1.3,1.1,2.1,1.7
			c0.8,0.6,1.5,1.2,2.1,1.7c0.6,0.5,0.9,0.8,0.9,0.8s0.2,1.9,0.4,3.9c0.1,1,0.2,1.9,0.3,2.6c0.1,0.7,0.1,1.2,0.1,1.2
			s1.4,1.3,2.9,2.6C384.4,345.8,385.1,346.5,385.6,347 M380.8,342.6l-1.3,0.6L380.8,342.6L380.8,342.6z M379.2,339.4
			c-0.2-1.9-0.4-3.8-0.4-3.8s-0.4-0.3-0.9-0.8c-0.6-0.5-1.3-1.1-2.1-1.7c-0.7-0.6-1.5-1.2-2.1-1.7c-0.1-0.1-0.2-0.1-0.3-0.2h0
			l-8,5.2c0.2,1.8,0.4,3.4,0.4,3.4s0.1,0.1,0.3,0.2c0.2,0.1,0.4,0.3,0.7,0.6c0.5,0.5,1.3,1.1,2,1.8c0.7,0.7,1.5,1.3,2,1.8
			c0.6,0.5,0.9,0.8,0.9,0.8l0.3,3.9c0.1,1.9,0.2,3.9,0.2,3.9l1.5,1.5h0c3.9-1.3,8.3-2.9,11.7-4.1c-0.1-1-0.1-1.8-0.1-1.8
			s-0.3-0.3-0.9-0.8c-0.5-0.5-1.2-1.2-1.9-1.8l-2.9-2.6c0,0,0-0.5-0.1-1.2C379.4,341.3,379.3,340.3,379.2,339.4 M366,316.7
			c0.2,0.7,0.3,1.2,0.3,1.2s1.6,1.1,3.2,2.2l3.1,2.3c0,0,0.1,0.5,0.2,1.2c0.1,0.7,0.3,1.7,0.5,2.6c0.1,0.5,0.2,1.1,0.3,1.6l0,0v0
			l4.3-2.8c2.6-1.7,3.3-5.2,1.5-7.8l-4.9-6.5c-2.9,1.5-6,2.7-9.2,3.3l0,0.1C365.6,315,365.8,316,366,316.7 M357.1,319.5l0.8,3.8
			c0.2,0.9,0.4,1.9,0.5,2.6c0.1,0.7,0.2,1.2,0.2,1.2s0.4,0.3,1,0.7c0.6,0.4,1.4,1,2.1,1.6l3.1,2.5c0,0,0.1,0.5,0.2,1.2
			c0,0,0,0,0,0.1l0,0v0l7.4-4.8c-0.1-0.5-0.2-1.1-0.3-1.6c-0.2-1-0.3-1.9-0.5-2.6c-0.1-0.7-0.2-1.2-0.2-1.2l-3.1-2.3l-3.2-2.2
			c0,0-0.1-0.5-0.3-1.2c-0.2-0.7-0.4-1.6-0.6-2.6c-0.1-0.2-0.1-0.5-0.2-0.7c-1.8,0.3-3.6,0.4-5.5,0.4c-2.3,0-4.6-0.2-6.8-0.7
			l-1.2,1.2c0.3,0.2,1.7,1.2,3.2,2.1C355.5,318.4,357.1,319.5,357.1,319.5 M436.8,304.7c1.4-4.2,3.1-9.2,4.3-13.8l-0.3-1
			c-0.7-1.8-1.4-3.5-1.4-3.5s-0.4-0.2-1.1-0.5c-0.6-0.3-1.5-0.7-2.4-1.1c-1.7-0.8-3.5-1.5-3.5-1.5l-0.5-1.1c-0.3-0.7-0.7-1.5-1-2.4
			c-0.4-0.9-0.8-1.7-1-2.4c-0.3-0.7-0.5-1.1-0.5-1.1s-1.8-0.7-3.5-1.4c-0.1,0-0.1,0-0.2-0.1h0c-1.8,3.2-3.8,6.6-5.5,9.5l1.7,0.8
			c0,0,0.2,0.4,0.4,1.1c0.3,0.7,0.6,1.6,0.9,2.5c0.3,0.9,0.7,1.8,0.9,2.4c0.2,0.7,0.4,1.1,0.4,1.1h0c0,0,1.7,0.9,3.4,1.7
			c0.9,0.4,1.7,0.9,2.3,1.2l1,0.6c0,0,0.6,1.8,1.2,3.6l1.1,3.6c0,0,0.4,0.2,1,0.6C435.3,303.9,436,304.3,436.8,304.7L436.8,304.7z
			 M326.6,335.7L326.6,335.7c1.8-1.9,4.2-4.2,6.7-6.8c-0.8-0.4-1.5-0.9-2.1-1.2c-0.6-0.3-1-0.5-1-0.5s-0.5-1.8-1.1-3.5
			c-0.1-0.4-0.3-0.9-0.4-1.3c-0.1-0.4-0.3-0.8-0.4-1.1c-0.2-0.7-0.4-1.1-0.4-1.1s-1.7-0.8-3.3-1.6c-0.8-0.4-1.7-0.8-2.3-1
			c-0.6-0.3-1-0.5-1-0.5s-0.2-0.4-0.4-1.1c-0.1-0.2-0.1-0.4-0.2-0.6h0c-2,3.5-4,6.7-5.6,9.2c0,0,0,0,0,0c0.3,0.6,0.5,1,0.5,1
			s1.7,0.6,3.5,1.3c0.9,0.3,1.8,0.6,2.4,0.9l1.1,0.4c0,0,0.7,1.7,1.5,3.4c0.4,0.8,0.7,1.7,0.9,2.4c0.2,0.6,0.4,1.1,0.4,1.1
			s0.4,0.2,1.1,0.5C326.4,335.6,326.5,335.7,326.6,335.7 M427.6,249.3c0,0-0.2-0.4-0.5-1.1c-0.3-0.6-0.6-1.5-1-2.3
			c-0.7-1.5-1.4-3.1-1.6-3.3v0l0,0c-1,3.6-0.3,11.4,1.8,13.1c1.2,1,2.6,1.4,3.9,1.2c1.3-0.1,2.4-0.8,3.1-2c0.4-0.6,0.8-1.5,1.2-2.6
			c0-0.1-0.1-0.1-0.1-0.1s-1.7-0.7-3.4-1.5C429.3,250,427.6,249.3,427.6,249.3 M396.1,293.7c0,0,0.2,0.5,0.4,1.1
			c0.2,0.7,0.5,1.6,0.8,2.5c0.6,1.8,1.1,3.6,1.1,3.6s0.4,0.2,1,0.6c0.6,0.3,1.4,0.8,2.3,1.3c0.5,0.3,1,0.6,1.4,0.8v0l0,0
			c1.9-2.1,3.1-3.5,3.1-3.5c2-2.4,1.8-6.3-0.3-8.6l-11.8-12.2c-0.5-0.5-1-0.8-1.6-1.1v2.3c0,3.7-0.6,7.2-1.7,10.5l1.8,0.9
			C394.4,292.9,396.1,293.7,396.1,293.7 M355.8,360.5c2.9-1.1,4.3-4.3,3.1-7.2c-1.1-2.5-5.6-7.3-8.5-7.4c-0.4,0-0.8,0.1-1.1,0.3
			l-2.4,1.7c0.1,0.4,0.1,0.7,0.1,0.7s1.5,1.1,3,2.2c0.8,0.6,1.5,1.1,2,1.6c0.5,0.4,0.9,0.7,0.9,0.7s0.2,1.8,0.4,3.7l0.3,3.7
			c0,0,0.4,0.3,0.9,0.7c0,0,0,0,0,0l0,0v0L355.8,360.5z M339.5,314.5c1,1.4,2.5,2.1,4,2c1.2,0,2.3-0.6,3.3-1.5l1.8-1.8
			c-7.5-2.3-13.9-7.1-18.2-13.5c0,1.9,0.6,3.9,1.7,5.3L339.5,314.5z M446.4,267.2L446.4,267.2L446.4,267.2c0-0.1,0-0.1,0.1-0.1
			c0.8-2.5,2.7-9.3,0.5-11.5l-2-2c-1.1-1.1-2.4-1.7-3.7-1.8c-1.2-0.1-2.4,0.3-3.1,1.3c-0.5,0.6-0.6,2.3-0.4,4.4
			c0.2,0.5,0.3,0.8,0.3,0.8s1.7,0.8,3.3,1.7c1.7,0.9,3.3,1.7,3.3,1.7s0.1,0.4,0.4,1.1c0.2,0.7,0.5,1.6,0.7,2.5
			C446,265.9,446.2,266.6,446.4,267.2 M342.2,355c0.2,0.7,0.3,1.1,0.3,1.1l3.1,2c0.8,0.5,1.6,1,2.1,1.4c0.6,0.4,1,0.7,1,0.7
			s0.3,1.8,0.6,3.6h0l3.9-2c0,0,0,0,0,0c-0.5-0.4-0.9-0.7-0.9-0.7s-0.2-1.8-0.3-3.7c-0.2-1.8-0.4-3.7-0.4-3.7s-0.4-0.3-0.9-0.7
			c-0.5-0.4-1.3-1-2-1.6c-1.5-1.1-3-2.2-3-2.2s0-0.2-0.1-0.6h0l-4.2,2.9c0.1,0.3,0.2,0.7,0.2,1C341.8,353.5,342,354.4,342.2,355
			 M434.9,251L434.9,251c0.9-2.8,1.4-6.1,0-7.5l-2-2c-1.1-1.1-2.5-1.7-3.9-1.8c-1.4-0.1-2.8,0.4-3.8,1.4c-0.1,0.1-0.1,0.1-0.2,0.2
			c0.2,0.1,0.4,0.1,0.4,0.1l1.6,3.4c0.4,0.8,0.8,1.7,1,2.3c0.3,0.6,0.5,1.1,0.5,1.1s1.7,0.7,3.5,1.4
			C433.2,250.2,434.3,250.7,434.9,251L434.9,251z M416.8,227.6c-1.6-0.1-3.1,0.3-4.4,1.2l-3.3,2.2c0.6,0.2,1.3,0.3,2.1,0.5
			c1.8,0.5,3.6,1,3.6,1s0.2,0.4,0.6,1c0.3,0.6,0.8,1.4,1.2,2.3c0.4,0.8,0.9,1.6,1.2,2.2c0.3,0.6,0.5,1,0.5,1s1.8,0.6,3.5,1.2
			c0,0,0.1,0,0.1,0h0c0.4-0.4,0.7-0.7,1.1-1.1c2.1-2,2-5.5-0.2-7.7l-2-2C419.8,228.4,418.3,227.8,416.8,227.6 M397.6,248.1
			c0,0,0.3,0.4,0.7,1c0.4,0.6,0.9,1.4,1.4,2.2l2,3.2c0,0,1.8,0.5,3.7,1c0.3,0.1,0.6,0.2,0.9,0.2h0c1.2-1.2,2.4-2.4,3.5-3.4l1.1-1.1
			c1.2-1.2,0.1-3.6-2.5-5.3l-7-4.6c-2.3-1.5-4.7-2.5-5.7-2.4c-0.1,0-0.3,0-0.4,0.1l-0.6,0.3c-0.6,0.3-1.3,0.7-2,1v6.6
			c0.4,0.1,0.8,0.2,1.2,0.3L397.6,248.1z M335.3,352.4l4-2.8c-0.6-0.3-1.7-1-2.9-1.6c-0.8-0.5-1.6-0.9-2.2-1.2c-0.6-0.3-1-0.5-1-0.5
			s-0.5-1.8-1.1-3.5c-0.1-0.4-0.3-0.9-0.4-1.3c-0.1-0.4-0.3-0.8-0.4-1.1c-0.2-0.7-0.4-1.1-0.4-1.1s-1.2-0.6-2.5-1.2h0l-3.7,3.7
			c-2.2,2.2-2.2,5.9,0,8.1l2,2c1.1,1.1,2.6,1.7,4.2,1.8C332.4,353.7,334,353.3,335.3,352.4 M347.5,364.7l0.5-0.3
			c-0.3-1.8-0.6-3.4-0.6-3.4s-0.4-0.3-0.9-0.7c-0.6-0.4-1.4-0.9-2.1-1.4c-1.5-1-3.1-2-3.1-2s-0.1-0.5-0.3-1.1
			c-0.2-0.7-0.4-1.6-0.6-2.5c-0.1-0.4-0.2-0.7-0.3-1.1h0l-2.9,2c-2.5,1.9-2.7,5.2-0.5,7.4l2,2c1.4,1.4,3.4,2.1,5.4,2
			C345.4,365.7,346.5,365.4,347.5,364.7 M318.7,341.4c1.4,0,2.9-0.6,4-1.7c0,0,1.1-1.2,3-3c-0.1-0.1-0.3-0.1-0.4-0.2
			c-0.6-0.3-1-0.5-1-0.5s-0.2-0.4-0.4-1.1c-0.3-0.6-0.6-1.5-0.9-2.4c-0.7-1.7-1.4-3.4-1.4-3.4s-0.4-0.2-1.1-0.4
			c-0.6-0.3-1.5-0.6-2.4-0.9c-1.7-0.6-3.5-1.2-3.5-1.2s-0.2-0.3-0.4-0.8h0c-1.3,2-2.2,3.3-2.2,3.3c-1.8,2.5-1.5,6.4,0.7,8.6l2,2
			C315.8,340.8,317.2,341.4,318.7,341.4 M395.4,222.2c0.4,0.6,0.7,0.9,0.7,0.9s1.8,0.3,3.7,0.6c1.8,0.4,3.7,0.7,3.7,0.7
			s0.3,0.4,0.7,1c0.2,0.3,0.4,0.6,0.7,1c0.2,0.4,0.5,0.8,0.8,1.2c0.4,0.6,0.7,1.2,1.1,1.7l3.7-2.4c2.5-1.8,2.8-5.1,0.6-7.3l-2-2
			c-1.7-1.7-4.4-2.6-6.9-2.5c-0.8,0-1.6,0.2-2.4,0.5l-7,2.9v0.2c0.4,0.5,0.8,1,1.3,1.6C394.4,220.9,395,221.6,395.4,222.2
			 M300.8,312.8L300.8,312.8L300.8,312.8c-1,2.4-1.7,3.8-1.7,3.8c-1.4,2.8-0.7,6.9,1.5,9.1l2,2c1,1,2.1,1.5,3.3,1.5
			c1.5,0,3-0.7,4-2.1c0,0,1.1-1.6,2.8-4.1c-0.8-1.5-1.5-2.9-1.5-2.9s-1.8-0.5-3.6-1c-0.9-0.2-1.8-0.5-2.4-0.7
			c-0.7-0.2-1.1-0.3-1.1-0.3s-0.9-1.6-1.9-3.1c-0.2-0.4-0.5-0.8-0.7-1.2C301.3,313.4,301.1,313.1,300.8,312.8
			C300.9,312.8,300.8,312.8,300.8,312.8 M445.5,268.7c-0.2-0.7-0.5-1.6-0.7-2.6c-0.3-0.9-0.5-1.8-0.7-2.5c-0.2-0.7-0.4-1.1-0.4-1.1
			l-3.3-1.7c-0.8-0.4-1.6-0.8-2.3-1.1h0c0.6,3.5,1.8,7.3,2.9,8.4c1,0.9,2,1.3,3,1.2C444.5,269.2,445,269,445.5,268.7 M347,325.2
			l1.2,2c2.4,4,4.2,7.2,4.2,7.2c1,1.9,3,2.9,5,2.9c0.9,0,1.8-0.3,2.7-0.8l3.7-2.4c0-0.1,0-0.1,0-0.2c-0.1-0.7-0.2-1.2-0.2-1.2
			s-1.5-1.2-3-2.4c-0.8-0.6-1.6-1.2-2.1-1.6c-0.6-0.4-1-0.7-1-0.7l-0.2-1.2c-0.1-0.7-0.3-1.7-0.5-2.6l-0.8-3.8c0,0-1.6-1.1-3.2-2.2
			l-3-2h0l-1.2,1.2C346.3,319.6,345.6,323.1,347,325.2 M367.1,356.1c0.5,0,1.1-0.1,1.6-0.3l2.7-0.9c0.2-0.1,0.5-0.2,0.7-0.2
			c-0.8-0.8-1.4-1.4-1.4-1.4s-0.1-1.9-0.2-3.9c-0.1-2-0.3-3.9-0.3-3.9s-0.3-0.3-0.9-0.8c-0.5-0.5-1.3-1.1-2-1.8
			c-0.7-0.6-1.4-1.3-2-1.8c-0.3-0.2-0.5-0.4-0.7-0.6c-0.2-0.1-0.3-0.2-0.3-0.2l-0.4-3.2h0l-2.8,1.8c-2.7,1.6-3.8,5.2-2.4,8l2.5,5.4
			C362.4,354.7,364.8,356.2,367.1,356.1 M321.4,283.1c0,0,0.5,0.2,1.2,0.4c0.6,0.2,1.4,0.5,2.2,0.8c-0.1-1.2-0.2-2.4-0.2-3.7v-4.5
			l-4.5,4.5L321.4,283.1z M324.4,308.2c0,0-0.1,0.2-1.4,2.6c-0.5,1-1.1,2.1-1.6,3.1c0.2,0.4,0.3,0.8,0.4,1.1
			c0.2,0.6,0.4,1.1,0.4,1.1l1.1,0.5c0.6,0.3,1.5,0.7,2.3,1.1c1.7,0.8,3.3,1.6,3.3,1.6s0.2,0.4,0.4,1.1c0.1,0.3,0.2,0.7,0.4,1.1
			c0.1,0.4,0.3,0.9,0.4,1.3c0.5,1.8,1.1,3.5,1.1,3.5s0.4,0.2,1,0.5c0.5,0.3,1.3,0.7,2,1.1v0l0,0c1.1-1.1,2.2-2.2,3.2-3.3l1.1-1.1
			c1.3-1.3,0.8-4.5-1-7l-6.9-8.9c-0.9-1.1-1.9-1.6-2.9-1.6C326.5,305.9,325.2,306.7,324.4,308.2 M338,331c0.2,0.7,0.4,1.6,0.6,2.5
			c0.2,0.9,0.4,1.8,0.6,2.5c0.2,0.7,0.3,1.1,0.3,1.1s1.5,1,3.1,2c0.8,0.5,1.6,1,2.1,1.4c0.6,0.4,1,0.7,1,0.7s0.3,1.8,0.6,3.5
			l1.6-1.1c2.7-1.6,3.6-5.1,2.1-7.8l-4.5-7.5c-0.9-1.5-2.3-2.2-3.8-2.2c-1.1,0-2.3,0.5-3.2,1.5l-1.8,1.9c0.6,0.3,0.9,0.5,0.9,0.5
			S337.8,330.3,338,331 M306.5,295.1c-0.3,1.3-0.6,2.6-0.9,3.8c1.8,0.5,3.5,1,3.5,1l1.7,3.3c0.4,0.8,0.8,1.6,1.1,2.3
			c0.3,0.6,0.5,1,0.5,1s1.7,0.6,3.5,1.3c0.9,0.3,1.8,0.6,2.4,0.9c0.6,0.3,1.1,0.4,1.1,0.4s0.2,0.6,0.6,1.4c0,0,0,0,0,0v0
			c0.2-0.3,0.4-0.7,0.5-1c1.4-2.7,1.9-3.6,1.9-3.6c1.5-2.8,0.9-6.8-1.3-9.1l-8.2-7.9c-0.2-0.2-0.5-0.4-0.7-0.5l-5.4,5.4
			C306.7,294.3,306.6,294.7,306.5,295.1 M322.5,294.3c1,1,2.1,1.4,3.2,1.4c0.7,0,1.4-0.2,2.1-0.6c-1.4-2.9-2.4-6.1-2.9-9.3
			c-0.3-0.1-0.5-0.2-0.8-0.3c-0.9-0.3-1.8-0.7-2.5-0.9c-0.7-0.2-1.1-0.4-1.1-0.4s-0.6-1.2-1.4-2.6l-4.9,4.9L322.5,294.3z
			 M343.5,381.6c0.3,0,0.7,0.1,1,0.1c-0.2-0.2-0.4-0.5-0.6-0.7C343.8,381.2,343.7,381.4,343.5,381.6 M293.9,350.2l6.2,4.1
			c2.6,1.8,6.5,1.4,8.7-0.8c0,0,0.8-0.8,1.9-1.9c0,0,0,0,0,0c-1.8-0.6-3.5-1.2-3.5-1.2s-0.2-0.4-0.5-1c-0.3-0.6-0.8-1.4-1.2-2.2
			c-0.4-0.8-0.9-1.6-1.2-2.2c-0.3-0.6-0.6-1-0.6-1s-1.8-0.5-3.6-0.9c-0.9-0.2-1.8-0.5-2.5-0.6c-0.1,0-0.2,0-0.2-0.1l-3.3,2.2
			C291.4,345.9,291.3,348.5,293.9,350.2 M291.3,342.8l4-2.6c-0.2-0.4-0.5-0.8-0.8-1.2c-0.3-0.4-0.5-0.8-0.7-1.2
			c-0.2-0.4-0.5-0.7-0.7-1c-0.4-0.6-0.7-1-0.7-1s-1.8-0.3-3.7-0.7c-1.8-0.3-3.7-0.6-3.7-0.6s-0.3-0.4-0.7-0.9c-0.4-0.6-1-1.3-1.5-2
			c-0.7-0.9-1.5-1.9-1.9-2.4l-9.8,4.1c1.3,2.1,2.6,4.2,4.1,6.2l6,3.1C284,344.2,288.5,344.2,291.3,342.8 M323,365.2
			c0.4-0.6,0.8-1.5,1.2-2.6c0-0.1-0.1-0.1-0.1-0.1s-1.7-0.7-3.4-1.5c-1.7-0.7-3.4-1.4-3.4-1.4s-0.2-0.4-0.5-1.1
			c-0.3-0.6-0.6-1.5-1-2.3c-0.7-1.5-1.4-3.1-1.6-3.3c-1,3.6-0.3,11.4,1.8,13.1C318.5,367.8,321.6,367.5,323,365.2 M314.7,368.4
			l-5.1-3.9c-2.5-1.9-5.6-2.3-7-1l-1.3,1.2c-0.1,0.1-0.2,0.2-0.3,0.3c5.1,3.5,10.6,6.5,16.3,9.1C317.5,372,316.4,369.8,314.7,368.4
			 M334.7,363.8c-2.2-2.2-5.3-2.4-6.8-0.5c-0.5,0.6-0.6,2.3-0.4,4.4c0.2,0.5,0.3,0.8,0.3,0.8s1.7,0.8,3.3,1.7
			c1.7,0.9,3.3,1.7,3.3,1.7s0.1,0.4,0.4,1.1c0.2,0.7,0.5,1.6,0.7,2.5c0.2,0.7,0.4,1.4,0.6,2c0-0.1,0-0.1,0.1-0.1
			c0.8-2.5,2.7-9.3,0.5-11.5L334.7,363.8z M322.7,351.8c-2.2-2.2-5.7-2.4-7.7-0.4c-0.1,0.1-0.1,0.1-0.2,0.2c0.2,0.1,0.4,0.1,0.4,0.1
			s0.8,1.7,1.6,3.4c0.4,0.8,0.8,1.7,1,2.3c0.3,0.6,0.5,1.1,0.5,1.1s1.7,0.7,3.5,1.4c1.1,0.5,2.3,1,2.9,1.3c0.9-2.8,1.4-6.1,0-7.5
			L322.7,351.8z M311.8,350.5c0.4-0.4,0.7-0.7,1.1-1.1c2.1-2,2-5.5-0.2-7.7l-2-2c-2.2-2.2-6.1-2.5-8.6-0.6l-3.3,2.2
			c0.6,0.2,1.3,0.3,2.1,0.5c1.8,0.5,3.6,1,3.6,1s0.2,0.4,0.6,1c0.3,0.6,0.8,1.4,1.2,2.3c0.4,0.8,0.9,1.6,1.2,2.2
			c0.3,0.6,0.5,1,0.5,1s1.8,0.6,3.5,1.2C311.7,350.5,311.8,350.5,311.8,350.5 M298.1,356.2l-7-4.6c-2.6-1.7-5.4-2.7-6.1-2.4
			l-0.6,0.3c-0.2,0.1-0.4,0.2-0.7,0.3c4.6,4.9,9.6,9.4,15.1,13.4c0.2-0.2,0.4-0.4,0.6-0.6l1.1-1.1
			C301.8,360.4,300.7,358,298.1,356.2 M289.3,325.7l-7.1,3c0.4,0.5,0.9,1.1,1.4,1.7c0.6,0.7,1.1,1.5,1.6,2c0.4,0.6,0.7,0.9,0.7,0.9
			s1.8,0.3,3.7,0.6c1.8,0.4,3.7,0.7,3.7,0.7s0.3,0.4,0.7,1c0.2,0.3,0.4,0.6,0.7,1c0.2,0.4,0.5,0.8,0.8,1.2c0.4,0.6,0.7,1.2,1.1,1.7
			l3.7-2.4c2.5-1.8,2.8-5.1,0.6-7.3l-2-2C296.4,325.5,292.3,324.6,289.3,325.7 M279.2,344.7c0.3,0.4,0.6,0.8,0.9,1.1
			C280,345.5,279.7,345.1,279.2,344.7 M333.7,373.9c-0.2-0.7-0.4-1.1-0.4-1.1l-3.3-1.7c-0.8-0.4-1.6-0.8-2.3-1.1
			c0.6,3.5,1.8,7.3,2.9,8.4c0.5,0.5,1.1,0.8,1.6,1c0.3,0.1,0.6,0.2,0.8,0.2c0.8,0.1,1.5-0.1,2-0.6c-0.2-0.7-0.5-1.6-0.7-2.6
			C334.2,375.4,333.9,374.5,333.7,373.9 M324.9,377c-0.8-0.6-1.7-0.9-2.5-0.9C323.2,376.4,324.1,376.7,324.9,377 M256.9,289.2
			c-0.1-0.8-0.1-1.5-0.2-2.3c-0.1-1-0.1-2-0.1-3c0,0,0,0-0.1,0c0.1,4.5,0.6,9,1.3,13.4c0,0,0,0,0.1,0c-0.1-0.4-0.2-0.9-0.2-1.3
			C257.4,293.7,257.1,291.4,256.9,289.2 M287.1,314.1c1-0.7,1.9-1.4,2.8-2.1c-0.1-0.4-0.1-0.7-0.1-1.1l-4.4,4.4
			C285.9,314.9,286.5,314.5,287.1,314.1 M258.7,301.4c0,0,0,0.1-0.1,0.1c0.7,3.5,1.7,7,2.7,10.3l0.2,0.4c-0.4-1.3-0.8-2.6-1.2-4
			C259.8,306,259.2,303.7,258.7,301.4 M392.6,107.7L392.6,107.7l0,6.9c0,0,0,0,0,0v-1.1V107.7z M256.6,242.9v-6.1c0,0,0,0,0,0v11.6
			c0,0,0,0,0,0v-1.5V242.9z M256.5,224v11.4c0,0,0,0,0,0L256.5,224C256.5,224,256.5,224,256.5,224 M128.5,345.7h-1
			c0,0,0.1,0.1,0.1,0.1h-4.8c0,0-0.1-0.1-0.1-0.1h-2.4c0,0,0.1,0.1,0.1,0.1h-4.6c0,0-0.1-0.1-0.1-0.1h-2.4c0,0,0.1,0.1,0.1,0.1h-5.6
			c0,0-0.1-0.1-0.1-0.1h2.2l6.2-6.2l1.2,1.5l-1.8,3.8l3.6-0.5l1.9-4.1l4.4-1l1.3-3.4l-4.1,0.9l-1.7-2l5.2-5.2l5-4.1l-0.4-0.5
			l1.2-1.2l0.5,0.7l4-3.3l2.1,2.6l-1.8,3.8l3.6-0.5l1.9-4.1l4.4-1l1.3-3.4l-4.1,0.9l-2.1-2.6l4-3.3l-1.7-2.1l1.2-1.2l1.8,2.2
			l5.4-4.3l-2.1-2.6l-1.3,1.1l6.1-6.1l0.6,0.7l-4,3.3l2.1,2.6l4-3.3l2.1,2.6l-1.8,3.8l3.6-0.5l1.9-4.1l4.4-1l1.3-3.4l-4.1,0.9
			l-2.1-2.6l4-3.3l-2.1-2.6l-4,3.3l-1-1.3l14.7-14.7l2.4,3l-4,3.3l2.1,2.6l4-3.3l2.1,2.6l-1.8,3.8l3.6-0.5l1.9-4.1l4.4-1l1.3-3.4
			l-4.1,0.9l-2.1-2.6l4-3.3l-2.1-2.6l-4,3.3l-2.9-3.5l5.2-5.2c1.1,0.5,2.5,0.4,3.6-0.5c1.3-1,1.6-2.7,1-4.1l5-5l4.2,5.2l-4,3.3
			l2.1,2.6l4-3.3l2.1,2.6l-1.8,3.8l3.6-0.5l0.7-1.4v4.3h8.1l-0.4,0.9l-11.3,2.6l1.8-3.8l-3.6,0.5l-1.9,4.1l-4.4,1l-1.3,3.4l4.1-0.9
			l-4.8,10.5l-11.3,2.6l1.8-3.8l-3.6,0.5l-1.9,4.1l-4.4,1l-1.3,3.4l4.1-0.9l-4.8,10.5l-11.3,2.5l1.8-3.8l-3.6,0.5l-1.9,4.1l-4.4,1
			l-1.3,3.4l4.1-0.9l-4.8,10.5l-11.3,2.5l1.8-3.8l-3.6,0.5l-1.9,4.1l-4.4,1l-1.3,3.4l4.1-0.9L128.5,345.7z M190.2,277.5l5.4-4.3
			l-2.1-2.6l-5.4,4.3L190.2,277.5z M168.7,294.9l5.4-4.3l-2.1-2.6l-5.4,4.3L168.7,294.9z M138.1,339.4l15-3.4l0,0l0,0l6.4-14v0
			l15-3.4l0,0l6.4-14v0l15-3.4v0l6.4-14v0l15-3.4l2.9-6.2H217l-1.6,3.5l-15,3.4l-6.4,14l0,0l-15,3.4l-6.4,14v0l-15,3.4l-6.4,14l0,0
			l-15,3.4l-4.1,9h-1.5c0.1,0,0.1,0.1,0.2,0.1h6.7c0,0-0.1-0.1-0.1-0.1h-1.8L138.1,339.4z M205.2,252.2l-5.4,4.3l4.3,5.3l1.4-1.2
			v-8.1C205.4,252.5,205.3,252.3,205.2,252.2 M258.5,274.2l-1.9-2.4l-0.1,0.1v4.3L258.5,274.2z M137.5,377.1L137.5,377.1l0-0.1
			C137.5,377,137.5,377,137.5,377.1l-0.1-1.8c0,0,0,0,0,0v-1.5c0,0,0,0,0,0v-3.2c0,0,0,0,0,0V369l0,0v-2.4c0,0,0,0,0,0v-0.5l1.1,1.4
			l5.4-4.3l-2.1-2.6l-4.3,3.5v1.2c0,0,0,0,0,0v-2.9c0,0,0,0,0,0v-1.2l0,0V360c0,0,0,0,0,0v-1.5l0,0v-1.8c0,0,0,0,0,0v-1.5l0.7-0.2
			l1.3-3.4l-2,0.5v-1.1c0,0,0,0,0,0v-4.8c0,0,0,0,0,0v1.8l2.7-5.9l11.3-2.6l-1.8,3.8l3.6-0.5l1.9-4.1l4.4-1l1.3-3.4l-4.1,0.9
			l4.8-10.5l11.3-2.6l-1.8,3.8l3.6-0.5l1.9-4.1l4.4-1l1.3-3.4l-4.1,0.9l4.8-10.5l11.3-2.6l-1.8,3.8l3.6-0.5l1.9-4.1l4.4-1l1.3-3.4
			l-4.1,0.9l4.8-10.5l11.3-2.6l-1.8,3.8l3.6-0.5l1.9-4.1l4.4-1l1.3-3.4l-4.1,0.9l2.5-5.3h10.1l-1.3,2.8l-4.4,1l-1.3,3.4l4.1-0.9
			l2.1,2.6l-4,3.3l2.1,2.6l4-3.3l3.7,4.6l-4.9,4.9c-1.2-1.4-3.3-1.5-4.7-0.4c-1.5,1.2-1.7,3.4-0.5,4.8l-5.4,4.3l-4.3-5.3l4-3.3
			l-2.1-2.6l-4,3.3l-2.1-2.6l1.8-3.8l-3.6,0.5l-1.9,4.1l-4.4,1l-1.3,3.4l4.1-0.9l2.1,2.6l-4,3.3l2.1,2.6l4-3.3l4.3,5.3l-5.4,4.3
			c-1.2-1.5-3.3-1.7-4.8-0.5c-1.5,1.2-1.7,3.4-0.5,4.8l-5.4,4.3l-4.3-5.3l4-3.3l-2.1-2.6l-4,3.3l-2.1-2.6l1.8-3.8l-3.6,0.5l-1.9,4.1
			l-4.4,1l-1.3,3.4l4.1-0.9l2.1,2.6l-4,3.3l2.1,2.6l4-3.3l4.3,5.3l-5.4,4.3c-1.2-1.5-3.3-1.7-4.8-0.5c-1.5,1.2-1.7,3.4-0.5,4.8
			l-5.4,4.3l-4.3-5.3l4-3.3l-2.1-2.6l-4,3.3l-2.1-2.6l1.8-3.8l-3.6,0.5l-1.9,4.1l-4.4,1l-1.3,3.4l4.1-0.9l2.1,2.6l-4,3.3l2.1,2.6
			l4-3.3l4.3,5.3l-5.4,4.3c-1.2-1.5-3.3-1.7-4.8-0.5c-1.5,1.2-1.7,3.4-0.5,4.8l-5.4,4.3l-4.3-5.3l4-3.3l-2.1-2.6l-4,3.3l-2.1-2.6
			l1.8-3.8l-3.6,0.5l-1.9,4.1l-4.4,1l-1.3,3.4l4.1-0.9l2.1,2.6l-4,3.3l2.1,2.6l4-3.3l4.3,5.3l-5.4,4.3c-1.2-1.5-3.3-1.7-4.8-0.5
			c-1.5,1.2-1.7,3.4-0.5,4.8L137.5,377.1z M206.2,308.3l-5.4,4.3l2.1,2.6l5.4-4.3L206.2,308.3z M227.7,290.9l-5.4,4.3l2.1,2.6
			l5.4-4.3L227.7,290.9z M184.8,325.7l-5.4,4.3l2.1,2.6l5.4-4.3L184.8,325.7z M160.1,350l5.4-4.3l-2.1-2.6l-5.4,4.3L160.1,350z
			 M236.3,279.6l2.1,2.6l1.2-0.9v-3.6h-2.4L236.3,279.6z M256.6,242.9v-6.1v-1.4v-11.4v-0.3l3.3-2.7l-2.1-2.6l-1.2,1v-8.8l2.3-1.9
			l4.3,5.3l-4,3.3l2.1,2.6l4-3.3l2.1,2.6l-1.8,3.8l3.6-0.5l1.9-4.1l4.4-1l1.3-3.4l-4.1,0.9l-2.1-2.6l4-3.3l-2.1-2.6l-4,3.3l-4.3-5.3
			l5.4-4.3c1.2,1.5,3.3,1.7,4.8,0.5c1.5-1.2,1.7-3.4,0.5-4.8l5.4-4.3l4.3,5.3l-4,3.3l2.1,2.6l4-3.3l2.1,2.6l-1.8,3.8l3.6-0.5
			l1.9-4.1l4.4-1l1.3-3.4l-4.1,0.9l-2.1-2.6l4-3.3l-2.1-2.6l-4,3.3l-4.3-5.3l5.4-4.3c1.2,1.5,3.3,1.7,4.8,0.5
			c1.5-1.2,1.7-3.4,0.5-4.8l5.4-4.3l4.3,5.3l-4,3.3l2.1,2.6l4-3.3l2.1,2.6l-1.8,3.8l3.6-0.5l1.9-4.1l4.4-1l1.3-3.4l-4.1,0.9
			l-2.1-2.6l4-3.3l-2.1-2.6l-4,3.3l-4.3-5.3l5.4-4.3c1.2,1.5,3.3,1.7,4.8,0.5c1.5-1.2,1.7-3.4,0.5-4.8l5.4-4.3l1.4,1.7v6l-1.1,0.9
			l1.1,1.4v11.7l-2.1,0.5l-1.3,3.4l3.4-0.8v1.4l-4.1,8.9l-11.3,2.6l1.8-3.8l-3.6,0.5l-1.9,4.1l-4.4,1l-1.3,3.4l4.1-0.9l-4.8,10.5
			l-11.3,2.5l1.8-3.8l-3.6,0.5l-1.9,4.1l-4.4,1l-1.3,3.4l4.1-0.9l-4.8,10.5l-11.3,2.6l1.8-3.8l-3.6,0.5l-1.9,4.1l-4.4,1l-1.3,3.4
			l4.1-0.9L256.6,242.9z M324.3,168.9l-2.1-2.6l-5.4,4.3l2.1,2.6L324.3,168.9z M302.8,186.3l-2.1-2.6l-5.4,4.3l2.1,2.6L302.8,186.3z
			 M281.4,203.7l-2.1-2.6l-5.4,4.3l2.1,2.6L281.4,203.7z M256.6,258.8L256.6,258.8v-5.7l2.2-0.5l-1.8,3.8l3.6-0.5l1.9-4.1l4.4-1
			l1.3-3.4l-4.1,0.9l4.8-10.5l11.3-2.6l-1.8,3.8l3.6-0.5l1.9-4.1l4.4-1l1.3-3.4l-4.1,0.9l4.8-10.5l11.3-2.6l-1.8,3.8l3.6-0.5
			l1.9-4.1l4.4-1l1.3-3.4l-4.1,0.9l4.8-10.5l11.3-2.6l-1.8,3.8l3.2-0.5v4.4l-2.3,2.3l-0.3-0.3l1.8-3.8l-3.6,0.5l-1.9,4.1l-4.4,1
			l-1.3,3.4l4.1-0.9l0.7,0.9L302.7,230l-2.1-2.6l1.8-3.8l-3.6,0.5l-1.9,4.1l-4.4,1l-1.3,3.4l4.1-0.9l2.1,2.6l-4,3.3l0.7,0.9
			l-1.2,1.2l-0.9-1.1l-5.4,4.3l1.3,1.6l-1.2,1.2l-1.4-1.8l-4,3.3l-2.1-2.6l1.8-3.8l-3.6,0.5l-1.9,4.1l-4.4,1l-1.3,3.4l4.1-0.9
			l2.1,2.6l-4,3.3l2.1,2.6l4-3.3l0.1,0.1l-14.7,14.7l-1.5-1.8l4-3.3l-2.1-2.6l-4,3.3l-2.1-2.6l1.8-3.8L256.6,258.8z M265.2,260.5
			l2.1,2.6l5.4-4.3l-2.1-2.6L265.2,260.5z M266.9,235.1L266.9,235.1l15-3.4v0l6.4-14v0l15-3.4l0,0l0,0v0l6.4-14l0,0l14.8-3.4v-6.9
			l-2,4.2l-15,3.4l-6.4,14l-15,3.4l-6.4,14l0,0l-15,3.4l-6.4,14l-1.7,0.4v1.5v1.6l3.8-0.9L266.9,235.1z M395.6,130.9L395.6,130.9
			l8.1-1.8l4-4l-14.3,3.2l-0.8,1.8v2.8v0.1v0v1.3v3L395.6,130.9z M396.8,120.9l-1.8,3.8l11.3-2.5l4.8-10.5l-4.1,0.9l1.3-3.4l4.4-1
			l0.3-0.6h-13l-0.6,0.5l2.1,2.6l4.1-0.9l-1.3,3.4l-4.4,1l-1.9,4.1l-3.6,0.5l1.8-3.8l-2.1-2.6l-1.4,1.1v1.1v8.1l0.6-1.3L396.8,120.9
			z M399.7,133.1l-1.9,0.4l-1.3,2.8L399.7,133.1z M415.2,117.6l1.9-4.1l0,0l2.8-0.6l4-4l-9,2l-6,13L415.2,117.6z M69,345.2l0.1,0.5
			h-2.5l-0.1-0.5l-7.2,0.5l0,0h-7.6l4.8-1.3l-2.1-3.5l-2.4,0.6l0.8,2.4l-1.6,0.3l-0.9-1.9l-3.5,1.2l1.5,2.3h-6.3l7-7
			c-3.8-0.6-7.6-1-11.5-1c-6.7-0.1-13.4,0.1-19.9,1.6c-5.5,1.2-10.8,3.1-16,5.3v1.3h73c-0.1,0-0.2-0.1-0.3-0.1H76l0-0.3L69,345.2z
			 M76.8,337.4l1,6.4l6.4,1l-0.5-7.2L76.8,337.4z M74.3,337.4l-7.2,0.5l1.6,5.2l6.8,0L74.3,337.4z M64.7,338.1l-8,1.8l2.1,4l7.5-0.9
			L64.7,338.1z M91.5,329.9l-6.9-0.2l1,6.4l6.4,1L91.5,329.9z M82.1,329.7l-7.2,0.5l1.6,5.2l6.8,0L82.1,329.7z M74.1,335.3l-1.6-4.9
			l-8,1.8l2.1,4L74.1,335.3z M56.5,338.8l7.7-2.1l-2.1-3.5l-2.4,0.6l0.8,2.4l-1.6,0.3l-0.9-1.9l-3.5,1.2L56.5,338.8z M91.9,339.5
			l-5.8-1.3l0,6.8l1.9,0.6h3.3L91.9,339.5z M99.2,322.1l-6.9-0.2l1,6.4l6.4,1L99.2,322.1z M91.1,327.7l-1.3-5.8l-7.2,0.5l1.6,5.2
			L91.1,327.7z M80.2,322.6l-8,1.8l2.1,4l7.5-0.9L80.2,322.6z M72,328.9l-2.1-3.5l-2.4,0.6l0.8,2.4l-1.6,0.3l-0.9-1.9l-3.5,1.2
			l2,3.1L72,328.9z M99.1,339l0.5-7.2l-5.8-1.3l0,6.8L99.1,339z M99,341.4l-4.9-1.6l-0.7,6h-1.8c0.1,0,0.1,0.1,0.2,0.1h5.5
			c0,0-0.1-0.1-0.2-0.1h1L99,341.4z M101,320.6l6.4,1l-0.5-7.2l-6.9-0.2L101,320.6z M92,319.9l6.8,0l-1.3-5.8l-7.2,0.5L92,319.9z
			 M89.6,319.8l-1.6-4.9l-8,1.8l2.1,4L89.6,319.8z M79.7,321.1l-2.1-3.5l-2.4,0.6l0.8,2.4l-1.6,0.3l-0.9-1.9l-3.5,1.2l2,3.1
			L79.7,321.1z M107.4,324l-5.8-1.3l0,6.8l5.2,1.6L107.4,324z M101.8,332l-0.9,7.5l4,2.1l1.8-8L101.8,332z M103.5,345.7h1.9l0.1,0.1
			h-5.9c0,0-0.1-0.1-0.1-0.1h-0.1l1.1-3.8l3.5,2.1L103.5,345.7z M101.5,345.7l-0.5-0.2l0,0.2H101.5z M115.2,313.8l-0.5-7.2l-6.9-0.2
			l1,6.4L115.2,313.8z M99.7,312.1l6.8,0l-1.3-5.8l-7.2,0.5L99.7,312.1z M97.3,312.1l-1.6-4.9l-8,1.8l2.1,4L97.3,312.1z M83.8,312.8
			l-1.6,0.3l-0.9-1.9l-3.5,1.2l2,3.1l7.7-2.1l-2.1-3.5l-2.4,0.6L83.8,312.8z M115.2,316.2l-5.8-1.3l0,6.8l5.2,1.6L115.2,316.2z
			 M108.6,331.7l4,2.1l1.8-8l-4.9-1.6L108.6,331.7z M110.3,340.3l-1.9-0.9l0.3-1.6l2.4,0.8l0.6-2.4l-3.5-2.1l-2.1,7.7l3.1,2
			L110.3,340.3z M123,306l-0.5-7.2l-6.9-0.2l1,6.4L123,306z M107.5,304.4l6.8,0l-1.3-5.8l-7.2,0.5L107.5,304.4z M95.4,301.2l2.1,4
			l7.5-0.9l-1.6-4.9L95.4,301.2z M95.2,305.6l-2.1-3.5l-2.4,0.6l0.8,2.4l-1.6,0.3l-0.9-1.9l-3.5,1.2l2,3.1L95.2,305.6z M117.2,314.1
			l5.2,1.6l0.5-7.2l-5.8-1.3L117.2,314.1z M122.2,318.1l-4.9-1.6l-0.9,7.5l4,2.1L122.2,318.1z M115.9,326.4l-2.1,7.7l3.1,2l1.2-3.5
			l-1.9-0.9l0.3-1.6l2.4,0.8l0.6-2.4L115.9,326.4z M123.3,290.9l1,6.4l6.4,1l-0.5-7.2L123.3,290.9z M115.2,296.6l6.8,0l-1.3-5.8
			l-7.2,0.5L115.2,296.6z M103.2,293.4l2.1,4l7.5-0.9l-1.6-4.9L103.2,293.4z M95.3,300l7.7-2.1l-2.1-3.5l-2.4,0.6l0.8,2.4l-1.6,0.3
			l-0.9-1.9l-3.5,1.2L95.3,300z M124.9,306.3l5.2,1.6l0.5-7.2l-5.8-1.3L124.9,306.3z M130,310.3l-4.9-1.6l-0.9,7.5l4,2.1L130,310.3z
			 M127.2,320.7l-3.5-2.1l-2.1,7.7l3.1,2l1.2-3.5l-1.9-0.9l0.3-1.6l2.4,0.8L127.2,320.7z M132,289.6l6.4,1l-0.5-7.2l-6.9-0.2
			L132,289.6z M123,288.9l6.8,0l-1.3-5.8l-7.2,0.5L123,288.9z M120.6,288.8l-1.6-4.9l-8,1.8l2.1,4L120.6,288.8z M101.1,289.2l2,3.1
			l7.7-2.1l-2.1-3.5l-2.4,0.6l0.8,2.4l-1.6,0.3l-0.9-1.9L101.1,289.2z M132.7,291.7l0,6.8l5.2,1.6l0.5-7.2L132.7,291.7z
			 M137.7,302.6l-4.9-1.6l-0.9,7.5l4,2.1L137.7,302.6z M133.6,317l-1.9-0.9l0.3-1.6l2.4,0.8l0.6-2.4l-3.5-2.1l-2.1,7.7l3.1,2
			L133.6,317z M146.2,282.8l-0.5-7.2l-6.9-0.2l1,6.4L146.2,282.8z M130.7,281.1l6.8,0l-0.8-3.5h-7.2L130.7,281.1z M120.8,281.9
			l7.5-0.9l-1.1-3.4h-7.4l-1.1,0.3L120.8,281.9z M118.5,282.4l-2.1-3.5l-2.4,0.6l0.8,2.4l-1.6,0.3l-0.9-1.9l-3.5,1.2l2,3.1
			L118.5,282.4z M140.4,290.8l5.2,1.6l0.5-7.2l-5.8-1.3L140.4,290.8z M139.6,300.7l4,2.1l1.8-8l-4.9-1.6L139.6,300.7z M137.1,310.8
			l3.1,2l1.2-3.5l-1.9-0.9l0.3-1.6l2.4,0.8l0.6-2.4l-3.5-2.1L137.1,310.8z M147.6,274.1l6.4,1l-0.5-7.2l-6.9-0.2L147.6,274.1z
			 M138.5,273.4l-1-3.1v-1.4l0,0V253c0,0,0,0,0,0v3.1l2.1-0.5l2.1,3.5l-4.2,1.2v1.4l4.7-1.1l1.6,4.9l-6.3,0.7v1.8l6.6-0.5l1.3,5.8
			L138.5,273.4z M137.5,258.7l0.6-0.1l-0.6-1.6V258.7z M148.2,283.1l5.2,1.6l0.5-7.2l-5.8-1.3L148.2,283.1z M153.2,287.1l-4.9-1.6
			l-0.9,7.5l4,2.1L153.2,287.1z M147.2,300.6l0.3-1.6l2.4,0.8l0.6-2.4l-3.5-2.1l-2.1,7.7l3.1,2l1.2-3.5L147.2,300.6z M155.3,266.3
			l6.4,1l-0.5-7.2l-6.9-0.2L155.3,266.3z M153.1,265.6l-1.3-5.8l-7.2,0.5l1.6,5.2L153.1,265.6z M161.2,277l0.5-7.2l-5.8-1.3l0,6.8
			L161.2,277z M161,279.3l-4.9-1.6l-0.9,7.5l4,2.1L161,279.3z M157.6,292.1l0.6-2.4l-3.5-2.1l-2.1,7.7l3.1,2l1.2-3.5l-1.9-0.9
			l0.3-1.6L157.6,292.1z M169,252.4l-6.9-0.2l1,6.4l6.4,1L169,252.4z M160.8,257.9l-1.3-5.8l-7.2,0.5l1.6,5.2L160.8,257.9z
			 M151.6,257.8l-1.6-4.9l-8,1.8l2.1,4L151.6,257.8z M163.7,267.6l5.2,1.6l0.5-7.2l-5.8-1.3L163.7,267.6z M166.9,279.6l1.8-8
			l-4.9-1.6l-0.9,7.5L166.9,279.6z M162.7,285.1l0.3-1.6l2.4,0.8l0.6-2.4l-3.5-2.1l-2.1,7.7l3.1,2l1.2-3.5L162.7,285.1z
			 M170.8,250.8l6.4,1l-0.5-7.2l-6.9-0.2L170.8,250.8z M168.6,250.1l-1.3-5.8l-7.2,0.5l1.6,5.2L168.6,250.1z M151.8,250.9l7.5-0.9
			l-1.6-4.9l-8,1.8L151.8,250.9z M149.5,251.4l-2.1-3.5l-2.4,0.6l0.8,2.4l-1.6,0.3l-0.9-1.9l-3.5,1.2l2,3.1L149.5,251.4z
			 M171.4,259.8l5.2,1.6l0.5-7.2l-5.8-1.3L171.4,259.8z M176.5,263.8l-4.9-1.6l-0.9,7.5l4,2.1L176.5,263.8z M168.1,279.8l3.1,2
			l1.2-3.5l-1.9-0.9l0.3-1.6l2.4,0.8l0.6-2.4l-3.5-2.1L168.1,279.8z M178.6,243l6.4,1l-0.5-7.2l-6.9-0.2L178.6,243z M169.5,242.4
			l6.8,0l-1.3-5.8l-7.2,0.5L169.5,242.4z M159.6,243.2l7.5-0.9l-1.6-4.9l-8,1.8L159.6,243.2z M149.6,245.7l7.7-2.1l-2.1-3.5
			l-2.4,0.6l0.8,2.4l-1.6,0.3l-0.9-1.9l-3.5,1.2L149.6,245.7z M179.2,252.1l5.2,1.6l0.5-7.2l-5.8-1.3L179.2,252.1z M178.4,262l4,2.1
			l1.8-8l-4.9-1.6L178.4,262z M178,264.3l-2.1,7.7l3.1,2l1.2-3.5l-1.9-0.9l0.3-1.6l2.4,0.8l0.6-2.4L178,264.3z M186.3,235.3l6.4,1
			l-0.5-7.2l-6.9-0.2L186.3,235.3z M177.3,234.6l6.8,0l-1.3-5.8l-7.2,0.5L177.3,234.6z M167.3,235.4l7.5-0.9l-1.6-4.9l-8,1.8
			L167.3,235.4z M157.3,238l7.7-2.1l-2.1-3.5l-2.4,0.6l0.8,2.4l-1.6,0.3l-0.9-1.9l-3.5,1.2L157.3,238z M186.9,244.3l5.2,1.6l0.5-7.2
			l-5.8-1.3L186.9,244.3z M187,246.7l-0.9,7.5l4,2.1l1.8-8L187,246.7z M185.7,256.6l-2.1,7.7l3.1,2l1.2-3.5l-1.9-0.9l0.3-1.6
			l2.4,0.8l0.6-2.4L185.7,256.6z M193.1,221.1l1,6.4l6.4,1l-0.5-7.2L193.1,221.1z M183.4,221.7l1.6,5.2l6.8,0l-1.3-5.8L183.4,221.7z
			 M182.6,226.8l-1.6-4.9l-8,1.8l2.1,4L182.6,226.8z M165.1,230.2l7.7-2.1l-2.1-3.5l-2.4,0.6l0.8,2.4l-1.6,0.3l-0.9-1.9l-3.5,1.2
			L165.1,230.2z M194.7,229.7l0,6.8l5.2,1.6l0.5-7.2L194.7,229.7z M194.8,239l-0.9,7.5l4,2.1l1.8-8L194.8,239z M193.5,248.8
			l-2.1,7.7l3.1,2l1.2-3.5l-1.9-0.9l0.3-1.6l2.4,0.8l0.6-2.4L193.5,248.8z M200.8,213.4l1,6.4l3.7,0.6v-6.8L200.8,213.4z
			 M191.1,213.9l1.6,5.2l6.8,0l-1.3-5.8L191.1,213.9z M188.7,214.1l-8,1.8l2.1,4l7.5-0.9L188.7,214.1z M172.8,222.5l7.7-2.1
			l-2.1-3.5l-2.4,0.6l0.8,2.4l-1.6,0.3l-0.9-1.9l-3.5,1.2L172.8,222.5z M202.4,222l0,6.8l3.1,1v-7.1L202.4,222z M202.5,231.2
			l-0.9,7.5l3.9,2.1v-8.6L202.5,231.2z M201.2,241.1l-2.1,7.7l3.1,2l1.2-3.5l-1.9-0.9l0.3-1.6l2.4,0.8l0.6-2.4L201.2,241.1z
			 M198.9,206.2l1.6,5.2l5,0v-5.7L198.9,206.2z M188.5,208.2l2.1,4l7.5-0.9l-1.6-4.9L188.5,208.2z M180.6,214.7l7.7-2.1l-2.1-3.5
			l-2.4,0.6l0.8,2.4l-1.6,0.3l-0.9-1.9l-3.5,1.2L180.6,214.7z M204.3,198.6l-8,1.8l2.1,4l7.2-0.8v-1L204.3,198.6z M196,204.8
			l-2.1-3.5l-2.4,0.6l0.8,2.4l-1.6,0.3l-0.9-1.9l-3.5,1.2l2,3.1L196,204.8z M205.5,195.6v-3.3l-1.6,0.4L205.5,195.6z M203.7,197.1
			l-2.1-3.5l-2.4,0.6l0.8,2.4l-1.6,0.3l-0.9-1.9l-3.5,1.2l2,3.1L203.7,197.1z M201.8,188.4l2,3.1l1.7-0.5v-3.4l-0.2-0.4L201.8,188.4
			z M239.6,174.6l0.2,1h6.8l-0.1-0.8L239.6,174.6z M229.9,175.1l0.2,0.5h7.3l-0.2-1L229.9,175.1z M226.2,175.6h1.4l-0.1-0.3
			L226.2,175.6z M247.4,166.9l1,6.4l6.4,1l-0.5-7.2L247.4,166.9z M237.6,167.4l1.6,5.2l6.8,0l-1.3-5.8L237.6,167.4z M227.2,169.4
			l2.1,4l7.5-0.9l-1.6-4.9L227.2,169.4z M224.9,170.3l-2.3,0.6v0.1l0.8,2.3l-0.8,0.2v1.6l4.5-1.2L224.9,170.3z M249,175.6h0.8
			l-0.8-0.2V175.6z M262,159.4l-6.9-0.2l1,6.4l6.4,1L262,159.4z M252.6,159.1l-7.2,0.5l1.6,5.2l6.8,0L252.6,159.1z M243,159.8
			l-8,1.8l2.1,4l7.5-0.9L243,159.8z M232.6,162.6l-2.4,0.6l0.8,2.4l-1.6,0.3l-0.9-1.9l-3.5,1.2l2,3.1l7.7-2.1L232.6,162.6z
			 M262.5,169l-5.8-1.3l0,6.8l5.2,1.6L262.5,169z M261.7,178.6l-4.9-1.6l-0.2,2v5.8l3.4,1.8L261.7,178.6z M259,188.9l-2.4-1.5v3.2
			l1.8,0.6L259,188.9z M256.6,192.5v3.6l1-3.1L256.6,192.5z M263.8,157.8l6.4,1l-0.5-7.2l-6.9-0.2L263.8,157.8z M260.4,151.4
			l-7.2,0.5l1.6,5.2l6.8,0L260.4,151.4z M242.7,153.9l2.1,4l7.5-0.9l-1.6-4.9L242.7,153.9z M242.5,158.3l-2.1-3.5l-2.4,0.6l0.8,2.4
			l-1.6,0.3l-0.9-1.9l-3.5,1.2l2,3.1L242.5,158.3z M264.5,166.8l5.2,1.6l0.5-7.2l-5.8-1.3L264.5,166.8z M264.6,169.2l-0.9,7.5l4,2.1
			l1.8-8L264.6,169.2z M261.1,186.7l3.1,2l1.2-3.5l-1.9-0.9l0.3-1.6l2.4,0.8l0.6-2.4l-3.5-2.1L261.1,186.7z M278,151l-0.5-7.2
			l-6.9-0.2l1,6.4L278,151z M262.5,149.3l6.8,0l-1.3-5.8l-7.2,0.5L262.5,149.3z M252.6,150.2l7.5-0.9l-1.6-4.9l-8,1.8L252.6,150.2z
			 M242.6,152.7l7.7-2.1l-2.1-3.5l-2.4,0.6l0.8,2.4l-1.6,0.3l-0.9-1.9l-3.5,1.2L242.6,152.7z M272.2,159l5.2,1.6l0.5-7.2l-5.8-1.3
			L272.2,159z M272.3,161.4l-0.9,7.5l4,2.1l1.8-8L272.3,161.4z M268.9,179l3.1,2l1.2-3.5l-1.9-0.9l0.3-1.6l2.4,0.8l0.6-2.4l-3.5-2.1
			L268.9,179z M279.3,142.3l6.4,1l-0.5-7.2l-6.9-0.2L279.3,142.3z M270.3,141.6l6.8,0l-1.3-5.8l-7.2,0.5L270.3,141.6z M260.4,142.4
			l7.5-0.9l-1.6-4.9l-8,1.8L260.4,142.4z M258,142.8l-2.1-3.5l-2.4,0.6l0.8,2.4l-1.6,0.3l-0.9-1.9l-3.5,1.2l2,3.1L258,142.8z
			 M280,151.3l5.2,1.6l0.5-7.2l-5.8-1.3L280,151.3z M285,155.3l-4.9-1.6l-0.9,7.5l4,2.1L285,155.3z M276.6,171.2l3.1,2l1.2-3.5
			l-1.9-0.9l0.3-1.6l2.4,0.8l0.6-2.4l-3.5-2.1L276.6,171.2z M287.1,134.5l6.4,1l-0.5-7.2l-6.9-0.2L287.1,134.5z M278,133.8l6.8,0
			l-1.3-5.8l-7.2,0.5L278,133.8z M275.6,133.8l-1.6-4.9l-8,1.8l2.1,4L275.6,133.8z M263.7,131.6l-2.4,0.6l0.8,2.4l-1.6,0.3l-0.9-1.9
			l-3.5,1.2l2,3.1l7.7-2.1L263.7,131.6z M293.5,137.9l-5.8-1.3l0,6.8l5.2,1.6L293.5,137.9z M292.8,147.5l-4.9-1.6l-0.9,7.5l4,2.1
			L292.8,147.5z M286.5,155.8l-2.1,7.7l3.1,2l1.2-3.5l-1.9-0.9l0.3-1.6l2.4,0.8l0.6-2.4L286.5,155.8z M293.9,120.3l1,6.4l6.4,1
			l-0.5-7.2L293.9,120.3z M285.8,126.1l6.8,0l-1.3-5.8l-7.2,0.5L285.8,126.1z M275.9,126.9l7.5-0.9l-1.6-4.9l-8,1.8L275.9,126.9z
			 M273.5,127.3l-2.1-3.5l-2.4,0.6l0.8,2.4l-1.6,0.3l-0.9-1.9l-3.5,1.2l2,3.1L273.5,127.3z M295.5,135.8l5.2,1.6l0.5-7.2l-5.8-1.3
			L295.5,135.8z M298.7,147.8l1.8-8l-4.9-1.6l-0.9,7.5L298.7,147.8z M294.2,148.1l-2.1,7.7l3.1,2l1.2-3.5l-1.9-0.9l0.3-1.6l2.4,0.8
			l0.6-2.4L294.2,148.1z M301.6,112.6l1,6.4l6.4,1l-0.5-7.2L301.6,112.6z M293.5,118.3l6.8,0l-1.3-5.8l-7.2,0.5L293.5,118.3z
			 M283.6,119.1l7.5-0.9l-1.6-4.9l-8,1.8L283.6,119.1z M276.1,119.3l-0.9-1.9l-3.5,1.2l2,3.1l7.7-2.1l-2.1-3.5l-2.4,0.6l0.8,2.4
			L276.1,119.3z M303.2,128l5.2,1.6l0.5-7.2l-5.8-1.3L303.2,128z M302.4,137.9l4,2.1l1.8-8l-4.9-1.6L302.4,137.9z M304.1,146.5
			l-1.9-0.9l0.3-1.6l2.4,0.8l0.6-2.4l-3.5-2.1l-2.1,7.7l3.1,2L304.1,146.5z M310.3,111.3l6.4,1l-0.3-4.6h-6.7L310.3,111.3z
			 M301.3,110.6l6.8,0l-0.7-3h-7.1L301.3,110.6z M298.9,110.5l-1-2.9h-8.6l2,3.8L298.9,110.5z M289,111.8l-2.1-3.5l-2.4,0.6l0.8,2.4
			l-1.6,0.3l-0.9-1.9l-3.5,1.2l2,3.1L289,111.8z M311,120.3l5.2,1.6l0.5-7.2l-5.8-1.3L311,120.3z M311.1,122.7l-0.9,7.5l4,2.1l1.8-8
			L311.1,122.7z M310.3,136.2l2.4,0.8l0.6-2.4l-3.5-2.1l-2.1,7.7l3.1,2l1.2-3.5l-1.9-0.9L310.3,136.2z M318.7,112.5l5.2,1.6l0.5-6.6
			h-5.7L318.7,112.5z M318.8,114.9l-0.9,7.5l4,2.1l1.8-8L318.8,114.9z M315.4,132.5l3.1,2l1.2-3.5l-1.9-0.9l0.3-1.6l2.4,0.8l0.6-2.4
			l-3.5-2.1L315.4,132.5z M323.1,124.7l1.5,0.9v-6.2L323.1,124.7z M178.8,376.4c-3.4,0.1-6.9,0.4-10.2,0.8c0.3,0.8,0.6,1.7,0.8,2.6
			h10.1C179.3,378.5,179,377.3,178.8,376.4 M156,379.4c0,0,0,0.1,0.1,0.3h10.3c-0.2-0.7-0.5-1.4-0.8-2.2
			C161.9,378.1,158.6,378.7,156,379.4 M200.1,356.8c1.6,6.4,2.6,14.9,2.3,22.9h-2.2c0-0.5,0.1-1.1,0.1-1.6c-1.9-0.5-4.9-1.1-7.6-1
			c0.1,0.7,0.1,1.6,0.1,2.6H190c-0.1-1.1-0.3-2.1-0.5-3.1c-2.7-0.3-5.8-0.4-9-0.4c0.3,1.1,0.5,2.2,0.8,3.4h1.1c-0.3,0-0.7,0.1-1,0.1
			h24.1v-0.1h0.1v-22.9C203.8,356.8,201.9,356.8,200.1,356.8 M189.9,364.2c3.6,0,7.1,0.1,9.4,0.2c0.1-2.8-0.5-5.7-1-7.6
			c-3.4,0.1-6.9,0.4-10.2,0.8C188.8,359.6,189.5,362,189.9,364.2 M187.1,364.3c-0.2-1.2-0.8-3.3-2-6.3c-3.7,0.5-7,1.2-9.6,1.9
			c0,0,0.9,2.6,2.6,5.1C180.4,364.6,183.7,364.4,187.1,364.3 M165.8,369.6l2.8,5.4c9.8-1.8,22.8-0.9,31.5,1.4c0.1-3.2,0-6.3-0.4-9
			C189.5,365.2,170.7,368,165.8,369.6 M195,340.4c0,0,0.9,2.6,2.6,5.1c2.2-0.4,5.5-0.7,9-0.8c-0.3-1.2-0.8-3.3-2-6.3
			C201,339,197.7,339.7,195,340.4 M207.6,338.1c0.7,2,1.4,4.4,1.8,6.6c3.6,0,7.1,0.1,9.4,0.2c0.1-2.8-0.5-5.7-1-7.6
			C214.4,337.4,210.9,337.7,207.6,338.1 M185.3,350.1l2.8,5.4c5.3-1,11.4-1.2,17.4-0.8v-7.5C197,347.6,188.4,349.1,185.3,350.1
			 M238.3,325.4c0.1-2.8-0.5-5.7-1-7.6c-3.4,0.1-6.9,0.4-10.2,0.8c0.7,2,1.4,4.4,1.8,6.6C232.6,325.2,236.1,325.2,238.3,325.4
			 M239.1,317.7c0.2,0.6,0.3,1.3,0.5,1.9v-1.9C239.4,317.7,239.3,317.7,239.1,317.7 M214.6,320.9c0,0,0.9,2.6,2.6,5.1
			c2.2-0.4,5.5-0.7,9-0.8c-0.2-1.2-0.8-3.3-2-6.3C220.5,319.5,217.2,320.2,214.6,320.9 M239.2,339c-1.9-0.5-4.9-1.1-7.6-1
			c0.1,1.9,0.2,4.6,0.2,7.6h-2.5c-0.1-3-0.3-5.7-0.8-8.1c-2.7-0.3-5.8-0.4-9-0.4c0.6,2.5,1.2,5.4,1.6,8.4h-15.6v0.1h34v-0.1h-0.7
			C239,343.5,239.1,341.3,239.2,339 M204.9,330.6l2.8,5.4c9.8-1.8,22.8-0.9,31.5,1.4c0.1-3.2,0-6.3-0.4-9
			C228.6,326.1,209.7,329,204.9,330.6 M267.6,298.6c-2.7-0.3-5.8-0.4-9-0.4c0.8,3,1.4,6.4,1.8,10.1c0.4,1.3,0.8,2.7,1.2,4
			c1.5,4.5,3.2,8.8,5.3,13C268.2,317.4,269.2,305.9,267.6,298.6 M234.1,301.3c0,0,0.9,2.6,2.6,5.1c0.8-0.2,1.8-0.3,2.8-0.4v-6
			C237.5,300.5,235.7,300.9,234.1,301.3 M224.4,311l2.8,5.4c3.8-0.7,8-1,12.3-1v-7C232.9,309.1,226.8,310.2,224.4,311 M276.4,278.7
			c-3.4,0.1-6.9,0.4-10.2,0.8c0.7,2,1.4,4.4,1.8,6.6c3.6,0,7.1,0.1,9.4,0.2C277.5,283.6,276.9,280.7,276.4,278.7 M284.9,313.1
			c1.6-4.9,4.4-23.7,2.3-34c-2.7-0.3-5.8-0.4-9-0.4c2.3,8.7,3.2,21.7,1.4,31.5L284.9,313.1z M265.2,286.2c-0.2-1.2-0.8-3.3-2-6.3
			c-2.4,0.3-4.7,0.7-6.7,1.2c0,0.4,0,0.9,0,1.3c0,0.5,0,1,0,1.5c0,1,0.1,2,0.1,3C259,286.5,262,286.3,265.2,286.2 M277.1,313.2
			c-3-1.2-5.1-1.8-6.3-2c-0.1,3.5-0.3,6.8-0.8,9c2.6,1.7,5.1,2.6,5.1,2.6C275.9,320.2,276.5,316.8,277.1,313.2 M278.3,298.2
			c0.1-3.2,0-6.3-0.4-9c-5.7-1.2-13.9-0.9-21-0.1c0.2,2.3,0.5,4.5,0.8,6.7C265,295.9,272.6,296.8,278.3,298.2 M270.8,308.4
			c2.3,0.4,4.6,1.1,6.6,1.8c0.4-3.3,0.7-6.8,0.8-10.2c-1.9-0.5-4.9-1.1-7.6-1C270.8,301.3,270.9,304.8,270.8,308.4 M295.9,259.2
			c-3.4,0.1-6.9,0.4-10.2,0.8c0.7,2,1.4,4.4,1.8,6.6c3.6,0,7.1,0.1,9.4,0.2C297,264.1,296.4,261.1,295.9,259.2 M306.7,259.5
			c-2.7-0.3-5.8-0.4-9-0.4c2.3,8.7,3.2,21.7,1.4,31.5l5.4,2.8C306,288.7,308.8,269.8,306.7,259.5 M284.8,266.7
			c-0.2-1.2-0.8-3.3-2-6.3c-3.7,0.5-7,1.2-9.6,1.9c0,0,0.9,2.6,2.6,5.1C278,267,281.3,266.8,284.8,266.7 M290.4,288.9
			c2.3,0.4,4.6,1.1,6.6,1.8c0.4-3.3,0.7-6.8,0.8-10.2c-1.9-0.5-4.9-1.1-7.6-1C290.3,281.8,290.4,285.3,290.4,288.9 M296.6,293.6
			c-3-1.2-5.1-1.8-6.3-2c-0.1,3.5-0.3,6.8-0.8,9c2.6,1.7,5.1,2.6,5.1,2.6C295.4,300.6,296.1,297.3,296.6,293.6 M266.3,277.3
			c9.8-1.8,22.8-0.9,31.5,1.4c0.1-3.2,0-6.3-0.4-9c-10.3-2.2-29.2,0.7-34,2.3L266.3,277.3z M317.2,239.6c2.3,8.7,3.2,21.7,1.4,31.5
			l5.4,2.8c0.2-0.6,0.4-1.5,0.7-2.6v-31.6C322.3,239.7,319.8,239.6,317.2,239.6 M316.4,247.3c0.1-2.8-0.5-5.7-1-7.6
			c-3.4,0.1-6.9,0.4-10.2,0.8c0.7,2,1.4,4.4,1.8,6.6C310.7,247.1,314.2,247.2,316.4,247.3 M304.3,247.2c-0.2-1.2-0.8-3.3-2-6.3
			c-3.7,0.5-7,1.2-9.6,1.9c0,0,0.9,2.6,2.6,5.1C297.5,247.5,300.8,247.3,304.3,247.2 M309.1,281.1c2.6,1.7,5.1,2.6,5.1,2.6
			c0.7-2.6,1.4-6,1.9-9.6c-3-1.2-5.1-1.8-6.3-2C309.7,275.6,309.5,278.9,309.1,281.1 M317.3,260.9c-1.9-0.5-4.9-1.1-7.6-1
			c0.2,2.2,0.3,5.7,0.2,9.4c2.3,0.4,4.6,1.1,6.6,1.8C316.9,267.8,317.2,264.3,317.3,260.9 M317.3,259.2c0.1-3.2,0-6.3-0.4-9
			c-10.3-2.2-29.2,0.7-34,2.3l2.8,5.4C295.7,256,308.6,256.9,317.3,259.2 M323.8,227.6c-0.2-1.2-0.8-3.3-2-6.3
			c-3.7,0.5-7,1.2-9.6,1.9c0,0,0.9,2.6,2.6,5.1C317,228,320.3,227.7,323.8,227.6 M302.5,232.9l2.8,5.4c5.8-1.1,12.8-1.2,19.3-0.6
			v-7.7C315.5,230.2,305.8,231.9,302.5,232.9 M324.6,218.3v-5.5c-1.1,0.2-1.9,0.5-2.6,0.7L324.6,218.3z M404.3,161.9
			c-2.7-0.3-5.8-0.4-9-0.4c2.3,8.7,3.2,21.7,1.4,31.5l5.4,2.8C403.6,191.1,406.5,172.2,404.3,161.9 M393.5,161.6c-0.3,0-0.6,0-0.9,0
			v7.5c0.7,0,1.3,0.1,1.9,0.1C394.6,166.5,394,163.5,393.5,161.6 M394.2,196c-0.6-0.2-1.1-0.4-1.6-0.6v9
			C393.2,202,393.8,199.1,394.2,196 M395.4,181.1c0.1-3.2,0-6.3-0.4-9c-0.8-0.2-1.6-0.3-2.5-0.4v8.7
			C393.6,180.7,394.5,180.9,395.4,181.1 M394.6,193.1c0.4-3.3,0.7-6.8,0.8-10.2c-0.8-0.2-1.7-0.4-2.8-0.6v3.4v3.6v3.2
			C393.3,192.6,394,192.8,394.6,193.1 M421.5,176.4c1.6-4.9,4.4-23.7,2.3-34c-2.7-0.3-5.8-0.4-9-0.4c2.3,8.7,3.2,21.7,1.4,31.5
			L421.5,176.4z M392.9,150.3c2.2-0.4,5.5-0.7,9-0.8c-0.2-1.2-0.8-3.3-2-6.3c-2.6,0.4-5.1,0.8-7.3,1.3v1.7v3.3v0.3
			C392.7,150,392.8,150.1,392.9,150.3 M414,149.7c0.1-2.8-0.5-5.7-1-7.6c-3.4,0.1-6.9,0.4-10.2,0.8c0.7,2,1.4,4.4,1.8,6.6
			C408.3,149.4,411.8,149.5,414,149.7 M413.7,176.5c-3-1.2-5.1-1.8-6.3-2c-0.1,3.5-0.3,6.8-0.8,9c2.6,1.7,5.1,2.6,5.1,2.6
			C412.6,183.5,413.2,180.1,413.7,176.5 M407.5,171.7c2.3,0.4,4.6,1.1,6.6,1.8c0.4-3.3,0.7-6.8,0.8-10.2c-1.9-0.5-4.9-1.1-7.6-1
			C407.5,164.6,407.6,168.1,407.5,171.7 M415,161.6c0.1-3.2,0-6.3-0.4-9c-5.9-1.3-14.7-0.8-22,0v6.7C400.5,159,408.8,160,415,161.6
			 M412.4,130.8c2.2-0.4,5.5-0.7,9-0.8c-0.2-1.2-0.8-3.3-2-6.3c-3.7,0.5-7,1.2-9.6,1.9C409.8,125.6,410.7,128.2,412.4,130.8
			 M443.3,122.9c-2.7-0.3-5.8-0.4-9-0.4c2.3,8.7,3.2,21.7,1.4,31.5l5.4,2.8C442.7,152,445.5,133.2,443.3,122.9 M422.4,123.3
			c0.7,2,1.4,4.4,1.8,6.6c3.6,0,7.1,0.1,9.4,0.2c0.1-2.8-0.5-5.7-1-7.6C429.2,122.7,425.7,122.9,422.4,123.3 M433.3,157
			c-3-1.2-5.1-1.8-6.3-2c-0.1,3.5-0.3,6.8-0.8,9c2.6,1.7,5.1,2.6,5.1,2.6C432.1,164,432.7,160.6,433.3,157 M434.5,142
			c0.1-3.2,0-6.3-0.4-9c-10.3-2.2-29.2,0.7-34,2.3l2.8,5.4C412.8,138.9,425.8,139.8,434.5,142 M434.5,143.8c-1.9-0.5-4.9-1.1-7.6-1
			c0.2,2.2,0.3,5.7,0.2,9.4c2.3,0.4,4.6,1.1,6.6,1.8C434.1,150.7,434.3,147.2,434.5,143.8 M443.7,110.4c3.6,0,7.1,0.1,9.4,0.2
			c0.1-1,0-2-0.1-3.1h-9.9C443.3,108.5,443.5,109.5,443.7,110.4 M432,111.2c2.2-0.4,5.5-0.7,9-0.8c-0.1-0.7-0.4-1.6-0.8-2.9h-10.2
			C430.4,108.6,431.1,109.9,432,111.2 M454.9,107.6c1.5,8.3,1.9,18.7,0.4,26.9l5.4,2.8c0-0.1,0-0.2,0.1-0.2v-29.5H454.9z
			 M452.8,137.4c-3-1.2-5.1-1.8-6.3-2c-0.1,3.5-0.3,6.8-0.8,9c2.6,1.7,5.1,2.6,5.1,2.6C451.6,144.4,452.3,141.1,452.8,137.4
			 M454,124.3c-1.9-0.5-4.9-1.1-7.6-1c0.2,2.2,0.3,5.7,0.2,9.4c2.3,0.4,4.6,1.1,6.6,1.8C453.6,131.2,453.9,127.7,454,124.3
			 M419.6,115.8l2.8,5.4c9.8-1.8,22.8-0.9,31.5,1.4c0.1-3.2,0-6.3-0.4-9C443.3,111.4,424.5,114.2,419.6,115.8"/>
	</g>
</g>
</svg>
