<svg id="Layer_1" data-name="Layer 1" xmlns="http://www.w3.org/2000/svg" viewBox="0 0 141.73 141.73"><title>01</title><path d="M45.46,66.27c-4.07,0-5.82-3.91-5.82-8.74h0c0-4.83,1.75-8.75,5.82-8.75a4.67,4.67,0,0,1,3.45,1.59l.28-1.2h3.72V65.7H49.19l-.25-1a4.65,4.65,0,0,1-3.48,1.62M44,57.52h0c0,2.52.7,4.57,2.33,4.57,1.38,0,2.32-2.05,2.32-4.57h0c0-2.52-.94-4.57-2.32-4.57C44.7,52.94,44,55,44,57.51" style="fill:#6a6a69;fill-rule:evenodd"/><path d="M59,65.7H54.55V49.16h3.72l.29,1.2A6.05,6.05,0,0,1,63,48.77v2.61a5.87,5.87,0,0,1,5.22-2.61c5.26,0,6.54,4.41,6.54,9.84h-9.1c0,2,1,3.61,2.47,3.61a2.12,2.12,0,0,0,2.35-1.95h4.19c-.38,3.38-2.06,5.9-6.62,5.9-4,0-6.72-3.38-6.72-7.56h0a16.81,16.81,0,0,1,.75-5.35,1.42,1.42,0,0,0-.74-.22c-2,0-2.37,2-2.4,4.48Zm9.13-13c-1.37,0-2.3,1.28-2.3,2.86h4.61c0-1.58-.7-2.86-2.31-2.86" style="fill:#6a6a69;fill-rule:evenodd"/><path d="M80.3,56.55v-.93h0c0-1.5.26-2.71,1.57-2.71,1.1,0,1.43.66,1.52,1.62V65.7h4.36V52.59c0-2.32-1.39-3.82-4.66-3.82a4.27,4.27,0,0,0-3.24,1.59l-.28-1.2H75.82V65.7H80.3Z" style="fill:#6a6a69;fill-rule:evenodd"/><path d="M94.63,66.27c-4.06,0-5.81-3.91-5.81-8.74h0c0-4.83,1.75-8.75,5.81-8.75a4.66,4.66,0,0,1,3.45,1.59l.29-1.2h3.72V65.7H98.37l-.25-1a4.68,4.68,0,0,1-3.49,1.62m-1.45-8.75h0c0,2.52.7,4.57,2.32,4.57,1.39,0,2.33-2.05,2.33-4.57h0c0-2.52-.94-4.57-2.33-4.57-1.62,0-2.32,2.05-2.32,4.57" style="fill:#6a6a69;fill-rule:evenodd"/><path d="M56.82,70.24a9.54,9.54,0,0,0-4.11-1,9.44,9.44,0,0,0-4.46,1l-11.4,7.16L52.55,87l15.7-9.73Z" style="fill:#6a6a69;fill-rule:evenodd"/><path d="M93.16,70.08a11.12,11.12,0,0,0-4.4-.89,8.86,8.86,0,0,0-4.3,1.13l-11,6.94L89.15,87l15.73-9.73Z" style="fill:#6a6a69;fill-rule:evenodd"/><path d="M55.23,88.51l11.4,7.11a8.65,8.65,0,0,0,4.17,1.31,8.87,8.87,0,0,0,4.53-1.34l11.3-7L70.8,78.84Z" style="fill:#6a6a69;fill-rule:evenodd"/></svg>