<svg id="Layer_1" data-name="Layer 1" xmlns="http://www.w3.org/2000/svg" viewBox="0 0 141.73 141.73"><title>02</title><path d="M11.34,68.46c0,4,2.69,7.4,9,7.41a7.86,7.86,0,0,0,6.3-3.17l3.82,3.74V67.76H23.23c0,4.14-1.07,5.9-2.47,5.9s-2.59-1.19-2.6-5.33c0-3.76.85-5.08,4.11-5.08a22.06,22.06,0,0,1,8.17,2.27V61.05H21.08c-7.31,0-9.74,3.38-9.74,7.41" style="fill:#6a6a69"/><path d="M64.25,70.06c0-3.07-.74-5.55-6.48-5.56H49.58V75.86h5.3V70.06c0-3.26.87-3.88,1.94-3.88s1.93.62,1.93,3.88v1.71Z" style="fill:#6a6a69"/><path d="M40.1,74.51c-1.07,0-1.93-.63-1.93-4.32s.86-4.33,1.93-4.33S42,66.49,42,70.19s-.87,4.32-1.93,4.32m0-10.33c-5.74,0-7.6,2.94-7.59,6s1.85,6,7.59,6,7.59-2.94,7.59-6-1.86-6-7.59-6" style="fill:#6a6a69"/><path d="M107.21,64.51h-8V75.86h5.5V70.06c0-3.26.68-3.87,1.75-3.88s1.73.62,1.74,3.88v5.81h5.5V70.06c0-3.07-.32-5.55-6.48-5.55" style="fill:#6a6a69"/><path d="M73,74.19c-1.07,0-1.94-.75-1.94-4s.87-4,1.94-4,1.93.75,1.93,4-.87,4-1.93,4m-.19-9.68c-5.74,0-7.25,2.6-7.24,5.68s1.5,5.67,7.24,5.68H74.9c-.22,2-1.08,2.75-2.36,2.75-2.14,0-4.66-1.22-5.92-1.72v3.21a46,46,0,0,0,6,.57c5.82,0,7.46-3,7.46-6.61V64.51Z" style="fill:#6a6a69"/><path d="M91.28,70.18c0,3.26-.87,4-1.94,4s-1.93-.73-1.93-4,.87-4,1.93-4,1.94.74,1.94,4m-9.37,0c0,3.07,1.51,5.68,7.24,5.68h7.27V64.5H89.15c-5.73,0-7.24,2.62-7.24,5.68" style="fill:#6a6a69"/><path d="M124.89,64.51v5.55c0,3.26-.67,4.13-1.74,4.13s-1.74-.87-1.74-4.13V64.51h-5.5v5.56c0,3.07,1.12,5.8,6.86,5.8h2.07c-.23,2-1.08,2.76-2.37,2.76-2.08,0-4.46-1.22-5.72-1.72v3.21a43.36,43.36,0,0,0,5.83.57c5.81,0,7.81-3,7.81-6.61V64.51Z" style="fill:#6a6a69"/></svg>