<svg id="Layer_1" data-name="Layer 1" xmlns="http://www.w3.org/2000/svg" viewBox="0 0 141.73 141.73"><title>03</title><g id="Layer_1-2" data-name="Layer 1-2"><path d="M38.23,58.83,35.06,73.41a1.62,1.62,0,0,1-.86,1,32,32,0,0,1-13.89,3.4,23.74,23.74,0,0,1-12.76-3.4.94.94,0,0,1-.44-1l3.22-14.82a.43.43,0,0,1,.69-.29,22.55,22.55,0,0,0,8.62,3.12c.38.06.5.31.33.67L15.32,73.37a.18.18,0,0,0,.11.25.26.26,0,0,0,.21,0C17.75,71.78,19.89,68.78,22,67a.56.56,0,0,1,.81.06l0,0c.7.91,3.27,5.75,3.82,6.61a.28.28,0,0,0,.38.08.27.27,0,0,0,.12-.23c-.1-3.42-.25-9.75-.29-11.38,0-.27.08-.55.36-.59a34.38,34.38,0,0,0,10.54-3.18C38.1,58.18,38.35,58.26,38.23,58.83Z" style="fill:#6a6a69"/><circle cx="24.04" cy="57.17" r="2.37" style="fill:#6a6a69"/><path d="M42.59,72.35l2.72-12.47A1.17,1.17,0,0,1,46.42,59H48a1.16,1.16,0,0,1,1.16,1.16,1.1,1.1,0,0,1,0,.25L46.4,72.85a1.16,1.16,0,0,1-1.11.9H43.72a1.14,1.14,0,0,1-1.15-1.13A1.1,1.1,0,0,1,42.59,72.35Z" style="fill:#6a6a69"/><path d="M65.43,60.59a6.38,6.38,0,0,1,.74,5l-1.6,7.27a1.14,1.14,0,0,1-1.11.9H61.89a1.14,1.14,0,0,1-1.15-1.13,1,1,0,0,1,0-.25l1.51-7a3,3,0,0,0-.38-2.54A2.53,2.53,0,0,0,59.71,62c-2.24,0-3.73,1.76-4.51,5.26L54,72.85a1.17,1.17,0,0,1-1.11.9H51.28a1.13,1.13,0,0,1-1.13-1.13,1,1,0,0,1,0-.25L52.9,59.9A1.13,1.13,0,0,1,54,59h1.57a1.13,1.13,0,0,1,1.13,1.15,1.06,1.06,0,0,1,0,.25h0A5.52,5.52,0,0,1,61,58.58,4.76,4.76,0,0,1,65.43,60.59Z" style="fill:#6a6a69"/><path d="M83.2,60.59a6.29,6.29,0,0,1,.74,5l-1.6,7.27a1.15,1.15,0,0,1-1.11.9H79.66a1.14,1.14,0,0,1-1.15-1.13,1,1,0,0,1,0-.25l1.51-7a3,3,0,0,0-.38-2.54A2.51,2.51,0,0,0,77.48,62c-2.24,0-3.73,1.76-4.5,5.26l-1.24,5.64a1.17,1.17,0,0,1-1.11.9H69.06a1.15,1.15,0,0,1-1.16-1.13.69.69,0,0,1,0-.25L70.65,59.9a1.16,1.16,0,0,1,1.11-.9h1.57a1.15,1.15,0,0,1,1.16,1.13.74.74,0,0,1,0,.25h0a5.51,5.51,0,0,1,4.34-1.82A4.81,4.81,0,0,1,83.2,60.59Z" style="fill:#6a6a69"/><path d="M100.26,60.82a6.22,6.22,0,0,1,1.66,5.55,8.84,8.84,0,0,1-3,5.6,8.54,8.54,0,0,1-5.78,2.16A7.6,7.6,0,0,1,87.54,72a6.24,6.24,0,0,1-1.67-5.58,9,9,0,0,1,3-5.59,8.7,8.7,0,0,1,5.85-2.16A7.35,7.35,0,0,1,100.26,60.82Zm-3.89,8.74a5.06,5.06,0,0,0,1.76-3.19,3.66,3.66,0,0,0-.8-3.18A3.55,3.55,0,0,0,94.6,62a4.8,4.8,0,0,0-3.14,1.22,4.93,4.93,0,0,0-1.76,3.18,3.57,3.57,0,0,0,.82,3.19,3.69,3.69,0,0,0,2.81,1.21A4.54,4.54,0,0,0,96.37,69.56Z" style="fill:#6a6a69"/><path d="M110,73.73h-2.56a1.15,1.15,0,0,1-1.13-.92L103.72,60a.85.85,0,0,1,.65-1,.5.5,0,0,1,.17,0h2a1.16,1.16,0,0,1,1.13.93l1.7,9,5.89-9.37a1.13,1.13,0,0,1,1-.55h2.25a.85.85,0,0,1,.84.84.91.91,0,0,1-.13.46l-8.3,12.93A1.14,1.14,0,0,1,110,73.73Z" style="fill:#6a6a69"/><path d="M132.9,60.82a6.21,6.21,0,0,1,1.65,5.55,8.8,8.8,0,0,1-3,5.6,8.52,8.52,0,0,1-5.78,2.16A7.61,7.61,0,0,1,120.17,72a6.24,6.24,0,0,1-1.67-5.58,9,9,0,0,1,3-5.59,8.66,8.66,0,0,1,5.84-2.16A7.34,7.34,0,0,1,132.9,60.82ZM129,69.56a5.06,5.06,0,0,0,1.76-3.19,3.63,3.63,0,0,0-.8-3.18A3.53,3.53,0,0,0,127.26,62a4.81,4.81,0,0,0-3.15,1.22,4.93,4.93,0,0,0-1.76,3.18,3.6,3.6,0,0,0,.82,3.19A3.67,3.67,0,0,0,126,70.75,4.53,4.53,0,0,0,129,69.56Z" style="fill:#6a6a69"/></g></svg>