<svg id="Layer_1" data-name="Layer 1" xmlns="http://www.w3.org/2000/svg" viewBox="0 0 141.73 141.73"><title>04</title><path d="M19.84,84.5c1.56-.12,2.16-.83,2.25-2.56q.35-6.6.7-13.21c0-.14,0-.28,0-.46h9.68V84.39l1.46.12v6a1.29,1.29,0,0,1-.29.09c-1.74.09-1.74.09-1.93-1.65-.09-.81-.15-1.63-.22-2.49H22.26l-.36,4.09H19.84Zm3.62-.11h6.46V70.23H25.24c0,.34-.09.65-.11,1C25,74,24.9,76.71,24.7,79.46,24.58,81.13,24.9,82.91,23.46,84.39Z" style="fill:#6a6a69"/><path d="M38.57,82l-1.16,4.37H34.87c1.64-6,3.27-12,4.92-18.16,1.22,0,2.44,0,3.66,0a.73.73,0,0,1,.5.47q2.36,8.6,4.66,17.22c0,.14,0,.28.08.41a.54.54,0,0,1-.12,0c-2.33.19-2.33.19-2.91-2.09S45.08,82,42.75,82Zm5.88-2c-.87-3.22-1.72-6.33-2.56-9.45l-.17,0C40.87,73.72,40,76.85,39.17,80Z" style="fill:#6a6a69"/><path d="M101.6,74.37c1.08-2,2.09-3.75,3.05-5.56a1,1,0,0,1,1-.6c.72,0,1.44,0,2.32,0l-3.09,5.6a5.88,5.88,0,0,1-.6,1.07c-1.25,1.49-1.08,2.85,0,4.45,1.31,2,2.34,4.13,3.49,6.21.14.25.26.51.45.86-1,0-1.81,0-2.64,0-.24,0-.52-.33-.66-.58-1.1-1.93-2.18-3.89-3.33-6L99,84.51c-1.2,2.15-1.31,2.2-4,1.8,1-1.89,2.07-3.76,3.1-5.63.54-1,1-2,1.63-2.92a1.12,1.12,0,0,0,0-1.35c-1.37-2.43-2.7-4.88-4-7.32-.13-.25-.25-.51-.43-.87.93,0,1.74,0,2.55,0a1,1,0,0,1,.69.52c.86,1.5,1.68,3,2.52,4.54Z" style="fill:#6a6a69"/><path d="M52.66,81v5.38h-2.5v-18c2.56,0,5.08-.13,7.58,0a4.24,4.24,0,0,1,3.67,3.15,8.44,8.44,0,0,1-.13,6.36,4.73,4.73,0,0,1-4.55,3C55.41,81,54.09,81,52.66,81Zm0-2h3.53a2.42,2.42,0,0,0,2.58-1.83,8.4,8.4,0,0,0,0-5.2,2.34,2.34,0,0,0-2.12-1.73c-1.3-.1-2.62,0-4,0Z" style="fill:#6a6a69"/><path d="M68.72,68.23c2.34,0,4.64-.13,6.91,0A4.71,4.71,0,0,1,80,71.7a8.61,8.61,0,0,1-.16,6.2,4.74,4.74,0,0,1-4.61,3c-1.32,0-2.63,0-4,0v5.4H68.72ZM71.22,79h3.62a2.34,2.34,0,0,0,2.36-1.49,7.76,7.76,0,0,0,0-5.82,2.12,2.12,0,0,0-1.86-1.42c-1.36-.09-2.72,0-4.12,0Z" style="fill:#6a6a69"/><path d="M92.06,68.25h2.72c-.48,1.39-.94,2.72-1.42,4-1.6,4.48-3.21,8.94-4.79,13.42-.19.55-.43.75-1,.7s-1.23,0-2,0c.63-1.77,1.22-3.46,1.85-5.23a2.7,2.7,0,0,1-.8-.08c-.26-.1-.6-.25-.68-.47-1.58-4-3.12-8-4.66-12.06a1.65,1.65,0,0,1,0-.35c.83,0,1.65,0,2.45,0,.22,0,.49.36.59.6,1.18,3,2.33,6.08,3.5,9.12.1.27.22.53.42,1Z" style="fill:#6a6a69"/><path d="M108.26,68.22c.9,0,1.7,0,2.48,0a1.07,1.07,0,0,1,.65.62c1.22,3.14,2.41,6.29,3.61,9.44.06.16.14.3.3.63.31-.84.56-1.51.8-2.18.9-2.51,1.82-5,2.68-7.54.25-.75.56-1.15,1.41-1a13.56,13.56,0,0,0,1.7,0c-.72,2-1.4,4-2.09,5.88-1.38,3.86-2.77,7.72-4.13,11.59-.2.58-.46.79-1.06.73s-1.22,0-1.94,0l1.88-5.36c-1.29.41-1.57-.38-1.9-1.27-1.35-3.62-2.75-7.23-4.13-10.84Z" style="fill:#6a6a69"/><path d="M75,57.59H66.91v-3c0-1.73,0-3.47,0-5.2a2.94,2.94,0,0,0-.71-2.1q-4.48-5.43-8.95-10.87l-.82-1c1.28-1,1.42-1,2.49.06,1.9,1.83,3.81,3.66,5.7,5.51,3.31,3.24,9.4,3.46,12.68.1,1.82-1.88,3.75-3.64,5.63-5.46,1.16-1.12,1.16-1.12,2.7-.27-1.43,1.7-2.85,3.37-4.25,5.06-1.92,2.33-3.86,4.65-5.72,7a2.92,2.92,0,0,0-.57,1.67c-.06,2.52,0,5.05,0,7.58C75.07,57,75,57.23,75,57.59Z" style="fill:#6a6a69"/><path d="M40.45,50.14c.16-1,.75-1,1.44-.85,2,.39,4,.73,6,1.13a5.82,5.82,0,0,0,7-5c.22-1.66.52-3.3.71-5,.11-.92.72-.74,1.38-.73,0,.44,0,.87,0,1.3q-.1,4.27-.22,8.54a2.89,2.89,0,0,0,.74,2.08c1.21,1.43,2.33,2.94,3.56,4.51l-4.64,2.92c-1.23-1.55-2.47-3-3.57-4.55a3.75,3.75,0,0,0-2.17-1.36l-9.75-2.85A5.16,5.16,0,0,1,40.45,50.14Z" style="fill:#6a6a69"/><path d="M85.21,59.11,80.57,56.2c1.11-1.42,2.14-2.83,3.28-4.15a4,4,0,0,0,1-3c-.1-2.76-.14-5.52-.21-8.29v-1c.81-.18,1.28-.08,1.38.88.19,1.69.61,3.36.72,5.05a5.2,5.2,0,0,0,4.33,4.56,12.41,12.41,0,0,0,3.65-.06c1.65-.21,3.28-.61,4.92-.93,1.07-.2,1.07-.2,1.6.84L97,51.43c-2.27.68-4.54,1.34-6.79,2.09a3,3,0,0,0-1.28,1C87.65,56,86.48,57.51,85.21,59.11Z" style="fill:#6a6a69"/><path d="M71.13,34.1a4.27,4.27,0,0,1,3.2,1.22,3.52,3.52,0,0,1,.07,5.17,4.58,4.58,0,0,1-6.36.23,3.56,3.56,0,0,1-1.13-3.9,4.21,4.21,0,0,1,3.6-2.71A4.26,4.26,0,0,1,71.13,34.1Z" style="fill:#6a6a69"/><path d="M91.78,49.12a3,3,0,0,1-3.15-2.77,3.07,3.07,0,0,1,3-2.71,3,3,0,0,1,3.16,2.76A2.91,2.91,0,0,1,91.78,49.12Z" style="fill:#6a6a69"/><path d="M53,46.4a2.91,2.91,0,0,1-3.06,2.72,2.85,2.85,0,0,1-3-2.68,3,3,0,0,1,6.05,0Z" style="fill:#6a6a69"/></svg>