<svg id="Layer_1" data-name="Layer 1" xmlns="http://www.w3.org/2000/svg" viewBox="0 0 141.73 141.73"><title>05</title><path d="M72,77.81l0,.52-.26.22-.33.09-.26,0-.24,0-.08.24-.25.16-.46,0-.34.15-.53.25-.3.08-.1.43,0,.29-.39.14-.22-.1L68,80.19l-.25,0L66.67,81l-.58.3-.28-.12-.33-.07L65.05,81l1.52-1-.28-.19.28-.58-.67.36-.24.06-.41-.16L65.19,79l1.17-2.5v-.15L65,78.21l-.25.15-.4-.11L63.75,78l0-.12.09-.28-.57-.51,1-1.13-.39-.38L63,74.81l-.48-.42-1-.76-1.27-1.19L59.81,72l-.48-.52-.94-1-.65-.31-.86-.41a7.83,7.83,0,0,1-3.94-6l0-1.36c.58-2.07,1.07-3.51,3.16-4.48l.46.34-.07.36c-.25.29-.66.47-.86.68-.86.87-1.31,1.39-1.7,3.66l0,1,.18,1.28.56,1.32.46.86a5.87,5.87,0,0,0,1.53,1.33l-1-1.09c-.13-.39.1-.34.8-.07l1.32,1.57.83.67.62.18,1.26,0L59,68l-.63.12c-.61-.14-.73-.42-.37-.82l.23-.15-.4-.57-.61-.82-1.33,1.1h-.43l-.3-.38.07-.27.92-.76.56-.54-.83-1.13c-.2-.38.09-.41.39-.52l.22.22.25.33.55.64.5-.35,1.08-.77,1-.67,2.39-1.26,2.64-1.36-.16-.49v-.1l-.12-.52.53-.12.34.26.18.67L67,59.17l1.11-.32.43.44a10.59,10.59,0,0,0-.89-1.73,7.5,7.5,0,0,1-1.31-1.06c-2.85-2.8-7.89-2.45-11.15.68l-.73,1.08-.17.24-.67.19a.9.9,0,0,1,0-1l.6-1.08,1.27-1.21c.39-.23.87-.59,1.26-.77,5.47-2.57,9.33-.49,11.38,2.13-.07,0,.36.43.75,1a8.3,8.3,0,0,1,1,3.24l0,1.17.28.15.49.54,0,.34-.46,0-.19,1.05-.2.1-.37,1.37-.41.73.18,1-.17.43.13.35-.17.57.27.67-.14.09.17.6.06,2.2,0,.77h.19l.69.51.15.69.32.22.07.58.19.19,0,.5.31,1,.4.34ZM60.81,65.22l1.54-.91,1.45-.69.93-.46.8-.33-.42-1.59-1.17.52-1.55.76L61.5,63l-1.11.61-.45.34-.44.25L58,65.33l.42.62.43.59Zm.71,4.8a7,7,0,0,0,2.41-.74l1.14-.43L66.3,68l.41-.54-1-3.41-2.2.88-1.34.69-1.85,1.25-.75.56A12,12,0,0,0,61.52,70Zm6.91,3.28.23-.64-.11-1.78-.16.41-.21-.16L67.1,68.6l-2,1.12-1.24.47-1.77.33,1.84,2.19.14.83h-.42l-2.58-2.92H59.48l.14.13.14.13.15.14.14.13.14.13.15.14.26.24.14.13.15.14.14.13h.09l.15.14.15.25.13.08.14.07.18.24.68.59L64,74.73l.43.32.53.42,1.15-.72.55-.26.26-.2,1.68-.75Zm-.07-9.11.08-.94a4.6,4.6,0,0,0-1.68.45l.62,3.09.54-.65.45-.75Zm0,3.23-.62.66.8,2.4Zm.52-5.92V60.4l-.4,0L68,60.3l-.23-.25-1.27.44-.52.3.27.88.25.76.84-.22,1.19-.14.12-.68Z" style="fill:#6a6a69"/><polygon points="77.11 57.61 79.67 63.4 80.92 63.21 77.15 54.86 73.4 63.21 74.63 63.4 77.11 57.61" style="fill:#6a6a69"/><polygon points="94.38 63.28 95.62 63.14 95.62 55.05 94.38 55.19 94.38 63.28" style="fill:#6a6a69"/><path d="M83.89,63.21H81.52v-8l1.24-.14v3.24h.89c2.22,0,3.06,1.2,3.06,2.46S85.9,63.21,83.89,63.21Zm-1.13-1.15h1.13c1.16,0,1.59-.66,1.59-1.32s-.62-1.31-1.62-1.31h-1.1Z" style="fill:#6a6a69"/><path d="M99.5,63.21H97.18v-8h1.95c2.31,0,2.85,1.29,2.85,2.13a1.94,1.94,0,0,1-1,1.76,1.89,1.89,0,0,1,1.37,1.85C102.3,62.24,101.3,63.21,99.5,63.21Zm-1.07-4.62h1a1.18,1.18,0,0,0,1.28-1.13c0-.62-.46-1.12-1.41-1.12h-.92Zm0,3.47h1.09c1,0,1.54-.59,1.54-1.2a1.26,1.26,0,0,0-1.42-1.22H98.43Z" style="fill:#6a6a69"/><path d="M109.27,61.61a3,3,0,0,1-1.81.64,3,3,0,0,1-3-3,3,3,0,0,1,3-3.07,3,3,0,0,1,1.8.62l-.19-1.43a4.07,4.07,0,0,0-1.63-.34,4.2,4.2,0,0,0-.1,8.4,4.41,4.41,0,0,0,1.73-.34Z" style="fill:#6a6a69"/><path d="M112.78,63.21h-2.36v-8l1.24-.14v3.24h.88c2.23,0,3.07,1.2,3.07,2.46S114.79,63.21,112.78,63.21Zm-1.12-1.15h1.12c1.17,0,1.59-.66,1.59-1.32s-.62-1.31-1.61-1.31h-1.1Z" style="fill:#6a6a69"/><polygon points="117.98 59.07 118.05 59.07 121.31 63.36 122.21 63.01 122.36 62.71 119.43 58.94 122.36 55.42 121.2 55 118.05 58.86 117.98 58.86 117.98 55.05 116.74 55.19 116.74 63.28 117.98 63.14 117.98 59.07" style="fill:#6a6a69"/><path d="M122.5,62.89l-.14-.18,3.92-7.85,4.11,8.28-1.24.26-1.31-2.73h-3.19l-1.32,2.73-1.19-.25.07-.14Zm2.65-3.29h2.2l-1.1-2.28Z" style="fill:#6a6a69"/><path d="M90.16,63.21H87.85v-8h1.94c2.31,0,2.85,1.29,2.85,2.13a1.94,1.94,0,0,1-1,1.76A1.87,1.87,0,0,1,93,60.93C93,62.24,92,63.21,90.16,63.21Zm-1.07-4.62h1a1.18,1.18,0,0,0,1.28-1.13c0-.62-.46-1.12-1.41-1.12h-.92Zm0,3.47h1.09c1,0,1.54-.59,1.54-1.2a1.26,1.26,0,0,0-1.42-1.22H89.09Z" style="fill:#6a6a69"/><path d="M94.09,76.48c0,2.15-1.63,3.74-4.58,3.74h-3.8V67.07H88.9c3.79,0,4.67,2.11,4.67,3.49a3.21,3.21,0,0,1-1.72,2.9A3,3,0,0,1,94.09,76.48Zm-6.35-3.83h1.73a1.93,1.93,0,0,0,2.11-1.86c0-1-.77-1.84-2.32-1.84H87.74Zm4.32,3.72a2.06,2.06,0,0,0-2.32-2h-2v4h1.81C91.25,78.34,92.06,77.37,92.06,76.37Z" style="fill:#6a6a69"/><polygon points="98.46 66.84 96.43 67.07 96.43 80.84 105.19 71.33 105.19 80.34 107.22 80.11 107.22 66.46 98.46 75.95 98.46 66.84" style="fill:#6a6a69"/><path d="M126.22,67.07h3.08v13l-2,.23V73.78l-4.85,6.69-2-.73,3.85-5.14A3.43,3.43,0,0,1,121.44,71C121.44,69.26,122.48,67.07,126.22,67.07Zm1,1.86H126.1c-1.69,0-2.61.94-2.61,2.17A2.33,2.33,0,0,0,126,73.36h1.3Z" style="fill:#6a6a69"/><polygon points="84.14 67.63 82.34 66.84 78.89 71.88 75.4 66.84 73.58 67.63 77.74 73.46 73.17 79.78 75.04 80.51 78.87 75.07 82.78 80.51 84.66 79.78 80 73.46 84.14 67.63" style="fill:#6a6a69"/><polygon points="108.21 80.22 110.23 80.53 114.29 71.04 118.49 80.53 120.54 80.22 114.37 66.54 108.21 80.22" style="fill:#6a6a69"/><polygon points="50.92 55.04 48.89 55.27 48.89 68.54 50.92 68.31 50.92 55.04" style="fill:#6a6a69"/><path d="M32.6,68.73l-2.15-4.47H25.22l-2.17,4.47-2-.4,6.8-13.6,6.7,13.5v.08Zm-3-6.23-1.8-3.74L26,62.5Z" style="fill:#6a6a69"/><path d="M34.63,68.31l0-.08V66.54h1.17L41,54.73l5.21,11.81h1.15v4.34l-2,.23V68.42H36.55v2.46l-2,.23v-2.8Zm3.14-1.67h6.29l-3.14-7.4Z" style="fill:#6a6a69"/><path d="M15.83,64a8.53,8.53,0,0,1-.88,0v4.37l-2,.23V55.27H16c3.43,0,4.85,2.32,4.85,4.35C20.83,61.81,19.18,64,15.83,64Zm3-4.37A2.5,2.5,0,0,0,16,57.15H15v4.91c.23,0,.44,0,.67,0C18.05,62.1,18.8,60.75,18.8,59.6Z" style="fill:#6a6a69"/><polygon points="11.83 75.15 13.43 74.12 13.43 80.4 14.58 80.26 14.58 72.12 11.34 74.41 11.83 75.15" style="fill:#6a6a69"/><path d="M23.47,76.32c0,2.5-1.27,4.2-3.07,4.2s-3.08-1.69-3.08-4.2,1.29-4.2,3.08-4.2S23.47,73.79,23.47,76.32Zm-1.14,0c0-1.7-.61-3.11-1.93-3.11-1.12,0-1.93,1-1.93,3.11s.89,3.11,1.93,3.11S22.33,78.36,22.33,76.32Z" style="fill:#6a6a69"/><path d="M30.13,76.32c0,2.5-1.27,4.2-3.07,4.2S24,78.83,24,76.32s1.28-4.2,3.07-4.2S30.13,73.79,30.13,76.32Zm-1.14,0c0-1.7-.61-3.11-1.93-3.11-1.12,0-1.93,1-1.93,3.11s.89,3.11,1.93,3.11S29,78.36,29,76.32Z" style="fill:#6a6a69"/><path d="M32,79l-.85.68a.73.73,0,0,1,.46.64,1.88,1.88,0,0,1-.48.94l-.23.33.6.41.27-.37c.44-.58.88-1.07.88-1.58A1.45,1.45,0,0,0,32,79Z" style="fill:#6a6a69"/><path d="M45.33,73.06a2.48,2.48,0,0,1,.59.07l-.35-1.07h-.36A2,2,0,0,0,43,74.26v.15h-.44l-.33,1H43v5l1.1-.14V75.41h1.5v-1h-1.5v-.1A1.11,1.11,0,0,1,45.33,73.06Z" style="fill:#6a6a69"/><path d="M38.92,78.14a2.45,2.45,0,0,1-2.66,2.38,2.46,2.46,0,0,1-2.67-2.38,2.19,2.19,0,0,1,1.43-2,2.05,2.05,0,0,1-1.22-1.87,2.22,2.22,0,0,1,2.46-2.16,2.19,2.19,0,0,1,2.45,2.16,2,2,0,0,1-1.21,1.83A2.09,2.09,0,0,1,38.92,78.14Zm-3-2.66.36.16c.6-.18,1.33-.63,1.33-1.27a1.34,1.34,0,0,0-2.66,0C34.93,75,35.49,75.29,35.9,75.48Zm1.88,2.65c0-.76-.59-1-1.19-1.31l-.33-.15c-.54.13-1.52.51-1.52,1.46a1.54,1.54,0,0,0,3,0Z" style="fill:#6a6a69"/><path d="M52.88,74.34a2.14,2.14,0,0,0-.64-.11,2.07,2.07,0,0,0-1.76.91,1.71,1.71,0,0,0-1.59-.91,1.86,1.86,0,0,0-1.67,1v-.94l-1,.14v6l1.1-.14V76.77a1.39,1.39,0,0,1,1.33-1.54c1,0,1,.9,1,1.22v4l1.1-.14V76.8c0-1.17.66-1.57,1.27-1.57a1.1,1.1,0,0,1,.85.38,1.15,1.15,0,0,1,.25.78v4l1.1-.14V76.14A1.81,1.81,0,0,0,52.88,74.34Z" style="fill:#6a6a69"/><path d="M52.88,74.34a2.14,2.14,0,0,0-.64-.11,2.07,2.07,0,0,0-1.76.91,1.71,1.71,0,0,0-1.59-.91,1.86,1.86,0,0,0-1.67,1v-.94l-1,.14v6l1.1-.14V76.77a1.39,1.39,0,0,1,1.33-1.54c1,0,1,.9,1,1.22v4l1.1-.14V76.8c0-1.17.66-1.57,1.27-1.57a1.1,1.1,0,0,1,.85.38,1.15,1.15,0,0,1,.25.78v4l1.1-.14V76.14A1.81,1.81,0,0,0,52.88,74.34Z" style="fill:#6a6a69"/></svg>