<svg id="Layer_1" data-name="Layer 1" xmlns="http://www.w3.org/2000/svg" viewBox="0 0 141.73 141.73"><title>07</title><path d="M9.58,72.21H7.86L6.72,76.44H2.83l3.77-14h5.27c2.31,0,3.85.5,4.79,1.43a4,4,0,0,1,1.07,2.88,4.57,4.57,0,0,1-1.31,3.37,6.49,6.49,0,0,1-2.89,1.57l2.17,4.71H11.43Zm1.29-3a3.41,3.41,0,0,0,2.4-.76,1.64,1.64,0,0,0,.5-1.2,1.17,1.17,0,0,0-.38-.91,2.36,2.36,0,0,0-1.7-.5H9.58l-.92,3.37Z" style="fill:#6a6a69"/><path d="M17.63,71.81A8.12,8.12,0,0,1,18,69.58l1.9-7.1h3.91l-2,7.38a4.83,4.83,0,0,0-.2,1.31,1.93,1.93,0,0,0,2.18,2,2.63,2.63,0,0,0,1.89-.74,4.93,4.93,0,0,0,1.18-2.31l2.05-7.68h3.91l-2.21,8.25a9.08,9.08,0,0,1-2.17,4.17,7,7,0,0,1-5.15,1.8c-3.57,0-5.63-1.82-5.63-4.89" style="fill:#6a6a69"/><polygon points="34.13 62.48 37.72 62.48 41.35 70.24 43.45 62.48 47.27 62.48 43.52 76.44 40.13 76.44 36.36 68.38 34.21 76.44 30.36 76.44 34.13 62.48" style="fill:#6a6a69"/><polygon points="67.61 62.48 69.18 62.48 69.18 70.81 77.2 62.48 79.24 62.48 73.25 68.58 79.5 76.44 77.52 76.44 72.16 69.68 69.18 72.69 69.18 76.44 67.61 76.44 67.61 62.48" style="fill:#6a6a69"/><path d="M81,62.48h6a5.55,5.55,0,0,1,4,1.39A3.9,3.9,0,0,1,92,66.63v0c0,2.31-1.59,3.67-3.79,4.06l4.29,5.71H90.57l-4-5.43h-4v5.43H81Zm5.87,7.12c2.09,0,3.59-1.08,3.59-2.87v0c0-1.72-1.32-2.76-3.57-2.76H82.53V69.6Z" style="fill:#6a6a69"/><path d="M99.54,62.38H101l6.36,14.06h-1.69l-1.64-3.69h-7.6L94.8,76.44H93.18Zm3.89,8.93-3.17-7.1-3.19,7.1Z" style="fill:#6a6a69"/><rect x="109.28" y="62.48" width="1.58" height="13.96" style="fill:#6a6a69"/><polygon points="113.94 62.48 115.42 62.48 124.22 73.67 124.22 62.48 125.75 62.48 125.75 76.44 124.5 76.44 115.48 64.99 115.48 76.44 113.94 76.44 113.94 62.48" style="fill:#6a6a69"/><polygon points="128.7 62.48 138.8 62.48 138.8 63.91 130.28 63.91 130.28 68.68 137.9 68.68 137.9 70.12 130.28 70.12 130.28 75 138.9 75 138.9 76.44 128.7 76.44 128.7 62.48" style="fill:#6a6a69"/><path d="M56.68,65.91c-.06-.18-.46-1.49-.56-1.69s-.23-.37-.29-.48a5.57,5.57,0,0,1-.2-.81,1.13,1.13,0,0,0-.58-1.5,3.45,3.45,0,0,0-.56-.17,1.77,1.77,0,0,1-.52-.38.5.5,0,0,1,0-.3,1.4,1.4,0,0,0,.35-.71h0c.07,0,.11-.21.15-.32s.08-.29.05-.32h0a.14.14,0,0,0-.08,0s0-.23.07-.42a1,1,0,0,0-.87-1.1h-.2a1,1,0,0,0-1,.91c0,.2-.07.37-.06.38h0c-.07,0-.11.12-.1.23a1.46,1.46,0,0,0,0,.39s0,0,0,0h0a1.53,1.53,0,0,0,.12.54.31.31,0,0,1,0,.08,1.31,1.31,0,0,1-.52.29c0-.48-.81-.91-.86-1a6.78,6.78,0,0,0-.28-.75c-.22-.39-.39-.65-.42-.7s0-.14.14-.38a5.69,5.69,0,0,0,.19-1,6.37,6.37,0,0,1,.14-.79,2.24,2.24,0,0,1,.13-.27c0-.09,0-.2,0-.23a1.18,1.18,0,0,0,.15-.54c0-.05.09-.35.09-.39s.06-.31.07-.37a1.55,1.55,0,0,1,.06-.31c0-.05,0-.17,0-.3a.11.11,0,0,0-.1-.12s-.08,0-.1.09a2.25,2.25,0,0,1-.09.3s-.06.28-.08.33l-.07.2a.13.13,0,0,0-.12-.09h0c-.09,0-.15.11-.15.11a.28.28,0,0,0-.15-.13h0c-.08,0-.17.1-.17.1s0-.07-.13-.07h0c-.06,0-.19.15-.19.19s-.05.18-.07.25.07.09.07.09a1.14,1.14,0,0,0,0,.58,2,2,0,0,0,0,.42,7,7,0,0,1-.4,1.06,5.39,5.39,0,0,0-.34,1.22.71.71,0,0,0,.07.43.5.5,0,0,1,.08.21,3.84,3.84,0,0,0,.21,1,6.4,6.4,0,0,0,.5.9,3.83,3.83,0,0,0-.09,1.27,8.31,8.31,0,0,1,.06,1.07c0,.18,0,.61,0,.82s-.08,1.34-.09,1.42-.2.32-.29.54-.15.43-.24.73a.07.07,0,0,0-.06.06l-.14.57a4,4,0,0,0-.41.52c-.1.17-.79.86-.62,1.18l0,0a7,7,0,0,0-.32.88,15.34,15.34,0,0,0-.4,2.61.93.93,0,0,0,0,.67.82.82,0,0,0,.54.44h0a1.36,1.36,0,0,0,.67-.46c.15-.19.46-.33.76-.61S50,72,50.1,72a3.81,3.81,0,0,1,.45-.1h0c-.1.29-.33,2-.38,2.21s-.21.33-.45,1-.49,2.92-.62,3.5a2.55,2.55,0,0,1-.18.57.8.8,0,0,0-.22.29l0,.1a.49.49,0,0,0-.14.3,5.32,5.32,0,0,1-.16.67,4.09,4.09,0,0,1-.32.46s-.41.29-.36.56l0,.15a.31.31,0,0,0,.19.14,8,8,0,0,0,1,.23h0a.83.83,0,0,0,.18,0,.42.42,0,0,0,.42-.24l0-.37s0-.16.09-.21a.62.62,0,0,0,.2-.45s0-.54-.08-.69V80l0-.06a1.84,1.84,0,0,0,.06-.4,12.41,12.41,0,0,1,.86-1.87,6,6,0,0,0,.75-2.16c0-.3,0-.77.07-1a11.85,11.85,0,0,1,.69-1.54,17.84,17.84,0,0,0,.93-2.21s.06,0,.1-.11a5.84,5.84,0,0,0,.25-.94,7.52,7.52,0,0,0,.13-.92,4.2,4.2,0,0,0,0-1.23s0-.37-.1-.38h0a1.58,1.58,0,0,1,0-.49,3.63,3.63,0,0,0,0-.63c0-.09.19-.45.3-.76s.47-1.12.47-1.12a1.05,1.05,0,0,0,.33-.42,2.31,2.31,0,0,0,.37.66,3.39,3.39,0,0,0,.37.89c.22.36.6.86.6.86s0,0,0,0l-.18.22a.86.86,0,0,0-.13.23,1.68,1.68,0,0,1-.08.24c0,.07,0,.11.08.12h0c.15,0,.23-.28.24-.29h0c.12,0,.25.21.26.24a.43.43,0,0,1,0,.22,1.75,1.75,0,0,1-.28.17h0a1.29,1.29,0,0,0-.26.06.13.13,0,0,0-.07.14s0,.09,0,.1l.17.05s.38.12.48.13h.11a.43.43,0,0,0,.25,0c0-.06.19-.26.18-.37s0-.27,0-.54a4.55,4.55,0,0,0-.08-1m-5.79,4.42c-.25.06-.54.56-.56.56a.38.38,0,0,0-.16,0,.58.58,0,0,0-.14,0,4.72,4.72,0,0,0,.4-.91.26.26,0,0,0,.12.06h0a.49.49,0,0,0,.11-.15l.17-.14s0,.32,0,.34H51a1.44,1.44,0,0,1-.08.25" style="fill:#6a6a69"/><path d="M63.3,62.48V70.6c0,3.05-1.63,4.6-4.21,4.6a3.93,3.93,0,0,1-4.2-3.75l0,.06a.86.86,0,0,1-.1.16,19.41,19.41,0,0,1-.87,2,5.36,5.36,0,0,0,5.17,3c3.49,0,5.83-2.12,5.83-6.18v-8Z" style="fill:#6a6a69"/><polygon points="56.54 79.33 57.02 79.33 57.62 81.18 58.23 79.32 58.6 79.32 59.22 81.18 59.81 79.33 60.27 79.33 59.41 81.85 59.02 81.85 58.41 80.05 57.79 81.85 57.41 81.85 56.54 79.33" style="fill:#6a6a69"/><polygon points="62.72 79.33 64.58 79.33 64.58 79.72 63.16 79.72 63.16 80.37 64.42 80.37 64.42 80.76 63.16 80.76 63.16 81.44 64.6 81.44 64.6 81.83 62.72 81.83 62.72 79.33" style="fill:#6a6a69"/><path d="M71.08,79.31h.4l1.1,2.52h-.46l-.25-.61H70.68l-.25.61H70Zm.62,1.52-.43-1-.43,1Z" style="fill:#6a6a69"/><path d="M75,79.33h1.12a1,1,0,0,1,.72.25.75.75,0,0,1,.21.54h0a.76.76,0,0,1-.6.76l.68,1h-.52L76,81h-.55v.87H75Zm1.09,1.24c.31,0,.51-.17.51-.42h0c0-.27-.19-.41-.52-.41h-.64v.84Z" style="fill:#6a6a69"/><polygon points="79.6 79.33 81.45 79.33 81.45 79.72 80.04 79.72 80.04 80.37 81.29 80.37 81.29 80.76 80.04 80.76 80.04 81.44 81.47 81.44 81.47 81.83 79.6 81.83 79.6 79.33" style="fill:#6a6a69"/><path d="M87.06,79.33h1.12a1,1,0,0,1,.72.25.75.75,0,0,1,.21.54h0a.76.76,0,0,1-.6.76l.68,1h-.52L88.05,81H87.5v.87h-.44Zm1.09,1.24c.31,0,.51-.17.51-.42h0c0-.27-.19-.41-.52-.41H87.5v.84Z" style="fill:#6a6a69"/><path d="M91.54,80.58h0a1.31,1.31,0,0,1,2.61,0h0a1.28,1.28,0,0,1-1.31,1.29,1.26,1.26,0,0,1-1.3-1.29m2.15,0h0a.85.85,0,0,0-.85-.89.84.84,0,0,0-.84.88h0a.85.85,0,1,0,1.69,0" style="fill:#6a6a69"/><path d="M97.41,79.31h.41l1.1,2.52h-.46l-.26-.61H97l-.26.61h-.45ZM98,80.83l-.43-1-.43,1Z" style="fill:#6a6a69"/><path d="M101.35,79.33h.93a1.24,1.24,0,0,1,1.33,1.24h0a1.25,1.25,0,0,1-1.33,1.25h-.93Zm.44.4v1.7h.49a.82.82,0,0,0,.87-.85h0a.82.82,0,0,0-.87-.85Z" style="fill:#6a6a69"/><path d="M109.22,79.33h1.11a1,1,0,0,1,.72.25.75.75,0,0,1,.21.54h0a.76.76,0,0,1-.59.76l.67,1h-.52l-.61-.87h-.55v.87h-.44Zm1.08,1.24c.31,0,.51-.17.51-.42h0c0-.27-.19-.41-.51-.41h-.64v.84Z" style="fill:#6a6a69"/><path d="M113.76,80.77V79.33h.44v1.42c0,.46.24.71.63.71s.63-.23.63-.69V79.33h.44v1.42a1,1,0,0,1-1.07,1.12,1,1,0,0,1-1.07-1.1" style="fill:#6a6a69"/><polygon points="118.5 79.33 118.91 79.33 120.25 81.06 120.25 79.33 120.68 79.33 120.68 81.83 120.32 81.83 118.94 80.05 118.94 81.83 118.5 81.83 118.5 79.33" style="fill:#6a6a69"/><polygon points="123.33 79.33 123.73 79.33 125.08 81.06 125.08 79.33 125.51 79.33 125.51 81.83 125.14 81.83 123.76 80.05 123.76 81.83 123.33 81.83 123.33 79.33" style="fill:#6a6a69"/><polygon points="128.15 79.33 130 79.33 130 79.72 128.59 79.72 128.59 80.37 129.84 80.37 129.84 80.76 128.59 80.76 128.59 81.44 130.02 81.44 130.02 81.83 128.15 81.83 128.15 79.33" style="fill:#6a6a69"/><path d="M132.54,79.33h1.12a1,1,0,0,1,.72.25.75.75,0,0,1,.21.54h0a.76.76,0,0,1-.6.76l.68,1h-.52l-.62-.87H133v.87h-.44Zm1.09,1.24c.31,0,.51-.17.51-.42h0c0-.27-.19-.41-.52-.41H133v.84Z" style="fill:#6a6a69"/><path d="M137,81.46l.26-.31a1.16,1.16,0,0,0,.79.32c.28,0,.45-.12.45-.31h0c0-.18-.1-.27-.57-.38s-.83-.29-.83-.75h0a.77.77,0,0,1,.85-.73,1.35,1.35,0,0,1,.91.32l-.23.33a1.14,1.14,0,0,0-.68-.26c-.26,0-.41.13-.41.3h0c0,.2.11.28.6.4s.8.32.8.73h0c0,.47-.37.74-.9.74a1.53,1.53,0,0,1-1-.4" style="fill:#6a6a69"/></svg>