<svg id="Layer_1" data-name="Layer 1" xmlns="http://www.w3.org/2000/svg" viewBox="0 0 141.73 141.73"><title>08</title><path d="M98.07,75.29a3.09,3.09,0,0,1-1.48-.42l-.24-.14L95.2,77.25l.22.11a5.82,5.82,0,0,0,3,.76c2,0,3.19-1,4.17-3.52L107.43,62H104l-2.93,8.38L97.89,62H94.41l5.08,12.21c-.43.93-.85,1.13-1.42,1.13" style="fill:#6a6a69"/><path d="M66.42,72.11l.17-.18-2-2-.18.19a3.94,3.94,0,0,1-2.91,1.41A3.39,3.39,0,0,1,58.16,68v0a3.35,3.35,0,0,1,3.18-3.55,3.8,3.8,0,0,1,2.91,1.41l.19.21,2-2.21-.16-.18a6.19,6.19,0,0,0-5-2.15A6.41,6.41,0,0,0,54.91,68v0a6.36,6.36,0,0,0,6.43,6.44,6.29,6.29,0,0,0,5.08-2.33" style="fill:#6a6a69"/><path d="M70.52,67.91A3.45,3.45,0,0,0,73.9,71.5,3.35,3.35,0,0,0,77.26,68v0a3.42,3.42,0,0,0-3.4-3.59,3.33,3.33,0,0,0-3.34,3.54Zm3.34,6.48A6.44,6.44,0,0,1,67.27,68v0a6.62,6.62,0,0,1,13.24,0v0a6.49,6.49,0,0,1-6.65,6.48" style="fill:#6a6a69"/><path d="M49.54,61.83v7.09a2.18,2.18,0,0,1-2.2,2.36,2.28,2.28,0,0,1-2.25-2.39V61.83H41.68v7.09c0,3.1,2.48,5.13,5.64,5.13A5.83,5.83,0,0,0,50,73.29l.22-.12,0,.63v.25H53V61.83H49.54Z" style="fill:#6a6a69"/><path d="M85.8,74.05V67A2.18,2.18,0,0,1,88,64.6,2.28,2.28,0,0,1,90.24,67v7h3.42V67c0-3.1-2.48-5.13-5.64-5.13a6,6,0,0,0-2.66.76l-.23.12,0-.63v-.25H82.36V74.05H85.8Z" style="fill:#6a6a69"/><path d="M32.79,71.46a3.67,3.67,0,1,0-3.72-3.67,3.7,3.7,0,0,0,3.72,3.67m3.32-9.72h3.06V73.83H36.11V73a7.18,7.18,0,0,1-3.48,1.17c-3.77,0-6.73-2.62-6.73-6.3v0c0-3.72,3-6.37,6.77-6.37a7.07,7.07,0,0,1,3.44,1.14v-.82Z" style="fill:#6a6a69"/><path d="M20,63.54a7.8,7.8,0,0,1,3.42,1.19l.12.07,1.28-2.33-.11-.06A9.25,9.25,0,0,0,20,61c-2.37,0-4.76,1.27-4.76,4.11v0c0,2.33,2.13,3.25,4,3.8,1.24.36,2.44.79,2.44,1.71v0c0,.4-.18,1.43-1.82,1.43a8.14,8.14,0,0,1-4.1-1.69l-.11-.07-1.44,2.21.1.07a9.46,9.46,0,0,0,5.45,2c3.22,0,5-1.57,5-4.13v-.26c0-1.62-1.3-2.85-4-3.73h0l-.32-.11c-1.24-.42-2.14-.72-2.14-1.66v0c0-.57.53-1.19,1.67-1.19" style="fill:#6a6a69"/><path d="M121.14,76.43a1.93,1.93,0,1,0-3.79-.76,1.92,1.92,0,0,0,1.51,2.27,1.86,1.86,0,0,0,1.45-.28,1.9,1.9,0,0,0,.83-1.23m-6.51,5a2,2,0,0,0,.86-1.62,1.87,1.87,0,0,0-.33-1.06,1.93,1.93,0,1,0-.53,2.68M109.76,84a1.9,1.9,0,0,0-.28-1.45,1.93,1.93,0,1,0-2,3A1.92,1.92,0,0,0,109.76,84M133.06,76a.43.43,0,0,1,.14.49c-.09.31-.39.42-.74.39s-1-.09-3.49-.09c-8,0-15.49,12.54-24.52,12.54-7.58,0-29-7.87-36-10.69a.32.32,0,0,1-.22-.18s-.43-.94-.48-1.13a.29.29,0,0,1,.37-.35c.21.06,17.86,4.65,26.43,5.11,9.2.5,13.13-3.79,17-6.38,0,0,4.25-3.37,6.72-4.2,3.18-1.06,6.58-.59,13.14,3.39.68.41.68.42,1.68,1.1h0" style="fill:#6a6a69"/></svg>