<svg id="Layer_1" data-name="Layer 1" xmlns="http://www.w3.org/2000/svg" viewBox="0 0 141.73 141.73"><title>09</title><path d="M71.73,69.62H69.91l0-3.19h1.68a3.43,3.43,0,0,1,1.72.35,1.25,1.25,0,0,1,.59,1.15,1.47,1.47,0,0,1-.67,1.37A2.92,2.92,0,0,1,71.73,69.62ZM12.47,57.4H130.1V84.33H12.47Zm97,20.24h6.23a12,12,0,0,0,3.48-.47,6.37,6.37,0,0,0,3-1.87,5.93,5.93,0,0,0,1.29-4l0-.52a7,7,0,0,0-1.65-5q-2-2.1-6.38-2.1h-6Zm-16.3,0h3.56l0-10.65,4.77,10.65H107V63.71h-3.52V74l0,.07L98.69,63.71H93.18Zm-13,0H91V74.92H84.16l0-2.93h6.29V69.28H84.14l0-2.85H91V63.71H80.21ZM66,77.64h3.91l0-5.3h.92a4.32,4.32,0,0,1,2.07.31,1.37,1.37,0,0,1,.57,1s.08.71.25,2.06a13.11,13.11,0,0,0,.33,1.93h4.26a16.83,16.83,0,0,1-.68-3.21,6.87,6.87,0,0,0-.72-2.69,2.93,2.93,0,0,0-2.52-.94l0-.08a4.79,4.79,0,0,0,2.52-1A3,3,0,0,0,78,67.26a2.92,2.92,0,0,0-1.17-2.49,8.1,8.1,0,0,0-4.71-1.06H66ZM51.9,66.43h4.3V77.64h3.94V66.43h4.42V63.71H51.9Zm-15,6.08a4.85,4.85,0,0,0,1.8,4,7.55,7.55,0,0,0,4.92,1.46,7.37,7.37,0,0,0,5.22-1.63,5.18,5.18,0,0,0,1.54-4l0-8.63H46.43V72a3.7,3.7,0,0,1-.59,2.25,2.59,2.59,0,0,1-2.22,1,2.76,2.76,0,0,1-2.21-.84,3.4,3.4,0,0,1-.73-2.32l0-8.36H36.85ZM20.44,77.64H24L24,67,28.8,77.64h5.44V63.71H30.72V74l0,.07L26,63.71H20.44Zm98-4.13a4.73,4.73,0,0,0,.93-3,4,4,0,0,0-1.14-2.94,3.87,3.87,0,0,0-2.86-1.16h-1.94v8.49h1.9A3.71,3.71,0,0,0,118.43,73.51ZM140,61.09a3.63,3.63,0,0,1-1.83,3.16,3.64,3.64,0,0,1-5-1.33,3.67,3.67,0,0,1,1.33-5,3.69,3.69,0,0,1,3.64,0A3.66,3.66,0,0,1,140,61.09Zm-.71,0a2.94,2.94,0,0,0-2.94-2.94,2.94,2.94,0,0,0-2.94,2.94,2.94,2.94,0,0,0,5,2.08A2.79,2.79,0,0,0,139.32,61.09Zm-1.85.82s.21.39.63,1.13H137a8.72,8.72,0,0,0-.75-1.33.55.55,0,0,0-.38-.22l-.12,0V63h-1v-3.9h1.74a1.55,1.55,0,0,1,1.07.3,1,1,0,0,1,.34.8,1,1,0,0,1-.26.68,1.41,1.41,0,0,1-.79.41,1.1,1.1,0,0,1,.33.19A2.4,2.4,0,0,1,137.47,61.91Zm-.59-1.6a.42.42,0,0,0-.16-.35.9.9,0,0,0-.56-.14h-.46v1h.42a1,1,0,0,0,.59-.14A.41.41,0,0,0,136.88,60.31Z" style="fill:#6a6a69"/></svg>